<svg xmlns="http://www.w3.org/2000/svg" viewBox="0 0 1000 700">
<defs>
<linearGradient id="sky" x1="0" y1="0" x2="0" y2="1"><stop offset="0" stop-color="#4C5D77"/><stop offset="0.55" stop-color="#8193AB"/><stop offset="1" stop-color="#C9D5E0"/></linearGradient>
<linearGradient id="field" x1="0" y1="0" x2="0" y2="1"><stop offset="0" stop-color="#8FD27A"/><stop offset="1" stop-color="#3E9A4A"/></linearGradient>
<linearGradient id="field2" x1="0" y1="0" x2="0" y2="1"><stop offset="0" stop-color="#A9DB8F"/><stop offset="1" stop-color="#79C06B"/></linearGradient>
<radialGradient id="shadow" cx="0.5" cy="0.5" r="0.5"><stop offset="0" stop-color="#1F4D27" stop-opacity="0.6"/><stop offset="1" stop-color="#1F4D27" stop-opacity="0.25"/></radialGradient>
<linearGradient id="jacket" x1="0" y1="0" x2="0" y2="1"><stop offset="0" stop-color="#FF7A57"/><stop offset="1" stop-color="#D9431F"/></linearGradient>
<linearGradient id="pants" x1="0" y1="0" x2="0" y2="1"><stop offset="0" stop-color="#3C4A66"/><stop offset="1" stop-color="#222B3D"/></linearGradient>
</defs>
<rect width="1000" height="700" fill="url(#sky)"/>
<g id="lluvia"><path d="M 452 263 L 446 297 M 924 225 L 918 259 M 508 274 L 502 308 M 185 244 L 179 278 M 630 356 L 624 390 M 94 161 L 88 195 M 91 362 L 85 396 M 693 57 L 687 91 M 982 424 L 976 458 M 654 285 L 648 319 M 157 46 L 151 80 M 528 64 L 522 98 M 190 136 L 184 170 M 30 225 L 24 259 M 441 375 L 435 409 M 519 295 L 513 329 M 500 304 L 494 338 M 457 151 L 451 185 M 998 436 L 992 470 M 840 322 L 834 356 M 315 131 L 309 165 M 289 68 L 283 102 M 766 199 L 760 233 M 847 194 L 841 228 M 958 377 L 952 411 M 1 123 L -5 157 M 910 227 L 904 261 M 980 198 L 974 232 M 73 291 L 67 325 M 779 147 L 773 181 M 87 172 L 81 206 M 964 342 L 958 376 M 118 138 L 112 172 M 101 64 L 95 98 M 797 111 L 791 145 M 559 218 L 553 252 M 191 331 L 185 365 M 131 296 L 125 330 M 117 207 L 111 241 M 213 147 L 207 181 M 971 360 L 965 394 M 304 392 L 298 426 M 211 197 L 205 231 M 854 295 L 848 329 M 100 434 L 94 468 M 213 143 L 207 177 M 773 171 L 767 205 M 296 69 L 290 103 M 90 272 L 84 306 M 243 279 L 237 313 M 372 220 L 366 254 M 959 233 L 953 267 M 575 385 L 569 419 M 183 101 L 177 135 M 908 365 L 902 399 M 249 116 L 243 150 M 739 414 L 733 448 M 197 418 L 191 452 M 882 280 L 876 314 M 421 81 L 415 115 M 39 423 L 33 457 M 238 320 L 232 354 M 257 368 L 251 402 M 596 157 L 590 191 M 175 327 L 169 361 M 69 131 L 63 165 M 559 379 L 553 413 M 614 152 L 608 186 M 917 121 L 911 155 M 17 147 L 11 181 M 446 64 L 440 98 M 176 187 L 170 221 M 572 92 L 566 126 M 362 395 L 356 429 M 980 301 L 974 335 M 691 273 L 685 307 M 140 54 L 134 88 M 18 402 L 12 436 M 701 423 L 695 457 M 21 293 L 15 327 M 482 331 L 476 365 M 319 438 L 313 472 M 75 257 L 69 291 M 737 398 L 731 432 M 737 320 L 731 354 M 793 404 L 787 438 M 352 313 L 346 347 M 901 387 L 895 421 M 417 355 L 411 389 M 863 268 L 857 302" stroke="#DDE6F0" stroke-width="2.5" opacity="0.28" stroke-linecap="round"/></g>
<g id="dentro"><path d="M 242.8 468 A 262.8 262.8 0 0 1 757.2 468 Z" fill="#FFFFFF" opacity="0.22"/></g>
<g id="banda"><path d="M 147.1 468 A 357 357 0 0 1 852.9 468 L 795.1 468 A 300 300 0 0 0 204.9 468 Z" fill="#1A2235" opacity="0.33"/></g>
<g id="prim"><path d="M 223.8 468 A 281.4 281.4 0 0 1 776.2 468" fill="none" stroke="#FFFFFF" stroke-width="55.2" opacity="0.12"/><path d="M 208.1 468 A 296.9 296.9 0 0 1 791.9 468" fill="none" stroke="#FF3B30" stroke-width="7.0" opacity="1.00"/><path d="M 214.4 468 A 290.7 290.7 0 0 1 785.6 468" fill="none" stroke="#FF9500" stroke-width="7.0" opacity="1.00"/><path d="M 220.7 468 A 284.5 284.5 0 0 1 779.3 468" fill="none" stroke="#FFE11A" stroke-width="7.0" opacity="1.00"/><path d="M 227.0 468 A 278.3 278.3 0 0 1 773.0 468" fill="none" stroke="#34C759" stroke-width="7.0" opacity="1.00"/><path d="M 233.3 468 A 272.1 272.1 0 0 1 766.7 468" fill="none" stroke="#2D7BFF" stroke-width="7.0" opacity="1.00"/><path d="M 239.6 468 A 265.9 265.9 0 0 1 760.4 468" fill="none" stroke="#8E44FF" stroke-width="7.0" opacity="1.00"/><path d="M 205.9 468 A 299.0 299.0 0 0 1 794.1 468" fill="none" stroke="#FFFFFF" stroke-width="2" opacity="0.35"/></g>
<g id="sec"><path d="M 125.9 468 A 378.0 378.0 0 0 1 874.1 468" fill="none" stroke="#FFFFFF" stroke-width="60.0" opacity="0.07"/><path d="M 108.2 468 A 395.5 395.5 0 0 1 891.8 468" fill="none" stroke="#8E44FF" stroke-width="7.8" opacity="0.62"/><path d="M 115.3 468 A 388.5 388.5 0 0 1 884.7 468" fill="none" stroke="#2D7BFF" stroke-width="7.8" opacity="0.62"/><path d="M 122.3 468 A 381.5 381.5 0 0 1 877.7 468" fill="none" stroke="#34C759" stroke-width="7.8" opacity="0.62"/><path d="M 129.4 468 A 374.5 374.5 0 0 1 870.6 468" fill="none" stroke="#FFE11A" stroke-width="7.8" opacity="0.62"/><path d="M 136.5 468 A 367.5 367.5 0 0 1 863.5 468" fill="none" stroke="#FF9500" stroke-width="7.8" opacity="0.62"/><path d="M 143.6 468 A 360.5 360.5 0 0 1 856.4 468" fill="none" stroke="#FF3B30" stroke-width="7.8" opacity="0.62"/><path d="M 105.7 468 A 398.0 398.0 0 0 1 894.3 468" fill="none" stroke="#FFFFFF" stroke-width="2" opacity="0.22"/></g>
<path d="M 0 468 C 120 442, 260 450, 360 438 C 470 426, 600 446, 700 438 C 820 428, 920 446, 1000 440 L 1000 478 L 0 478 Z" fill="#8DB89A"/>
<g><rect x="108.3" y="442.8" width="3.3" height="13.2" fill="#6F8F7A"/><circle cx="110" cy="437.3" r="11.0" fill="#6E9F80"/><rect x="858.2" y="439.6" width="3.6" height="14.4" fill="#6F8F7A"/><circle cx="860" cy="433.6" r="12.0" fill="#6E9F80"/><rect x="903.6" y="447.2" width="2.7" height="10.8" fill="#6F8F7A"/><circle cx="905" cy="442.7" r="9.0" fill="#6E9F80"/></g>
<path d="M 0 468 L 1000 468 L 1000 700 L 0 700 Z" fill="url(#field)" stroke="#0B0B14" stroke-width="6"/>
<path d="M 356 472 L -700 700 M 374 472 L -550 700 M 392 472 L -400 700 M 410 472 L -250 700 M 428 472 L -100 700 M 446 472 L 50 700 M 464 472 L 200 700 M 482 472 L 350 700 M 500 472 L 500 700 M 518 472 L 650 700 M 536 472 L 800 700 M 554 472 L 950 700 M 572 472 L 1100 700 M 590 472 L 1250 700 M 608 472 L 1400 700 M 626 472 L 1550 700 M 644 472 L 1700 700" stroke="#2F7F3B" stroke-width="3" opacity="0.35"/>
<path d="M 0 472 L 1000 472" stroke="#C7F0B0" stroke-width="3" opacity="0.7"/>
<g id="arboles"><path d="M 65.0 508 L 66.0 472.0 L 74.0 472.0 L 75.0 508 Z" fill="#7A5236" stroke="#0B0B14" stroke-width="4" stroke-linejoin="round"/><circle cx="56.0" cy="462.0" r="20.0" fill="#2E8B57" stroke="#0B0B14" stroke-width="5"/><circle cx="84.0" cy="460.0" r="19.0" fill="#2E8B57" stroke="#0B0B14" stroke-width="5"/><circle cx="70" cy="444.0" r="22.0" fill="#2E8B57" stroke="#0B0B14" stroke-width="5"/><path d="M 48.0 456.0 C 50.0 446.0, 60.0 438.0, 66.0 434.0" fill="none" stroke="#9BE08A" stroke-width="4.0" stroke-linecap="round" opacity="0.8"/><path d="M 146.0 496 L 146.8 467.2 L 153.2 467.2 L 154.0 496 Z" fill="#7A5236" stroke="#0B0B14" stroke-width="4" stroke-linejoin="round"/><circle cx="138.8" cy="459.2" r="16.0" fill="#3FA066" stroke="#0B0B14" stroke-width="5"/><circle cx="161.2" cy="457.6" r="15.2" fill="#3FA066" stroke="#0B0B14" stroke-width="5"/><circle cx="150" cy="444.8" r="17.6" fill="#3FA066" stroke="#0B0B14" stroke-width="5"/><path d="M 132.4 454.4 C 134.0 446.4, 142.0 440.0, 146.8 436.8" fill="none" stroke="#9BE08A" stroke-width="3.2" stroke-linecap="round" opacity="0.8"/><path d="M 924.8 512 L 925.8 474.2 L 934.2 474.2 L 935.2 512 Z" fill="#7A5236" stroke="#0B0B14" stroke-width="4" stroke-linejoin="round"/><circle cx="915.3" cy="463.7" r="21.0" fill="#2E8B57" stroke="#0B0B14" stroke-width="5"/><circle cx="944.7" cy="461.6" r="19.9" fill="#2E8B57" stroke="#0B0B14" stroke-width="5"/><circle cx="930" cy="444.8" r="23.1" fill="#2E8B57" stroke="#0B0B14" stroke-width="5"/><path d="M 906.9 457.4 C 909.0 446.9, 919.5 438.5, 925.8 434.3" fill="none" stroke="#9BE08A" stroke-width="4.2" stroke-linecap="round" opacity="0.8"/></g>
<g id="circ"><path d="M 776.2 468 A 281.4 281.4 0 1 1 223.8 468" fill="none" stroke="#FFFFFF" stroke-width="7" stroke-dasharray="16 12" opacity="0.95"/></g>
<g id="sombra"><path d="M 470 700 L 492 534 C 494 518, 506 518, 508 534 L 530 700 Z" fill="url(#shadow)"/><ellipse cx="500" cy="524" rx="12" ry="8" fill="#1F4D27" opacity="0.7"/></g>
<g id="persona"><path d="M 486.0 690.0 L 484.0 756.0 L 496.0 756.0 L 498.0 690.0 Z" fill="url(#pants)" stroke="#0B0B14" stroke-width="5.0" stroke-linejoin="round"/><path d="M 502.0 690.0 L 504.0 756.0 L 516.0 756.0 L 514.0 690.0 Z" fill="url(#pants)" stroke="#0B0B14" stroke-width="5.0" stroke-linejoin="round"/><path d="M 480.0 754.0 L 498.0 754.0 L 498.0 762.0 L 480.0 762.0 Z M 502.0 754.0 L 520.0 754.0 L 520.0 762.0 L 502.0 762.0 Z" fill="#4A3426" stroke="#0B0B14" stroke-width="4.0" stroke-linejoin="round"/><path d="M 474.0 632.0 C 464.0 650.0, 464.0 672.0, 468.0 690.0" fill="none" stroke="#0B0B14" stroke-width="18.0" stroke-linecap="round"/><path d="M 474.0 632.0 C 464.0 650.0, 464.0 672.0, 468.0 690.0" fill="none" stroke="#E5532F" stroke-width="11.0" stroke-linecap="round"/><path d="M 526.0 632.0 C 536.0 650.0, 536.0 672.0, 532.0 690.0" fill="none" stroke="#0B0B14" stroke-width="18.0" stroke-linecap="round"/><path d="M 526.0 632.0 C 536.0 650.0, 536.0 672.0, 532.0 690.0" fill="none" stroke="#E5532F" stroke-width="11.0" stroke-linecap="round"/><path d="M 472.0 626.0 C 470.0 614.0, 530.0 614.0, 528.0 626.0 L 524.0 694.0 C 510.0 700.0, 490.0 700.0, 476.0 694.0 Z" fill="url(#jacket)" stroke="#0B0B14" stroke-width="6.0" stroke-linejoin="round"/><rect x="481.0" y="628.0" width="38.0" height="52.0" rx="10.0" fill="#3E8E6A" stroke="#0B0B14" stroke-width="5.0"/><rect x="488.0" y="652.0" width="24.0" height="18.0" rx="5.0" fill="#2F7454" stroke="#0B0B14" stroke-width="3.0"/><path d="M 488.0 634.0 L 494.0 634.0" stroke="#86D9AE" stroke-width="4.0" stroke-linecap="round"/><circle cx="500.0" cy="600.0" r="20.0" fill="#6B4630" stroke="#0B0B14" stroke-width="5.0"/><path d="M 479.0 598.0 C 479.0 570.0, 521.0 570.0, 521.0 598.0 Z" fill="#2F6FD6" stroke="#0B0B14" stroke-width="5.0" stroke-linejoin="round"/><path d="M 488.0 584.0 C 494.0 578.0, 504.0 577.0, 510.0 580.0" fill="none" stroke="#8FB8FF" stroke-width="3.0" stroke-linecap="round"/><circle cx="480.0" cy="602.0" r="5.0" fill="#E8A27A" stroke="#0B0B14" stroke-width="3.0"/><circle cx="520.0" cy="602.0" r="5.0" fill="#E8A27A" stroke="#0B0B14" stroke-width="3.0"/></g>
<g id="lsombra"><line x1="600" y1="580" x2="510" y2="524" stroke="#FFFFFF" stroke-width="10" stroke-linecap="round" opacity="0.85"/><line x1="600" y1="580" x2="510" y2="524" stroke="#0B0B14" stroke-width="5" stroke-linecap="round"/><circle cx="510" cy="524" r="9" fill="#C8FF2E" stroke="#0B0B14" stroke-width="4"/><rect x="557" y="571" width="206" height="58" rx="12" fill="#0B0B14" stroke="#0B0B14" stroke-width="3"/><text x="660" y="610.8" text-anchor="middle" font-family="JetBrains Mono" font-weight="800" font-size="30" fill="#C8FF2E">TU SOMBRA</text></g>
<g id="lrojo1"><line x1="140" y1="340" x2="248.2" y2="364.7" stroke="#FFFFFF" stroke-width="10" stroke-linecap="round" opacity="0.85"/><line x1="140" y1="340" x2="248.2" y2="364.7" stroke="#0B0B14" stroke-width="5" stroke-linecap="round"/><circle cx="248.2" cy="364.7" r="9" fill="#C8FF2E" stroke="#0B0B14" stroke-width="4"/><rect x="46" y="301" width="116" height="58" rx="12" fill="#FF3B30" stroke="#0B0B14" stroke-width="3"/><text x="104" y="340.8" text-anchor="middle" font-family="JetBrains Mono" font-weight="800" font-size="30" fill="#0B0B14">ROJO</text></g>
<g id="lrojo2"><line x1="180" y1="180" x2="278.1" y2="237.9" stroke="#FFFFFF" stroke-width="10" stroke-linecap="round" opacity="0.85"/><line x1="180" y1="180" x2="278.1" y2="237.9" stroke="#0B0B14" stroke-width="5" stroke-linecap="round"/><circle cx="278.1" cy="237.9" r="9" fill="#C8FF2E" stroke="#0B0B14" stroke-width="4"/><rect x="92" y="139" width="116" height="58" rx="12" fill="#FF3B30" stroke="#0B0B14" stroke-width="3"/><text x="150" y="178.8" text-anchor="middle" font-family="JetBrains Mono" font-weight="800" font-size="30" fill="#0B0B14">ROJO</text></g>
<g id="lsec"><line x1="820" y1="130" x2="739.5" y2="215.5" stroke="#FFFFFF" stroke-width="10" stroke-linecap="round" opacity="0.85"/><line x1="820" y1="130" x2="739.5" y2="215.5" stroke="#0B0B14" stroke-width="5" stroke-linecap="round"/><circle cx="739.5" cy="215.5" r="9" fill="#C8FF2E" stroke="#0B0B14" stroke-width="4"/><rect x="756" y="81" width="188" height="58" rx="12" fill="#0B0B14" stroke="#0B0B14" stroke-width="3"/><text x="850" y="120.8" text-anchor="middle" font-family="JetBrains Mono" font-weight="800" font-size="30" fill="#C8FF2E">2.º ARCO</text></g>
<g id="lbanda"><line x1="500" y1="344" x2="500" y2="193.5" stroke="#FFFFFF" stroke-width="10" stroke-linecap="round" opacity="0.85"/><line x1="500" y1="344" x2="500" y2="193.5" stroke="#0B0B14" stroke-width="5" stroke-linecap="round"/><circle cx="500" cy="193.5" r="9" fill="#C8FF2E" stroke="#0B0B14" stroke-width="4"/><rect x="316" y="343" width="368" height="58" rx="12" fill="#0B0B14" stroke="#0B0B14" stroke-width="3"/><text x="500" y="382.8" text-anchor="middle" font-family="JetBrains Mono" font-weight="800" font-size="30" fill="#C8FF2E">BANDA DE ALEJANDRO</text></g>
</svg>