<svg xmlns="http://www.w3.org/2000/svg" viewBox="0 0 1000 700">
<defs>
<linearGradient id="sky" x1="0" y1="0" x2="1" y2="0.15"><stop offset="0" stop-color="#5E7491"/><stop offset="0.55" stop-color="#9DB7CF"/><stop offset="1" stop-color="#E9F1F6"/></linearGradient>
<linearGradient id="skyr" x1="0" y1="0" x2="1" y2="0"><stop offset="0" stop-color="#BFE0F5" stop-opacity="0"/><stop offset="1" stop-color="#FFE9B8" stop-opacity="0.85"/></linearGradient>
<linearGradient id="grass" x1="0" y1="0" x2="0" y2="1"><stop offset="0" stop-color="#7CCB6A"/><stop offset="1" stop-color="#3F9A4A"/></linearGradient>
<linearGradient id="soil" x1="0" y1="0" x2="0" y2="1"><stop offset="0" stop-color="#A27A55"/><stop offset="1" stop-color="#6E4E35"/></linearGradient>
<radialGradient id="sun" cx="0.4" cy="0.4" r="0.6"><stop offset="0" stop-color="#FFFFFF"/><stop offset="0.45" stop-color="#FFF1A8"/><stop offset="1" stop-color="#FFC93C"/></radialGradient>
<radialGradient id="sunglow" cx="0.5" cy="0.5" r="0.5"><stop offset="0" stop-color="#FFE680" stop-opacity="0.7"/><stop offset="1" stop-color="#FFE680" stop-opacity="0"/></radialGradient>
<radialGradient id="cloud" cx="0.5" cy="0.3" r="0.7"><stop offset="0" stop-color="#8C9AAE"/><stop offset="1" stop-color="#56657A"/></radialGradient>
<linearGradient id="jacket" x1="0" y1="0" x2="0" y2="1"><stop offset="0" stop-color="#FF7A57"/><stop offset="1" stop-color="#D9431F"/></linearGradient>
<linearGradient id="pants" x1="0" y1="0" x2="0" y2="1"><stop offset="0" stop-color="#3C4A66"/><stop offset="1" stop-color="#222B3D"/></linearGradient>
<radialGradient id="skin" cx="0.4" cy="0.35" r="0.7"><stop offset="0" stop-color="#F6CBA6"/><stop offset="1" stop-color="#D99A6C"/></radialGradient>
<radialGradient id="rdrop" cx="0.38" cy="0.32" r="0.7"><stop offset="0" stop-color="#FFFFFF"/><stop offset="0.5" stop-color="#FF8A80"/><stop offset="1" stop-color="#E3261B"/></radialGradient>
<radialGradient id="vdrop" cx="0.38" cy="0.32" r="0.7"><stop offset="0" stop-color="#FFFFFF"/><stop offset="0.5" stop-color="#C39BFF"/><stop offset="1" stop-color="#7B35E8"/></radialGradient>
<radialGradient id="gdrop" cx="0.38" cy="0.32" r="0.7"><stop offset="0" stop-color="#FFFFFF" stop-opacity="0.9"/><stop offset="1" stop-color="#8DB8DA" stop-opacity="0.9"/></radialGradient>
</defs>
<rect width="1000" height="700" fill="url(#sky)"/>
<rect width="1000" height="700" fill="url(#skyr)"/>
<path d="M 0 490 C 160 460, 300 480, 460 465 C 620 450, 800 482, 1000 468 L 1000 520 L 0 520 Z" fill="#AFC9B4" opacity="0.8"/>
<g id="sol"><circle cx="947" cy="264" r="120" fill="url(#sunglow)"/><circle cx="947" cy="264" r="44" fill="url(#sun)" stroke="#0B0B14" stroke-width="6"/><ellipse cx="934" cy="249" rx="12" ry="7" fill="#FFFFFF" opacity="0.8"/></g>
<g id="rayos"><path d="M 879 97 L 45 435 M 902 153 L 67 490 M 924 209 L 90 546 M 947 264 L 112 601 M 969 320 L 135 657 M 992 376 L 157 713 M 1014 431 L 180 768" stroke="#FFF3C4" stroke-width="10" opacity="0.18"/></g>
<g id="lluvia">
<path d="M 145 476 L 138 506 M 103 384 L 96 414 M 86 219 L 79 249 M 470 205 L 463 235 M 320 295 L 313 325 M 240 308 L 233 338 M 131 429 L 124 459 M 88 214 L 81 244 M 58 226 L 51 256 M 221 455 L 214 485 M 209 171 L 202 201 M 159 487 L 152 517 M 76 353 L 69 383 M 208 368 L 201 398 M 192 379 L 185 409 M 259 364 L 252 394 M 429 339 L 422 369 M 110 153 L 103 183 M 447 306 L 440 336 M 131 471 L 124 501 M 293 392 L 286 422 M 420 233 L 413 263 M 200 446 L 193 476 M 107 405 L 100 435 M 91 378 L 84 408 M 345 472 L 338 502 M 404 311 L 397 341 M 133 184 L 126 214 M 272 314 L 265 344 M 80 455 L 73 485 M 263 382 L 256 412 M 142 218 L 135 248 M 55 254 L 48 284 M 162 282 L 155 312 M 208 430 L 201 460 M 424 193 L 417 223 M 216 190 L 209 220 M 329 481 L 322 511 M 135 406 L 128 436 M 176 135 L 169 165 M 371 253 L 364 283 M 121 287 L 114 317 M 147 278 L 140 308 M 237 280 L 230 310 M 297 234 L 290 264 M 90 161 L 83 191 M 95 318 L 88 348 M 201 421 L 194 451 M 262 385 L 255 415 M 462 153 L 455 183 M 57 181 L 50 211 M 212 337 L 205 367 M 362 257 L 355 287 M 455 131 L 448 161 M 401 206 L 394 236 M 418 142 L 411 172 M 455 403 L 448 433 M 466 339 L 459 369 M 125 479 L 118 509 M 235 160 L 228 190 M 304 309 L 297 339 M 249 186 L 242 216 M 101 339 L 94 369 M 240 176 L 233 206 M 235 391 L 228 421 M 351 300 L 344 330 M 215 260 L 208 290 M 145 201 L 138 231 M 237 169 L 230 199 M 355 385 L 348 415" stroke="#6C86A6" stroke-width="3.5" opacity="0.55" stroke-linecap="round"/>
</g>
<g id="gotitas"><circle cx="206" cy="293" r="5" fill="url(#gdrop)" stroke="#3E5674" stroke-width="1.5"/><circle cx="97" cy="469" r="5" fill="url(#gdrop)" stroke="#3E5674" stroke-width="1.5"/><circle cx="362" cy="316" r="5" fill="url(#gdrop)" stroke="#3E5674" stroke-width="1.5"/><circle cx="152" cy="323" r="5" fill="url(#gdrop)" stroke="#3E5674" stroke-width="1.5"/><circle cx="358" cy="364" r="5" fill="url(#gdrop)" stroke="#3E5674" stroke-width="1.5"/><circle cx="63" cy="352" r="5" fill="url(#gdrop)" stroke="#3E5674" stroke-width="1.5"/><circle cx="424" cy="395" r="5" fill="url(#gdrop)" stroke="#3E5674" stroke-width="1.5"/><circle cx="431" cy="474" r="5" fill="url(#gdrop)" stroke="#3E5674" stroke-width="1.5"/><circle cx="149" cy="248" r="5" fill="url(#gdrop)" stroke="#3E5674" stroke-width="1.5"/><circle cx="279" cy="472" r="5" fill="url(#gdrop)" stroke="#3E5674" stroke-width="1.5"/><circle cx="208" cy="461" r="5" fill="url(#gdrop)" stroke="#3E5674" stroke-width="1.5"/><circle cx="400" cy="320" r="5" fill="url(#gdrop)" stroke="#3E5674" stroke-width="1.5"/><circle cx="310" cy="466" r="5" fill="url(#gdrop)" stroke="#3E5674" stroke-width="1.5"/><circle cx="373" cy="248" r="5" fill="url(#gdrop)" stroke="#3E5674" stroke-width="1.5"/><circle cx="398" cy="215" r="5" fill="url(#gdrop)" stroke="#3E5674" stroke-width="1.5"/><circle cx="208" cy="466" r="5" fill="url(#gdrop)" stroke="#3E5674" stroke-width="1.5"/><circle cx="399" cy="253" r="5" fill="url(#gdrop)" stroke="#3E5674" stroke-width="1.5"/><circle cx="176" cy="352" r="5" fill="url(#gdrop)" stroke="#3E5674" stroke-width="1.5"/><circle cx="397" cy="376" r="5" fill="url(#gdrop)" stroke="#3E5674" stroke-width="1.5"/><circle cx="434" cy="390" r="5" fill="url(#gdrop)" stroke="#3E5674" stroke-width="1.5"/><circle cx="388" cy="350" r="5" fill="url(#gdrop)" stroke="#3E5674" stroke-width="1.5"/><circle cx="205" cy="291" r="5" fill="url(#gdrop)" stroke="#3E5674" stroke-width="1.5"/><circle cx="256" cy="325" r="5" fill="url(#gdrop)" stroke="#3E5674" stroke-width="1.5"/><circle cx="395" cy="239" r="5" fill="url(#gdrop)" stroke="#3E5674" stroke-width="1.5"/></g>
<g id="nube"><g fill="#0B0B14" transform="translate(0 0)"><ellipse cx="120" cy="120" rx="75" ry="45"/><ellipse cx="210" cy="98" rx="85" ry="57"/><ellipse cx="310" cy="112" rx="83" ry="49"/><ellipse cx="400" cy="128" rx="65" ry="39"/><ellipse cx="180" cy="138" rx="95" ry="35"/><ellipse cx="330" cy="140" rx="105" ry="33"/></g><g fill="url(#cloud)"><ellipse cx="120" cy="120" rx="70" ry="40"/><ellipse cx="210" cy="98" rx="80" ry="52"/><ellipse cx="310" cy="112" rx="78" ry="44"/><ellipse cx="400" cy="128" rx="60" ry="34"/><ellipse cx="180" cy="138" rx="90" ry="30"/><ellipse cx="330" cy="140" rx="100" ry="28"/></g><path d="M 140 92 C 170 72, 230 60, 270 74" fill="none" stroke="#B9C4D3" stroke-width="6" stroke-linecap="round" opacity="0.8"/></g>
<path d="M 0 520 L 1000 520 L 1000 700 L 0 700 Z" fill="url(#soil)"/>
<g fill="#8A6444" opacity="0.6"><ellipse cx="140" cy="600" rx="22" ry="9"/><ellipse cx="520" cy="640" rx="16" ry="7"/><ellipse cx="880" cy="610" rx="26" ry="10"/></g>
<path d="M 0 520 L 1000 520 L 1000 542 L 0 542 Z" fill="url(#grass)" stroke="#0B0B14" stroke-width="6"/>
<path d="M 0 523 L 1000 523" stroke="#B5EBA0" stroke-width="3" opacity="0.8"/>
<path d="M 10 520 L 13 511 L 17 520 M 32 520 L 35 506 L 39 520 M 54 520 L 57 510 L 61 520 M 76 520 L 79 509 L 83 520 M 98 520 L 101 511 L 105 520 M 120 520 L 123 505 L 127 520 M 142 520 L 145 510 L 149 520 M 164 520 L 167 510 L 171 520 M 186 520 L 189 506 L 193 520 M 208 520 L 211 508 L 215 520 M 230 520 L 233 510 L 237 520 M 252 520 L 255 505 L 259 520 M 274 520 L 277 509 L 281 520 M 296 520 L 299 509 L 303 520 M 318 520 L 321 504 L 325 520 M 340 520 L 343 506 L 347 520 M 362 520 L 365 506 L 369 520 M 384 520 L 387 510 L 391 520 M 406 520 L 409 505 L 413 520 M 428 520 L 431 507 L 435 520 M 450 520 L 453 505 L 457 520 M 472 520 L 475 509 L 479 520 M 494 520 L 497 506 L 501 520 M 516 520 L 519 506 L 523 520 M 538 520 L 541 509 L 545 520 M 560 520 L 563 507 L 567 520 M 582 520 L 585 506 L 589 520 M 604 520 L 607 504 L 611 520 M 626 520 L 629 505 L 633 520 M 648 520 L 651 506 L 655 520 M 670 520 L 673 511 L 677 520 M 692 520 L 695 507 L 699 520 M 714 520 L 717 507 L 721 520 M 736 520 L 739 511 L 743 520 M 758 520 L 761 508 L 765 520 M 780 520 L 783 505 L 787 520 M 802 520 L 805 505 L 809 520 M 824 520 L 827 505 L 831 520 M 846 520 L 849 511 L 853 520 M 868 520 L 871 507 L 875 520 M 890 520 L 893 505 L 897 520 M 912 520 L 915 507 L 919 520 M 934 520 L 937 509 L 941 520 M 956 520 L 959 512 L 963 520 M 978 520 L 981 505 L 985 520" fill="#5DB257" stroke="#0B0B14" stroke-width="2.5" stroke-linejoin="round"/>
<g id="sombra"><path d="M 800 518 L 760 518 L 344 519 C 318 511, 292 514, 292 520 C 294 526, 320 528, 344 523 L 760 524 L 800 524 Z" fill="#1E3A20" opacity="0.55"/></g>
<g id="anti"><path d="M 752 343 L 313.9 520.0" stroke="#0B0B14" stroke-width="9" stroke-dasharray="18 12"/><path d="M 752 343 L 313.9 520.0" stroke="#FFFFFF" stroke-width="4" stroke-dasharray="18 12"/><path d="M 313.9 520.0 L 109.9 602.4" stroke="#FFFFFF" stroke-width="4" stroke-dasharray="12 12" opacity="0.6"/></g>
<g id="lower"><path d="M 752 343 L 665.7 520.0" stroke="#C8FF2E" stroke-width="4" stroke-dasharray="14 10"/><path d="M 665.7 520.0 L 613.1 627.9" stroke="#C8FF2E" stroke-width="4" stroke-dasharray="10 10" opacity="0.55"/></g>
<g id="upline"><path d="M 752 343 L 322.0 186.5" stroke="#C8FF2E" stroke-width="4" stroke-dasharray="14 10"/></g>
<g id="sunray"><path d="M 672.2 45 L 340.5 179" fill="none" stroke="#0B0B14" stroke-width="14" stroke-linecap="round" stroke-linejoin="round"/><path d="M 672.2 45 L 340.5 179" fill="none" stroke="#FFE14D" stroke-width="7" stroke-linecap="round" stroke-linejoin="round"/><path d="M 354.5 162 L 340.5 179 L 362.4 181.5" fill="none" stroke="#0B0B14" stroke-width="14" stroke-linecap="round" stroke-linejoin="round"/><path d="M 354.5 162 L 340.5 179 L 362.4 181.5" fill="none" stroke="#FFE14D" stroke-width="7" stroke-linecap="round" stroke-linejoin="round"/></g>
<g id="toeye"><path d="M 332.0 203.3 L 746 345" fill="none" stroke="#0B0B14" stroke-width="9" stroke-linecap="round" stroke-linejoin="round"/><path d="M 332.0 203.3 L 746 345" fill="none" stroke="#9B4DFF" stroke-width="4" stroke-linecap="round" stroke-linejoin="round"/><path d="M 332.0 186.5 L 746 341" fill="none" stroke="#0B0B14" stroke-width="12" stroke-linecap="round" stroke-linejoin="round"/><path d="M 332.0 186.5 L 746 341" fill="none" stroke="#FF3B30" stroke-width="6" stroke-linecap="round" stroke-linejoin="round"/></g>
<g id="gotar"><circle cx="322.0" cy="186.5" r="15" fill="url(#rdrop)" stroke="#0B0B14" stroke-width="4"/><circle cx="317.0" cy="181.5" r="4" fill="#FFFFFF"/></g>
<g id="gotav"><circle cx="322.0" cy="203.3" r="12" fill="url(#vdrop)" stroke="#0B0B14" stroke-width="4"/><circle cx="318.0" cy="199.3" r="3.5" fill="#FFFFFF"/></g>
<g id="persona"><path d="M 786 452 L 790 486 L 796 516" fill="none" stroke="#0B0B14" stroke-width="25" stroke-linecap="round" stroke-linejoin="round"/><path d="M 786 452 L 790 486 L 796 516" fill="none" stroke="url(#pants)" stroke-width="17" stroke-linecap="round" stroke-linejoin="round"/><path d="M 772 452 L 764 488 L 758 516" fill="none" stroke="#0B0B14" stroke-width="25" stroke-linecap="round" stroke-linejoin="round"/><path d="M 772 452 L 764 488 L 758 516" fill="none" stroke="url(#pants)" stroke-width="17" stroke-linecap="round" stroke-linejoin="round"/><path d="M 744 506 L 768 506 L 770 520 L 738 520 Q 736 510, 744 506 Z" fill="#4A3426" stroke="#0B0B14" stroke-width="5" stroke-linejoin="round"/><path d="M 784 506 L 808 506 L 808 520 L 778 520 Q 776 510, 784 506 Z" fill="#4A3426" stroke="#0B0B14" stroke-width="5" stroke-linejoin="round"/><rect x="796" y="376" width="34" height="66" rx="12" fill="#3E8E6A" stroke="#0B0B14" stroke-width="6"/><rect x="802" y="384" width="8" height="40" rx="4" fill="#7DD3A8" opacity="0.7"/><path d="M 756 384 C 756 368, 800 366, 802 384 L 806 452 C 790 460, 768 460, 754 452 Z" fill="url(#jacket)" stroke="#0B0B14" stroke-width="6" stroke-linejoin="round"/><path d="M 764 382 C 772 374, 790 374, 796 382" fill="none" stroke="#FFB49E" stroke-width="4" stroke-linecap="round"/><path d="M 776 392 L 778 450" stroke="#0B0B14" stroke-width="3" opacity="0.4"/><path d="M 768 392 L 742 420 L 712 404" fill="none" stroke="#0B0B14" stroke-width="21" stroke-linecap="round" stroke-linejoin="round"/><path d="M 768 392 L 742 420 L 712 404" fill="none" stroke="url(#jacket)" stroke-width="14" stroke-linecap="round" stroke-linejoin="round"/><circle cx="708" cy="402" r="8" fill="url(#skin)" stroke="#0B0B14" stroke-width="4"/><rect x="770" y="358" width="14" height="14" fill="url(#skin)" stroke="#0B0B14" stroke-width="4"/><circle cx="772" cy="338" r="26" fill="url(#skin)" stroke="#0B0B14" stroke-width="6"/><path d="M 748 334 L 740 343 L 749 346" fill="url(#skin)" stroke="#0B0B14" stroke-width="4" stroke-linejoin="round"/><path d="M 748 330 C 748 302, 798 300, 798 330 L 806 332 C 806 338, 744 336, 744 330 Z" fill="#2F6FD6" stroke="#0B0B14" stroke-width="5" stroke-linejoin="round"/><path d="M 758 318 C 766 310, 780 308, 788 312" fill="none" stroke="#8FB8FF" stroke-width="4" stroke-linecap="round"/><circle cx="752" cy="343" r="3.5" fill="#0B0B14"/><path d="M 780 340 C 784 336, 790 338, 790 344" fill="none" stroke="#B9774A" stroke-width="3"/></g>
<g id="ang"><path d="M 640.7 388.0 A 120 120 0 0 1 639.2 302.0" fill="none" stroke="#0B0B14" stroke-width="12" stroke-linecap="round" stroke-linejoin="round"/><path d="M 640.7 388.0 A 120 120 0 0 1 639.2 302.0" fill="none" stroke="#C8FF2E" stroke-width="6" stroke-linecap="round" stroke-linejoin="round"/></g>
<g id="l42"><text x="562" y="366" text-anchor="middle" font-family="JetBrains Mono" font-weight="800" font-size="56" fill="#C8FF2E" stroke="#0B0B14" stroke-width="10" paint-order="stroke" stroke-linejoin="round">42°</text></g>
<g id="lsombra"><line x1="313.9" y1="572" x2="307.9" y2="518" stroke="#FFFFFF" stroke-width="10" stroke-linecap="round" opacity="0.85"/><line x1="313.9" y1="572" x2="307.9" y2="518" stroke="#0B0B14" stroke-width="5" stroke-linecap="round"/><circle cx="307.9" cy="518" r="9" fill="#C8FF2E" stroke="#0B0B14" stroke-width="4"/><rect x="210.9" y="571" width="206" height="58" rx="12" fill="#0B0B14" stroke="#0B0B14" stroke-width="3"/><text x="313.9" y="610.8" text-anchor="middle" font-family="JetBrains Mono" font-weight="800" font-size="30" fill="#C8FF2E">TU SOMBRA</text></g>
<g id="lgota"><line x1="180" y1="234" x2="305" y2="190.5" stroke="#FFFFFF" stroke-width="10" stroke-linecap="round" opacity="0.85"/><line x1="180" y1="234" x2="305" y2="190.5" stroke="#0B0B14" stroke-width="5" stroke-linecap="round"/><circle cx="305" cy="190.5" r="9" fill="#C8FF2E" stroke="#0B0B14" stroke-width="4"/><rect x="102" y="233" width="116" height="58" rx="12" fill="#0B0B14" stroke="#0B0B14" stroke-width="3"/><text x="160" y="272.8" text-anchor="middle" font-family="JetBrains Mono" font-weight="800" font-size="30" fill="#C8FF2E">GOTA</text></g>
<g id="lsuelo"><line x1="660" y1="582" x2="635" y2="582.9" stroke="#FFFFFF" stroke-width="10" stroke-linecap="round" opacity="0.85"/><line x1="660" y1="582" x2="635" y2="582.9" stroke="#0B0B14" stroke-width="5" stroke-linecap="round"/><circle cx="635" cy="582.9" r="9" fill="#C8FF2E" stroke="#0B0B14" stroke-width="4"/><rect x="519" y="581" width="242" height="58" rx="12" fill="#FFFFFF" stroke="#0B0B14" stroke-width="3"/><text x="640" y="620.8" text-anchor="middle" font-family="JetBrains Mono" font-weight="800" font-size="30" fill="#0B0B14">BAJO TIERRA</text></g>
</svg>