<svg xmlns="http://www.w3.org/2000/svg" viewBox="0 0 1000 820">
<defs>
<linearGradient id="coin" x1="0" y1="0" x2="1" y2="0"><stop offset="0" stop-color="#FFE58A"/><stop offset="0.5" stop-color="#F5C542"/><stop offset="1" stop-color="#C99421"/></linearGradient><linearGradient id="cointop" x1="0" y1="0" x2="0" y2="1"><stop offset="0" stop-color="#FFF0B0"/><stop offset="1" stop-color="#F2C23A"/></linearGradient>
</defs>
<g id="rana"><g transform="translate(500 300) scale(1.75) translate(-300 -340)"><ellipse cx="300" cy="436" rx="180" ry="18" fill="#000" opacity="0.25"/><path d="M 150 420 L 205 352 L 250 428 Z" fill="#3E8F3A" stroke="#0B0B14" stroke-width="5" stroke-linejoin="round"/><path d="M 128 418 L 282 228 L 292 372 Z" fill="#8BD86A" stroke="#0B0B14" stroke-width="5" stroke-linejoin="round"/><path d="M 282 228 L 452 352 L 292 372 Z" fill="#5DBB4C" stroke="#0B0B14" stroke-width="5" stroke-linejoin="round"/><path d="M 128 418 L 292 372 L 452 352 L 300 428 Z" fill="#3F9A3C" stroke="#0B0B14" stroke-width="5" stroke-linejoin="round"/><path d="M 200 330 L 240 300 L 262 344" fill="none" stroke="#0B0B14" stroke-width="2.5" stroke-linecap="round" opacity="0.4"/><path d="M 330 300 L 352 330" fill="none" stroke="#0B0B14" stroke-width="2.5" stroke-linecap="round" opacity="0.4"/><path d="M 252 262 L 280 236" stroke="#D6FFC0" stroke-width="5" stroke-linecap="round"/><path d="M 392 372 L 452 352 L 470 432 L 436 432 Z" fill="#4FAE43" stroke="#0B0B14" stroke-width="5" stroke-linejoin="round"/><path d="M 436 432 L 470 432 L 486 444 L 430 444 Z" fill="#3E8F3A" stroke="#0B0B14" stroke-width="4" stroke-linejoin="round"/><path d="M 140 418 L 236 330 L 262 432 L 170 440 Z" fill="#4FAE43" stroke="#0B0B14" stroke-width="5" stroke-linejoin="round"/><path d="M 236 330 L 200 436" fill="none" stroke="#0B0B14" stroke-width="2.5" stroke-linecap="round" opacity="0.45"/><circle cx="398" cy="314" r="13" fill="#FFFFFF" stroke="#0B0B14" stroke-width="4"/><circle cx="401" cy="316" r="6" fill="#0B0B14"/><circle cx="372" cy="300" r="11" fill="#FFFFFF" stroke="#0B0B14" stroke-width="4"/><circle cx="375" cy="302" r="5" fill="#0B0B14"/><g transform="rotate(-24 330 395)"><rect x="300" y="384" width="62" height="22" fill="#FFFFFF" opacity="0.55" stroke="#9FB3C8" stroke-width="2"/></g></g></g>
<g id="rana2"><g transform="translate(255 330) scale(1.3) translate(-300 -340)"><ellipse cx="300" cy="436" rx="180" ry="18" fill="#000" opacity="0.25"/><path d="M 150 420 L 205 352 L 250 428 Z" fill="#3E8F3A" stroke="#0B0B14" stroke-width="5" stroke-linejoin="round"/><path d="M 128 418 L 282 228 L 292 372 Z" fill="#8BD86A" stroke="#0B0B14" stroke-width="5" stroke-linejoin="round"/><path d="M 282 228 L 452 352 L 292 372 Z" fill="#5DBB4C" stroke="#0B0B14" stroke-width="5" stroke-linejoin="round"/><path d="M 128 418 L 292 372 L 452 352 L 300 428 Z" fill="#3F9A3C" stroke="#0B0B14" stroke-width="5" stroke-linejoin="round"/><path d="M 200 330 L 240 300 L 262 344" fill="none" stroke="#0B0B14" stroke-width="2.5" stroke-linecap="round" opacity="0.4"/><path d="M 330 300 L 352 330" fill="none" stroke="#0B0B14" stroke-width="2.5" stroke-linecap="round" opacity="0.4"/><path d="M 252 262 L 280 236" stroke="#D6FFC0" stroke-width="5" stroke-linecap="round"/><path d="M 392 372 L 452 352 L 470 432 L 436 432 Z" fill="#4FAE43" stroke="#0B0B14" stroke-width="5" stroke-linejoin="round"/><path d="M 436 432 L 470 432 L 486 444 L 430 444 Z" fill="#3E8F3A" stroke="#0B0B14" stroke-width="4" stroke-linejoin="round"/><path d="M 140 418 L 236 330 L 262 432 L 170 440 Z" fill="#4FAE43" stroke="#0B0B14" stroke-width="5" stroke-linejoin="round"/><path d="M 236 330 L 200 436" fill="none" stroke="#0B0B14" stroke-width="2.5" stroke-linecap="round" opacity="0.45"/><circle cx="398" cy="314" r="13" fill="#FFFFFF" stroke="#0B0B14" stroke-width="4"/><circle cx="401" cy="316" r="6" fill="#0B0B14"/><circle cx="372" cy="300" r="11" fill="#FFFFFF" stroke="#0B0B14" stroke-width="4"/><circle cx="375" cy="302" r="5" fill="#0B0B14"/><g transform="rotate(-24 330 395)"><rect x="300" y="384" width="62" height="22" fill="#FFFFFF" opacity="0.55" stroke="#9FB3C8" stroke-width="2"/></g></g></g>
<g id="grulla"><g transform="translate(750 300) scale(1.25) translate(-740 -290)"><ellipse cx="740" cy="432" rx="150" ry="18" fill="#000" opacity="0.25"/><path d="M 700 330 L 790 330 L 850 120 Z" fill="#C93A24" stroke="#0B0B14" stroke-width="5" stroke-linejoin="round"/><path d="M 780 360 L 822 352 L 920 214 L 900 212 Z" fill="#E0503A" stroke="#0B0B14" stroke-width="5" stroke-linejoin="round"/><path d="M 700 360 L 660 352 L 578 214 L 596 210 Z" fill="#E0503A" stroke="#0B0B14" stroke-width="5" stroke-linejoin="round"/><path d="M 578 214 L 596 210 L 560 236 Z" fill="#B8301C" stroke="#0B0B14" stroke-width="5" stroke-linejoin="round"/><path d="M 660 352 L 740 300 L 822 352 L 740 420 Z" fill="#FF6A4E" stroke="#0B0B14" stroke-width="5" stroke-linejoin="round"/><path d="M 660 352 L 740 300 L 740 420 Z" fill="#FF8A70" stroke="#0B0B14" stroke-width="5" stroke-linejoin="round"/><path d="M 740 300 L 740 420" fill="none" stroke="#0B0B14" stroke-width="2.5" stroke-linecap="round" opacity="0.4"/><path d="M 700 334 L 780 334 L 640 116 Z" fill="#FF7A5E" stroke="#0B0B14" stroke-width="5" stroke-linejoin="round"/><path d="M 740 334 L 650 132" fill="none" stroke="#0B0B14" stroke-width="2.5" stroke-linecap="round" opacity="0.35"/><path d="M 660 140 L 690 200" stroke="#FFC2B2" stroke-width="5" stroke-linecap="round"/></g></g>
<g id="pila_tu"><ellipse cx="250" cy="718" rx="88" ry="25" fill="#000" opacity="0.25"/><path d="M 180 696 L 180 712 A 70 21 0 0 0 320 712 L 320 696" fill="url(#coin)" stroke="#0B0B14" stroke-width="5" stroke-linejoin="round"/><path d="M 190 710 L 190 702 M 230 729 L 230 719 M 270 729 L 270 719 M 310 710 L 310 702" stroke="#A97A16" stroke-width="2.5" opacity="0.8"/><path d="M 180 680 L 180 696 A 70 21 0 0 0 320 696 L 320 680" fill="url(#coin)" stroke="#0B0B14" stroke-width="5" stroke-linejoin="round"/><path d="M 190 694 L 190 686 M 230 713 L 230 703 M 270 713 L 270 703 M 310 694 L 310 686" stroke="#A97A16" stroke-width="2.5" opacity="0.8"/><path d="M 180 664 L 180 680 A 70 21 0 0 0 320 680 L 320 664" fill="url(#coin)" stroke="#0B0B14" stroke-width="5" stroke-linejoin="round"/><path d="M 190 678 L 190 670 M 230 697 L 230 687 M 270 697 L 270 687 M 310 678 L 310 670" stroke="#A97A16" stroke-width="2.5" opacity="0.8"/><path d="M 180 648 L 180 664 A 70 21 0 0 0 320 664 L 320 648" fill="url(#coin)" stroke="#0B0B14" stroke-width="5" stroke-linejoin="round"/><path d="M 190 662 L 190 654 M 230 681 L 230 671 M 270 681 L 270 671 M 310 662 L 310 654" stroke="#A97A16" stroke-width="2.5" opacity="0.8"/><path d="M 180 632 L 180 648 A 70 21 0 0 0 320 648 L 320 632" fill="url(#coin)" stroke="#0B0B14" stroke-width="5" stroke-linejoin="round"/><path d="M 190 646 L 190 638 M 230 665 L 230 655 M 270 665 L 270 655 M 310 646 L 310 638" stroke="#A97A16" stroke-width="2.5" opacity="0.8"/><path d="M 180 616 L 180 632 A 70 21 0 0 0 320 632 L 320 616" fill="url(#coin)" stroke="#0B0B14" stroke-width="5" stroke-linejoin="round"/><path d="M 190 630 L 190 622 M 230 649 L 230 639 M 270 649 L 270 639 M 310 630 L 310 622" stroke="#A97A16" stroke-width="2.5" opacity="0.8"/><path d="M 180 600 L 180 616 A 70 21 0 0 0 320 616 L 320 600" fill="url(#coin)" stroke="#0B0B14" stroke-width="5" stroke-linejoin="round"/><path d="M 190 614 L 190 606 M 230 633 L 230 623 M 270 633 L 270 623 M 310 614 L 310 606" stroke="#A97A16" stroke-width="2.5" opacity="0.8"/><path d="M 180 584 L 180 600 A 70 21 0 0 0 320 600 L 320 584" fill="url(#coin)" stroke="#0B0B14" stroke-width="5" stroke-linejoin="round"/><path d="M 190 598 L 190 590 M 230 617 L 230 607 M 270 617 L 270 607 M 310 598 L 310 590" stroke="#A97A16" stroke-width="2.5" opacity="0.8"/><path d="M 180 568 L 180 584 A 70 21 0 0 0 320 584 L 320 568" fill="url(#coin)" stroke="#0B0B14" stroke-width="5" stroke-linejoin="round"/><path d="M 190 582 L 190 574 M 230 601 L 230 591 M 270 601 L 270 591 M 310 582 L 310 574" stroke="#A97A16" stroke-width="2.5" opacity="0.8"/><ellipse cx="250" cy="568" rx="70" ry="21" fill="url(#cointop)" stroke="#0B0B14" stroke-width="5"/><ellipse cx="250" cy="568" rx="56" ry="15" fill="none" stroke="#C99421" stroke-width="3"/><path d="M 220 562 Q 240 556 262 558" stroke="#FFFFFF" stroke-width="4" stroke-linecap="round" fill="none"/></g>
<g id="pila_otros"><ellipse cx="520" cy="718" rx="88" ry="25" fill="#000" opacity="0.25"/><path d="M 450 696 L 450 712 A 70 21 0 0 0 590 712 L 590 696" fill="url(#coin)" stroke="#0B0B14" stroke-width="5" stroke-linejoin="round"/><path d="M 460 710 L 460 702 M 500 729 L 500 719 M 540 729 L 540 719 M 580 710 L 580 702" stroke="#A97A16" stroke-width="2.5" opacity="0.8"/><path d="M 450 680 L 450 696 A 70 21 0 0 0 590 696 L 590 680" fill="url(#coin)" stroke="#0B0B14" stroke-width="5" stroke-linejoin="round"/><path d="M 460 694 L 460 686 M 500 713 L 500 703 M 540 713 L 540 703 M 580 694 L 580 686" stroke="#A97A16" stroke-width="2.5" opacity="0.8"/><ellipse cx="520" cy="680" rx="70" ry="21" fill="url(#cointop)" stroke="#0B0B14" stroke-width="5"/><ellipse cx="520" cy="680" rx="56" ry="15" fill="none" stroke="#C99421" stroke-width="3"/><path d="M 490 674 Q 510 668 532 670" stroke="#FFFFFF" stroke-width="4" stroke-linecap="round" fill="none"/></g>
<g id="pila_exp"><ellipse cx="760" cy="718" rx="88" ry="25" fill="#000" opacity="0.25"/><path d="M 690 696 L 690 712 A 70 21 0 0 0 830 712 L 830 696" fill="url(#coin)" stroke="#0B0B14" stroke-width="5" stroke-linejoin="round"/><path d="M 700 710 L 700 702 M 740 729 L 740 719 M 780 729 L 780 719 M 820 710 L 820 702" stroke="#A97A16" stroke-width="2.5" opacity="0.8"/><path d="M 690 680 L 690 696 A 70 21 0 0 0 830 696 L 830 680" fill="url(#coin)" stroke="#0B0B14" stroke-width="5" stroke-linejoin="round"/><path d="M 700 694 L 700 686 M 740 713 L 740 703 M 780 713 L 780 703 M 820 694 L 820 686" stroke="#A97A16" stroke-width="2.5" opacity="0.8"/><path d="M 690 664 L 690 680 A 70 21 0 0 0 830 680 L 830 664" fill="url(#coin)" stroke="#0B0B14" stroke-width="5" stroke-linejoin="round"/><path d="M 700 678 L 700 670 M 740 697 L 740 687 M 780 697 L 780 687 M 820 678 L 820 670" stroke="#A97A16" stroke-width="2.5" opacity="0.8"/><path d="M 690 648 L 690 664 A 70 21 0 0 0 830 664 L 830 648" fill="url(#coin)" stroke="#0B0B14" stroke-width="5" stroke-linejoin="round"/><path d="M 700 662 L 700 654 M 740 681 L 740 671 M 780 681 L 780 671 M 820 662 L 820 654" stroke="#A97A16" stroke-width="2.5" opacity="0.8"/><path d="M 690 632 L 690 648 A 70 21 0 0 0 830 648 L 830 632" fill="url(#coin)" stroke="#0B0B14" stroke-width="5" stroke-linejoin="round"/><path d="M 700 646 L 700 638 M 740 665 L 740 655 M 780 665 L 780 655 M 820 646 L 820 638" stroke="#A97A16" stroke-width="2.5" opacity="0.8"/><path d="M 690 616 L 690 632 A 70 21 0 0 0 830 632 L 830 616" fill="url(#coin)" stroke="#0B0B14" stroke-width="5" stroke-linejoin="round"/><path d="M 700 630 L 700 622 M 740 649 L 740 639 M 780 649 L 780 639 M 820 630 L 820 622" stroke="#A97A16" stroke-width="2.5" opacity="0.8"/><path d="M 690 600 L 690 616 A 70 21 0 0 0 830 616 L 830 600" fill="url(#coin)" stroke="#0B0B14" stroke-width="5" stroke-linejoin="round"/><path d="M 700 614 L 700 606 M 740 633 L 740 623 M 780 633 L 780 623 M 820 614 L 820 606" stroke="#A97A16" stroke-width="2.5" opacity="0.8"/><path d="M 690 584 L 690 600 A 70 21 0 0 0 830 600 L 830 584" fill="url(#coin)" stroke="#0B0B14" stroke-width="5" stroke-linejoin="round"/><path d="M 700 598 L 700 590 M 740 617 L 740 607 M 780 617 L 780 607 M 820 598 L 820 590" stroke="#A97A16" stroke-width="2.5" opacity="0.8"/><path d="M 690 568 L 690 584 A 70 21 0 0 0 830 584 L 830 568" fill="url(#coin)" stroke="#0B0B14" stroke-width="5" stroke-linejoin="round"/><path d="M 700 582 L 700 574 M 740 601 L 740 591 M 780 601 L 780 591 M 820 582 L 820 574" stroke="#A97A16" stroke-width="2.5" opacity="0.8"/><path d="M 690 552 L 690 568 A 70 21 0 0 0 830 568 L 830 552" fill="url(#coin)" stroke="#0B0B14" stroke-width="5" stroke-linejoin="round"/><path d="M 700 566 L 700 558 M 740 585 L 740 575 M 780 585 L 780 575 M 820 566 L 820 558" stroke="#A97A16" stroke-width="2.5" opacity="0.8"/><ellipse cx="760" cy="552" rx="70" ry="21" fill="url(#cointop)" stroke="#0B0B14" stroke-width="5"/><ellipse cx="760" cy="552" rx="56" ry="15" fill="none" stroke="#C99421" stroke-width="3"/><path d="M 730 546 Q 750 540 772 542" stroke="#FFFFFF" stroke-width="4" stroke-linecap="round" fill="none"/></g>
<g id="l_tu"><rect x="138" y="743" width="224" height="58" rx="12" fill="#0B0B14" stroke="#0B0B14" stroke-width="3"/><text x="250" y="782.8" text-anchor="middle" font-family="JetBrains Mono, DejaVu Sans Mono, monospace" font-weight="800" font-size="30" fill="#C8FF2E">TÚ: 0,23 $</text></g>
<g id="l_otros"><rect x="381" y="743" width="278" height="58" rx="12" fill="#0B0B14" stroke="#0B0B14" stroke-width="3"/><text x="520" y="782.8" text-anchor="middle" font-family="JetBrains Mono, DejaVu Sans Mono, monospace" font-weight="800" font-size="30" fill="#C8FF2E">OTROS: 0,05 $</text></g>
<g id="l_exp"><rect x="675" y="743" width="170" height="58" rx="12" fill="#0B0B14" stroke="#0B0B14" stroke-width="3"/><text x="760" y="782.8" text-anchor="middle" font-family="JetBrains Mono, DejaVu Sans Mono, monospace" font-weight="800" font-size="30" fill="#C8FF2E">EXPERTO</text></g>
<g id="badge"><path d="M 880 630 L 859 642.5 L 875.1 660.9 L 851.3 666.3 L 860.9 688.8 L 836.6 686.6 L 838.8 710.9 L 816.3 701.3 L 810.9 725.1 L 792.5 709 L 780 730 L 767.5 709 L 749.1 725.1 L 743.7 701.3 L 721.2 710.9 L 723.4 686.6 L 699.1 688.8 L 708.7 666.3 L 684.9 660.9 L 701 642.5 L 680 630 L 701 617.5 L 684.9 599.1 L 708.7 593.7 L 699.1 571.2 L 723.4 573.4 L 721.2 549.1 L 743.7 558.7 L 749.1 534.9 L 767.5 551 L 780 530 L 792.5 551 L 810.9 534.9 L 816.3 558.7 L 838.8 549.1 L 836.6 573.4 L 860.9 571.2 L 851.3 593.7 L 875.1 599.1 L 859 617.5 Z" fill="#C8FF2E" stroke="#0B0B14" stroke-width="6" stroke-linejoin="round"/><text x="780" y="618" text-anchor="middle" font-family="JetBrains Mono, DejaVu Sans Mono, monospace" font-weight="800" font-size="28" fill="#0B0B14" >CASI</text><text x="780" y="664" text-anchor="middle" font-family="JetBrains Mono, DejaVu Sans Mono, monospace" font-weight="800" font-size="52" fill="#0B0B14" >×5</text></g>
<g id="igual"><circle cx="505" cy="640" r="46" fill="#FFFFFF" stroke="#0B0B14" stroke-width="6"/><text x="505" y="662" text-anchor="middle" font-family="JetBrains Mono, DejaVu Sans Mono, monospace" font-weight="800" font-size="62" fill="#0B0B14" >≈</text></g>
</svg>