<svg xmlns="http://www.w3.org/2000/svg" viewBox="0 0 1000 700">
  <rect width="1000" height="700" fill="#4FB3FF"/>
  <path d="M 0 160 Q 120 140 240 160 T 480 160 T 720 160 T 960 160 T 1200 160" stroke="#FFFFFF" stroke-opacity="0.5" stroke-width="5" fill="none"/>
  <g id="head">
    <path d="M 180 380 C 210 210 470 150 700 180 L 1010 210 L 1010 600 L 700 600 C 470 620 220 560 180 380 Z" fill="#F4F6FB" stroke="#0B0B14" stroke-width="9" stroke-linejoin="round"/>
    <path d="M 186 372 C 300 360 420 352 560 346 L 600 348" stroke="#0B0B14" stroke-width="7" fill="none"/>
    <circle cx="420" cy="260" r="36" fill="#FFFFFF" stroke="#0B0B14" stroke-width="7"/><circle cx="408" cy="254" r="17" fill="#0B0B14"/>
  </g>
  <g id="groove"><path d="M 210 366 C 320 356 430 349 560 344" stroke="#0B0B14" stroke-width="26" fill="none" stroke-linecap="round"/><path d="M 210 366 C 320 356 430 349 560 344" stroke="#FFFFFF" stroke-width="12" fill="none" stroke-linecap="round"/></g>
  <g id="tube"><path d="M 210 366 C 320 356 430 349 560 344" stroke="#C8FF2E" stroke-width="12" fill="none" stroke-linecap="round"/></g>
  <g id="tongue"><path d="M 230 392 C 300 372 450 366 560 372 C 600 380 600 410 560 414 C 450 420 300 420 236 408 Z" fill="#FF8FA8" stroke="#0B0B14" stroke-width="7"/></g>
  <g id="gill"><path d="M 720 220 C 660 300 660 470 720 560" stroke="#0B0B14" stroke-width="12" fill="none" stroke-linecap="round"/></g>
  <g id="press" fill="#C8FF2E" stroke="#0B0B14" stroke-width="7" stroke-linejoin="round">
    <path d="M 900 300 L 820 300 L 820 276 L 770 320 L 820 364 L 820 340 L 900 340 Z"/>
    <path d="M 900 450 L 820 450 L 820 426 L 770 470 L 820 514 L 820 490 L 900 490 Z"/>
  </g>
  <g id="jet2">
    <path d="M 196 366 Q 110 340 -20 300" stroke="#0B0B14" stroke-width="30" fill="none" stroke-linecap="round"/>
    <path d="M 196 366 Q 110 340 -20 300" stroke="#DFF6FF" stroke-width="16" fill="none" stroke-linecap="round"/>
  </g>
  <g id="labels" font-family="JetBrains Mono" font-weight="800" font-size="30" fill="#0B0B14">
    <g id="l1"><rect x="300" y="420" width="160" height="48" rx="8" fill="#0B0B14"/><text x="380" y="454" text-anchor="middle" fill="#C8FF2E">LENGUA</text></g>
    <g id="l2"><rect x="300" y="282" width="190" height="48" rx="8" fill="#0B0B14"/><text x="395" y="316" text-anchor="middle" fill="#C8FF2E">PALADAR</text></g>
    <g id="l3"><rect x="740" y="570" width="220" height="48" rx="8" fill="#0B0B14"/><text x="850" y="604" text-anchor="middle" fill="#C8FF2E">BRANQUIAS</text></g>
  </g>
</svg>
