<svg xmlns="http://www.w3.org/2000/svg" viewBox="0 0 1000 700">
<defs>
<linearGradient id="wall" x1="0" y1="0" x2="0" y2="1"><stop offset="0" stop-color="#EAF2F8"/><stop offset="1" stop-color="#D5E2EC"/></linearGradient>
<linearGradient id="bench" x1="0" y1="0" x2="0" y2="1"><stop offset="0" stop-color="#E2B27A"/><stop offset="1" stop-color="#B9834E"/></linearGradient>
<linearGradient id="benchfront" x1="0" y1="0" x2="0" y2="1"><stop offset="0" stop-color="#A86F3D"/><stop offset="1" stop-color="#7E5029"/></linearGradient>
<linearGradient id="case" x1="0" y1="0" x2="0" y2="1"><stop offset="0" stop-color="#FFE15A"/><stop offset="0.55" stop-color="#F7BE16"/><stop offset="1" stop-color="#D49A06"/></linearGradient>
<linearGradient id="rub" x1="0" y1="0" x2="0" y2="1"><stop offset="0" stop-color="#4A4E58"/><stop offset="1" stop-color="#1F2128"/></linearGradient>
<linearGradient id="blade" x1="0" y1="0" x2="0" y2="1"><stop offset="0" stop-color="#FFF08A"/><stop offset="0.5" stop-color="#FFD83A"/><stop offset="1" stop-color="#E9B90F"/></linearGradient>
<linearGradient id="steel" x1="0" y1="0" x2="0" y2="1"><stop offset="0" stop-color="#F2F5F9"/><stop offset="0.5" stop-color="#BCC4D0"/><stop offset="1" stop-color="#7F8898"/></linearGradient>
<linearGradient id="steelh" x1="0" y1="0" x2="1" y2="0"><stop offset="0" stop-color="#8E97A6"/><stop offset="0.4" stop-color="#E6EAF0"/><stop offset="1" stop-color="#9AA3B1"/></linearGradient>
<radialGradient id="rivet" cx="0.35" cy="0.35" r="0.7"><stop offset="0" stop-color="#FFFFFF"/><stop offset="0.5" stop-color="#C4CBD6"/><stop offset="1" stop-color="#6F7888"/></radialGradient>
<linearGradient id="wood" x1="0" y1="0" x2="0" y2="1"><stop offset="0" stop-color="#F0C890"/><stop offset="1" stop-color="#C98F55"/></linearGradient>

<linearGradient id="plaster" x1="0" y1="0" x2="1" y2="0"><stop offset="0" stop-color="#E9E2D8"/><stop offset="1" stop-color="#CFC4B4"/></linearGradient>
<linearGradient id="top" x1="0" y1="0" x2="0" y2="1"><stop offset="0" stop-color="#F7F2EA"/><stop offset="1" stop-color="#ECE3D6"/></linearGradient>
<linearGradient id="bot" x1="0" y1="0" x2="0" y2="1"><stop offset="0" stop-color="#EEF5FB"/><stop offset="1" stop-color="#DCE8F2"/></linearGradient>
</defs>
<rect width="1000" height="360" fill="url(#top)"/><rect y="360" width="1000" height="340" fill="url(#bot)"/>
<line x1="0" y1="360" x2="1000" y2="360" stroke="#0B0B14" stroke-width="5"/>

<g id="tabla"><rect x="140" y="236" width="640" height="96" fill="url(#wood)" stroke="#0B0B14" stroke-width="6"/><path d="M 170 266 C 340 256 540 276 760 264 M 180 302 C 400 292 560 312 760 298" fill="none" stroke="#B57A42" stroke-width="3" opacity="0.6"/></g>
<g id="cintaA"><rect x="184" y="220" width="900" height="16" fill="url(#blade)" stroke="#0B0B14" stroke-width="5"/><line x1="154.0" y1="222" x2="154.0" y2="226" stroke="#0B0B14" stroke-width="1.3"/><line x1="161.0" y1="222" x2="161.0" y2="226" stroke="#0B0B14" stroke-width="1.3"/><line x1="168.0" y1="222" x2="168.0" y2="226" stroke="#0B0B14" stroke-width="1.3"/><line x1="175.0" y1="222" x2="175.0" y2="229" stroke="#0B0B14" stroke-width="1.3"/><line x1="182.0" y1="222" x2="182.0" y2="226" stroke="#0B0B14" stroke-width="1.3"/><line x1="189.0" y1="222" x2="189.0" y2="226" stroke="#0B0B14" stroke-width="1.3"/><line x1="196.0" y1="222" x2="196.0" y2="226" stroke="#0B0B14" stroke-width="1.3"/><line x1="203.0" y1="222" x2="203.0" y2="226" stroke="#0B0B14" stroke-width="1.3"/><line x1="210.0" y1="222" x2="210.0" y2="232" stroke="#0B0B14" stroke-width="2.2"/><line x1="217.0" y1="222" x2="217.0" y2="226" stroke="#0B0B14" stroke-width="1.3"/><line x1="224.0" y1="222" x2="224.0" y2="226" stroke="#0B0B14" stroke-width="1.3"/><line x1="231.0" y1="222" x2="231.0" y2="226" stroke="#0B0B14" stroke-width="1.3"/><line x1="238.0" y1="222" x2="238.0" y2="226" stroke="#0B0B14" stroke-width="1.3"/><line x1="245.0" y1="222" x2="245.0" y2="229" stroke="#0B0B14" stroke-width="1.3"/><line x1="252.0" y1="222" x2="252.0" y2="226" stroke="#0B0B14" stroke-width="1.3"/><line x1="259.0" y1="222" x2="259.0" y2="226" stroke="#0B0B14" stroke-width="1.3"/><line x1="266.0" y1="222" x2="266.0" y2="226" stroke="#0B0B14" stroke-width="1.3"/><line x1="273.0" y1="222" x2="273.0" y2="226" stroke="#0B0B14" stroke-width="1.3"/><line x1="280.0" y1="222" x2="280.0" y2="232" stroke="#0B0B14" stroke-width="2.2"/><line x1="287.0" y1="222" x2="287.0" y2="226" stroke="#0B0B14" stroke-width="1.3"/><line x1="294.0" y1="222" x2="294.0" y2="226" stroke="#0B0B14" stroke-width="1.3"/><line x1="301.0" y1="222" x2="301.0" y2="226" stroke="#0B0B14" stroke-width="1.3"/><line x1="308.0" y1="222" x2="308.0" y2="226" stroke="#0B0B14" stroke-width="1.3"/><line x1="315.0" y1="222" x2="315.0" y2="229" stroke="#0B0B14" stroke-width="1.3"/><line x1="322.0" y1="222" x2="322.0" y2="226" stroke="#0B0B14" stroke-width="1.3"/><line x1="329.0" y1="222" x2="329.0" y2="226" stroke="#0B0B14" stroke-width="1.3"/><line x1="336.0" y1="222" x2="336.0" y2="226" stroke="#0B0B14" stroke-width="1.3"/><line x1="343.0" y1="222" x2="343.0" y2="226" stroke="#0B0B14" stroke-width="1.3"/><line x1="350.0" y1="222" x2="350.0" y2="232" stroke="#0B0B14" stroke-width="2.2"/><line x1="357.0" y1="222" x2="357.0" y2="226" stroke="#0B0B14" stroke-width="1.3"/><line x1="364.0" y1="222" x2="364.0" y2="226" stroke="#0B0B14" stroke-width="1.3"/><line x1="371.0" y1="222" x2="371.0" y2="226" stroke="#0B0B14" stroke-width="1.3"/><line x1="378.0" y1="222" x2="378.0" y2="226" stroke="#0B0B14" stroke-width="1.3"/><line x1="385.0" y1="222" x2="385.0" y2="229" stroke="#0B0B14" stroke-width="1.3"/><line x1="392.0" y1="222" x2="392.0" y2="226" stroke="#0B0B14" stroke-width="1.3"/><line x1="399.0" y1="222" x2="399.0" y2="226" stroke="#0B0B14" stroke-width="1.3"/><line x1="406.0" y1="222" x2="406.0" y2="226" stroke="#0B0B14" stroke-width="1.3"/><line x1="413.0" y1="222" x2="413.0" y2="226" stroke="#0B0B14" stroke-width="1.3"/><line x1="420.0" y1="222" x2="420.0" y2="232" stroke="#0B0B14" stroke-width="2.2"/><line x1="427.0" y1="222" x2="427.0" y2="226" stroke="#0B0B14" stroke-width="1.3"/><line x1="434.0" y1="222" x2="434.0" y2="226" stroke="#0B0B14" stroke-width="1.3"/><line x1="441.0" y1="222" x2="441.0" y2="226" stroke="#0B0B14" stroke-width="1.3"/><line x1="448.0" y1="222" x2="448.0" y2="226" stroke="#0B0B14" stroke-width="1.3"/><line x1="455.0" y1="222" x2="455.0" y2="229" stroke="#0B0B14" stroke-width="1.3"/><line x1="462.0" y1="222" x2="462.0" y2="226" stroke="#0B0B14" stroke-width="1.3"/><line x1="469.0" y1="222" x2="469.0" y2="226" stroke="#0B0B14" stroke-width="1.3"/><line x1="476.0" y1="222" x2="476.0" y2="226" stroke="#0B0B14" stroke-width="1.3"/><line x1="483.0" y1="222" x2="483.0" y2="226" stroke="#0B0B14" stroke-width="1.3"/><line x1="490.0" y1="222" x2="490.0" y2="232" stroke="#0B0B14" stroke-width="2.2"/><line x1="497.0" y1="222" x2="497.0" y2="226" stroke="#0B0B14" stroke-width="1.3"/><line x1="504.0" y1="222" x2="504.0" y2="226" stroke="#0B0B14" stroke-width="1.3"/><line x1="511.0" y1="222" x2="511.0" y2="226" stroke="#0B0B14" stroke-width="1.3"/><line x1="518.0" y1="222" x2="518.0" y2="226" stroke="#0B0B14" stroke-width="1.3"/><line x1="525.0" y1="222" x2="525.0" y2="229" stroke="#0B0B14" stroke-width="1.3"/><line x1="532.0" y1="222" x2="532.0" y2="226" stroke="#0B0B14" stroke-width="1.3"/><line x1="539.0" y1="222" x2="539.0" y2="226" stroke="#0B0B14" stroke-width="1.3"/><line x1="546.0" y1="222" x2="546.0" y2="226" stroke="#0B0B14" stroke-width="1.3"/><line x1="553.0" y1="222" x2="553.0" y2="226" stroke="#0B0B14" stroke-width="1.3"/><line x1="560.0" y1="222" x2="560.0" y2="232" stroke="#0B0B14" stroke-width="2.2"/><line x1="567.0" y1="222" x2="567.0" y2="226" stroke="#0B0B14" stroke-width="1.3"/><line x1="574.0" y1="222" x2="574.0" y2="226" stroke="#0B0B14" stroke-width="1.3"/><line x1="581.0" y1="222" x2="581.0" y2="226" stroke="#0B0B14" stroke-width="1.3"/><line x1="588.0" y1="222" x2="588.0" y2="226" stroke="#0B0B14" stroke-width="1.3"/><line x1="595.0" y1="222" x2="595.0" y2="229" stroke="#0B0B14" stroke-width="1.3"/><line x1="602.0" y1="222" x2="602.0" y2="226" stroke="#0B0B14" stroke-width="1.3"/><line x1="609.0" y1="222" x2="609.0" y2="226" stroke="#0B0B14" stroke-width="1.3"/><line x1="616.0" y1="222" x2="616.0" y2="226" stroke="#0B0B14" stroke-width="1.3"/><line x1="623.0" y1="222" x2="623.0" y2="226" stroke="#0B0B14" stroke-width="1.3"/><line x1="630.0" y1="222" x2="630.0" y2="232" stroke="#0B0B14" stroke-width="2.2"/><line x1="637.0" y1="222" x2="637.0" y2="226" stroke="#0B0B14" stroke-width="1.3"/><line x1="644.0" y1="222" x2="644.0" y2="226" stroke="#0B0B14" stroke-width="1.3"/><line x1="651.0" y1="222" x2="651.0" y2="226" stroke="#0B0B14" stroke-width="1.3"/><line x1="658.0" y1="222" x2="658.0" y2="226" stroke="#0B0B14" stroke-width="1.3"/><line x1="665.0" y1="222" x2="665.0" y2="229" stroke="#0B0B14" stroke-width="1.3"/><line x1="672.0" y1="222" x2="672.0" y2="226" stroke="#0B0B14" stroke-width="1.3"/><line x1="679.0" y1="222" x2="679.0" y2="226" stroke="#0B0B14" stroke-width="1.3"/><line x1="686.0" y1="222" x2="686.0" y2="226" stroke="#0B0B14" stroke-width="1.3"/><line x1="693.0" y1="222" x2="693.0" y2="226" stroke="#0B0B14" stroke-width="1.3"/><line x1="700.0" y1="222" x2="700.0" y2="232" stroke="#0B0B14" stroke-width="2.2"/><line x1="707.0" y1="222" x2="707.0" y2="226" stroke="#0B0B14" stroke-width="1.3"/><line x1="714.0" y1="222" x2="714.0" y2="226" stroke="#0B0B14" stroke-width="1.3"/><line x1="721.0" y1="222" x2="721.0" y2="226" stroke="#0B0B14" stroke-width="1.3"/><line x1="728.0" y1="222" x2="728.0" y2="226" stroke="#0B0B14" stroke-width="1.3"/><line x1="735.0" y1="222" x2="735.0" y2="229" stroke="#0B0B14" stroke-width="1.3"/><line x1="742.0" y1="222" x2="742.0" y2="226" stroke="#0B0B14" stroke-width="1.3"/><line x1="749.0" y1="222" x2="749.0" y2="226" stroke="#0B0B14" stroke-width="1.3"/><line x1="756.0" y1="222" x2="756.0" y2="226" stroke="#0B0B14" stroke-width="1.3"/><line x1="763.0" y1="222" x2="763.0" y2="226" stroke="#0B0B14" stroke-width="1.3"/><line x1="770.0" y1="222" x2="770.0" y2="232" stroke="#0B0B14" stroke-width="2.2"/><line x1="777.0" y1="222" x2="777.0" y2="226" stroke="#0B0B14" stroke-width="1.3"/><line x1="784.0" y1="222" x2="784.0" y2="226" stroke="#0B0B14" stroke-width="1.3"/><line x1="791.0" y1="222" x2="791.0" y2="226" stroke="#0B0B14" stroke-width="1.3"/><line x1="798.0" y1="222" x2="798.0" y2="226" stroke="#0B0B14" stroke-width="1.3"/><line x1="805.0" y1="222" x2="805.0" y2="229" stroke="#0B0B14" stroke-width="1.3"/><line x1="812.0" y1="222" x2="812.0" y2="226" stroke="#0B0B14" stroke-width="1.3"/><line x1="819.0" y1="222" x2="819.0" y2="226" stroke="#0B0B14" stroke-width="1.3"/><line x1="826.0" y1="222" x2="826.0" y2="226" stroke="#0B0B14" stroke-width="1.3"/><line x1="833.0" y1="222" x2="833.0" y2="226" stroke="#0B0B14" stroke-width="1.3"/><line x1="840.0" y1="222" x2="840.0" y2="232" stroke="#0B0B14" stroke-width="2.2"/><line x1="847.0" y1="222" x2="847.0" y2="226" stroke="#0B0B14" stroke-width="1.3"/><line x1="854.0" y1="222" x2="854.0" y2="226" stroke="#0B0B14" stroke-width="1.3"/><line x1="861.0" y1="222" x2="861.0" y2="226" stroke="#0B0B14" stroke-width="1.3"/><line x1="868.0" y1="222" x2="868.0" y2="226" stroke="#0B0B14" stroke-width="1.3"/><line x1="875.0" y1="222" x2="875.0" y2="229" stroke="#0B0B14" stroke-width="1.3"/><line x1="882.0" y1="222" x2="882.0" y2="226" stroke="#0B0B14" stroke-width="1.3"/><line x1="889.0" y1="222" x2="889.0" y2="226" stroke="#0B0B14" stroke-width="1.3"/><line x1="896.0" y1="222" x2="896.0" y2="226" stroke="#0B0B14" stroke-width="1.3"/><line x1="903.0" y1="222" x2="903.0" y2="226" stroke="#0B0B14" stroke-width="1.3"/><line x1="910.0" y1="222" x2="910.0" y2="232" stroke="#0B0B14" stroke-width="2.2"/><line x1="917.0" y1="222" x2="917.0" y2="226" stroke="#0B0B14" stroke-width="1.3"/><line x1="924.0" y1="222" x2="924.0" y2="226" stroke="#0B0B14" stroke-width="1.3"/><line x1="931.0" y1="222" x2="931.0" y2="226" stroke="#0B0B14" stroke-width="1.3"/><line x1="938.0" y1="222" x2="938.0" y2="226" stroke="#0B0B14" stroke-width="1.3"/><line x1="945.0" y1="222" x2="945.0" y2="229" stroke="#0B0B14" stroke-width="1.3"/><line x1="952.0" y1="222" x2="952.0" y2="226" stroke="#0B0B14" stroke-width="1.3"/><line x1="959.0" y1="222" x2="959.0" y2="226" stroke="#0B0B14" stroke-width="1.3"/><line x1="966.0" y1="222" x2="966.0" y2="226" stroke="#0B0B14" stroke-width="1.3"/><line x1="973.0" y1="222" x2="973.0" y2="226" stroke="#0B0B14" stroke-width="1.3"/><line x1="980.0" y1="222" x2="980.0" y2="232" stroke="#0B0B14" stroke-width="2.2"/><line x1="987.0" y1="222" x2="987.0" y2="226" stroke="#0B0B14" stroke-width="1.3"/><line x1="994.0" y1="222" x2="994.0" y2="226" stroke="#0B0B14" stroke-width="1.3"/><text x="420" y="208" text-anchor="middle" font-family="JetBrains Mono" font-weight="800" font-size="24" fill="#6B5A20">4</text><text x="490" y="208" text-anchor="middle" font-family="JetBrains Mono" font-weight="800" font-size="24" fill="#6B5A20">5</text><text x="560" y="208" text-anchor="middle" font-family="JetBrains Mono" font-weight="800" font-size="24" fill="#6B5A20">6</text><text x="630" y="208" text-anchor="middle" font-family="JetBrains Mono" font-weight="800" font-size="24" fill="#6B5A20">7</text><text x="700" y="208" text-anchor="middle" font-family="JetBrains Mono" font-weight="800" font-size="24" fill="#6B5A20">8</text><text x="770" y="208" text-anchor="middle" font-family="JetBrains Mono" font-weight="800" font-size="24" fill="#6B5A20">9</text><text x="840" y="208" text-anchor="middle" font-family="JetBrains Mono" font-weight="800" font-size="24" fill="#6B5A20">10</text><text x="910" y="208" text-anchor="middle" font-family="JetBrains Mono" font-weight="800" font-size="24" fill="#6B5A20">11</text></g>
<g id="ganchoA"><path d="M 140 176 L 108 176 Q 96 176 96 188 L 96 318 L 140 318 Z" fill="url(#steelh)" stroke="#0B0B14" stroke-width="5" stroke-linejoin="round"/><rect x="136" y="176" width="34" height="44" fill="url(#steel)" stroke="#0B0B14" stroke-width="5"/><rect x="246" y="176" width="24" height="44" fill="url(#steel)" stroke="#0B0B14" stroke-width="5"/><rect x="346" y="176" width="34" height="44" fill="url(#steel)" stroke="#0B0B14" stroke-width="5"/><line x1="104" y1="182" x2="376" y2="182" stroke="#FFFFFF" stroke-width="3" opacity="0.8"/></g>
<g id="remA"><rect x="214" y="172" width="32" height="68" fill="#9AA3B1" stroke="#0B0B14" stroke-width="4"/><path d="M 190 176 C 194 158 266 158 270 176 Z" fill="url(#rivet)" stroke="#0B0B14" stroke-width="5" stroke-linejoin="round"/><path d="M 194 236 C 198 250 262 250 266 236 Z" fill="url(#rivet)" stroke="#0B0B14" stroke-width="5" stroke-linejoin="round"/><rect x="314" y="172" width="32" height="68" fill="#9AA3B1" stroke="#0B0B14" stroke-width="4"/><path d="M 290 176 C 294 158 366 158 370 176 Z" fill="url(#rivet)" stroke="#0B0B14" stroke-width="5" stroke-linejoin="round"/><path d="M 294 236 C 298 250 362 250 366 236 Z" fill="url(#rivet)" stroke="#0B0B14" stroke-width="5" stroke-linejoin="round"/></g>
<g id="huecoA"><rect x="143" y="220" width="38" height="16" fill="#C8FF2E" stroke="#0B0B14" stroke-width="3"/></g>
<g id="tira" ><path d="M 540 180 L 740 180" stroke="#0B0B14" stroke-width="24" stroke-linecap="round"/><path d="M 711.9 195.3 L 740 180 L 711.9 164.7" fill="none" stroke="#0B0B14" stroke-width="24" stroke-linecap="round" stroke-linejoin="round"/><path d="M 540 180 L 740 180" stroke="#FF5A36" stroke-width="14" stroke-linecap="round"/><path d="M 711.9 195.3 L 740 180 L 711.9 164.7" fill="none" stroke="#FF5A36" stroke-width="14" stroke-linecap="round" stroke-linejoin="round"/></g>
<g id="ltira"><rect x="560" y="96" width="230" height="58" rx="12" fill="#FF5A36" stroke="#0B0B14" stroke-width="4"/><text x="675.0" y="136" text-anchor="middle" font-family="JetBrains Mono" font-weight="800" font-size="30" fill="#0B0B14">TIRANDO</text></g>
<g id="lsale"><line x1="260" y1="154" x2="150" y2="228" stroke="#0B0B14" stroke-width="5" stroke-linecap="round"/><circle cx="150" cy="228" r="9" fill="#C8FF2E" stroke="#0B0B14" stroke-width="4"/><rect x="250" y="96" width="260" height="58" rx="12" fill="#0B0B14" stroke="#0B0B14" stroke-width="4"/><text x="380.0" y="136" text-anchor="middle" font-family="JetBrains Mono" font-weight="800" font-size="24" fill="#C8FF2E">SALE HACIA FUERA</text></g>
<g id="pared"><rect x="-10" y="380" width="150" height="330" fill="url(#plaster)" stroke="#0B0B14" stroke-width="6"/><path d="M 0 430 L 140 430" stroke="#BDB09C" stroke-width="3"/><path d="M 0 500 L 140 500" stroke="#BDB09C" stroke-width="3"/><path d="M 0 570 L 140 570" stroke="#BDB09C" stroke-width="3"/><path d="M 0 640 L 140 640" stroke="#BDB09C" stroke-width="3"/><path d="M 60 430 L 60 500" stroke="#BDB09C" stroke-width="3"/><path d="M 100 500 L 100 570" stroke="#BDB09C" stroke-width="3"/><path d="M 40 570 L 40 640" stroke="#BDB09C" stroke-width="3"/></g>
<g id="cintaB"><rect x="184" y="500" width="900" height="16" fill="url(#blade)" stroke="#0B0B14" stroke-width="5"/><line x1="154.0" y1="502" x2="154.0" y2="506" stroke="#0B0B14" stroke-width="1.3"/><line x1="161.0" y1="502" x2="161.0" y2="506" stroke="#0B0B14" stroke-width="1.3"/><line x1="168.0" y1="502" x2="168.0" y2="506" stroke="#0B0B14" stroke-width="1.3"/><line x1="175.0" y1="502" x2="175.0" y2="509" stroke="#0B0B14" stroke-width="1.3"/><line x1="182.0" y1="502" x2="182.0" y2="506" stroke="#0B0B14" stroke-width="1.3"/><line x1="189.0" y1="502" x2="189.0" y2="506" stroke="#0B0B14" stroke-width="1.3"/><line x1="196.0" y1="502" x2="196.0" y2="506" stroke="#0B0B14" stroke-width="1.3"/><line x1="203.0" y1="502" x2="203.0" y2="506" stroke="#0B0B14" stroke-width="1.3"/><line x1="210.0" y1="502" x2="210.0" y2="512" stroke="#0B0B14" stroke-width="2.2"/><line x1="217.0" y1="502" x2="217.0" y2="506" stroke="#0B0B14" stroke-width="1.3"/><line x1="224.0" y1="502" x2="224.0" y2="506" stroke="#0B0B14" stroke-width="1.3"/><line x1="231.0" y1="502" x2="231.0" y2="506" stroke="#0B0B14" stroke-width="1.3"/><line x1="238.0" y1="502" x2="238.0" y2="506" stroke="#0B0B14" stroke-width="1.3"/><line x1="245.0" y1="502" x2="245.0" y2="509" stroke="#0B0B14" stroke-width="1.3"/><line x1="252.0" y1="502" x2="252.0" y2="506" stroke="#0B0B14" stroke-width="1.3"/><line x1="259.0" y1="502" x2="259.0" y2="506" stroke="#0B0B14" stroke-width="1.3"/><line x1="266.0" y1="502" x2="266.0" y2="506" stroke="#0B0B14" stroke-width="1.3"/><line x1="273.0" y1="502" x2="273.0" y2="506" stroke="#0B0B14" stroke-width="1.3"/><line x1="280.0" y1="502" x2="280.0" y2="512" stroke="#0B0B14" stroke-width="2.2"/><line x1="287.0" y1="502" x2="287.0" y2="506" stroke="#0B0B14" stroke-width="1.3"/><line x1="294.0" y1="502" x2="294.0" y2="506" stroke="#0B0B14" stroke-width="1.3"/><line x1="301.0" y1="502" x2="301.0" y2="506" stroke="#0B0B14" stroke-width="1.3"/><line x1="308.0" y1="502" x2="308.0" y2="506" stroke="#0B0B14" stroke-width="1.3"/><line x1="315.0" y1="502" x2="315.0" y2="509" stroke="#0B0B14" stroke-width="1.3"/><line x1="322.0" y1="502" x2="322.0" y2="506" stroke="#0B0B14" stroke-width="1.3"/><line x1="329.0" y1="502" x2="329.0" y2="506" stroke="#0B0B14" stroke-width="1.3"/><line x1="336.0" y1="502" x2="336.0" y2="506" stroke="#0B0B14" stroke-width="1.3"/><line x1="343.0" y1="502" x2="343.0" y2="506" stroke="#0B0B14" stroke-width="1.3"/><line x1="350.0" y1="502" x2="350.0" y2="512" stroke="#0B0B14" stroke-width="2.2"/><line x1="357.0" y1="502" x2="357.0" y2="506" stroke="#0B0B14" stroke-width="1.3"/><line x1="364.0" y1="502" x2="364.0" y2="506" stroke="#0B0B14" stroke-width="1.3"/><line x1="371.0" y1="502" x2="371.0" y2="506" stroke="#0B0B14" stroke-width="1.3"/><line x1="378.0" y1="502" x2="378.0" y2="506" stroke="#0B0B14" stroke-width="1.3"/><line x1="385.0" y1="502" x2="385.0" y2="509" stroke="#0B0B14" stroke-width="1.3"/><line x1="392.0" y1="502" x2="392.0" y2="506" stroke="#0B0B14" stroke-width="1.3"/><line x1="399.0" y1="502" x2="399.0" y2="506" stroke="#0B0B14" stroke-width="1.3"/><line x1="406.0" y1="502" x2="406.0" y2="506" stroke="#0B0B14" stroke-width="1.3"/><line x1="413.0" y1="502" x2="413.0" y2="506" stroke="#0B0B14" stroke-width="1.3"/><line x1="420.0" y1="502" x2="420.0" y2="512" stroke="#0B0B14" stroke-width="2.2"/><line x1="427.0" y1="502" x2="427.0" y2="506" stroke="#0B0B14" stroke-width="1.3"/><line x1="434.0" y1="502" x2="434.0" y2="506" stroke="#0B0B14" stroke-width="1.3"/><line x1="441.0" y1="502" x2="441.0" y2="506" stroke="#0B0B14" stroke-width="1.3"/><line x1="448.0" y1="502" x2="448.0" y2="506" stroke="#0B0B14" stroke-width="1.3"/><line x1="455.0" y1="502" x2="455.0" y2="509" stroke="#0B0B14" stroke-width="1.3"/><line x1="462.0" y1="502" x2="462.0" y2="506" stroke="#0B0B14" stroke-width="1.3"/><line x1="469.0" y1="502" x2="469.0" y2="506" stroke="#0B0B14" stroke-width="1.3"/><line x1="476.0" y1="502" x2="476.0" y2="506" stroke="#0B0B14" stroke-width="1.3"/><line x1="483.0" y1="502" x2="483.0" y2="506" stroke="#0B0B14" stroke-width="1.3"/><line x1="490.0" y1="502" x2="490.0" y2="512" stroke="#0B0B14" stroke-width="2.2"/><line x1="497.0" y1="502" x2="497.0" y2="506" stroke="#0B0B14" stroke-width="1.3"/><line x1="504.0" y1="502" x2="504.0" y2="506" stroke="#0B0B14" stroke-width="1.3"/><line x1="511.0" y1="502" x2="511.0" y2="506" stroke="#0B0B14" stroke-width="1.3"/><line x1="518.0" y1="502" x2="518.0" y2="506" stroke="#0B0B14" stroke-width="1.3"/><line x1="525.0" y1="502" x2="525.0" y2="509" stroke="#0B0B14" stroke-width="1.3"/><line x1="532.0" y1="502" x2="532.0" y2="506" stroke="#0B0B14" stroke-width="1.3"/><line x1="539.0" y1="502" x2="539.0" y2="506" stroke="#0B0B14" stroke-width="1.3"/><line x1="546.0" y1="502" x2="546.0" y2="506" stroke="#0B0B14" stroke-width="1.3"/><line x1="553.0" y1="502" x2="553.0" y2="506" stroke="#0B0B14" stroke-width="1.3"/><line x1="560.0" y1="502" x2="560.0" y2="512" stroke="#0B0B14" stroke-width="2.2"/><line x1="567.0" y1="502" x2="567.0" y2="506" stroke="#0B0B14" stroke-width="1.3"/><line x1="574.0" y1="502" x2="574.0" y2="506" stroke="#0B0B14" stroke-width="1.3"/><line x1="581.0" y1="502" x2="581.0" y2="506" stroke="#0B0B14" stroke-width="1.3"/><line x1="588.0" y1="502" x2="588.0" y2="506" stroke="#0B0B14" stroke-width="1.3"/><line x1="595.0" y1="502" x2="595.0" y2="509" stroke="#0B0B14" stroke-width="1.3"/><line x1="602.0" y1="502" x2="602.0" y2="506" stroke="#0B0B14" stroke-width="1.3"/><line x1="609.0" y1="502" x2="609.0" y2="506" stroke="#0B0B14" stroke-width="1.3"/><line x1="616.0" y1="502" x2="616.0" y2="506" stroke="#0B0B14" stroke-width="1.3"/><line x1="623.0" y1="502" x2="623.0" y2="506" stroke="#0B0B14" stroke-width="1.3"/><line x1="630.0" y1="502" x2="630.0" y2="512" stroke="#0B0B14" stroke-width="2.2"/><line x1="637.0" y1="502" x2="637.0" y2="506" stroke="#0B0B14" stroke-width="1.3"/><line x1="644.0" y1="502" x2="644.0" y2="506" stroke="#0B0B14" stroke-width="1.3"/><line x1="651.0" y1="502" x2="651.0" y2="506" stroke="#0B0B14" stroke-width="1.3"/><line x1="658.0" y1="502" x2="658.0" y2="506" stroke="#0B0B14" stroke-width="1.3"/><line x1="665.0" y1="502" x2="665.0" y2="509" stroke="#0B0B14" stroke-width="1.3"/><line x1="672.0" y1="502" x2="672.0" y2="506" stroke="#0B0B14" stroke-width="1.3"/><line x1="679.0" y1="502" x2="679.0" y2="506" stroke="#0B0B14" stroke-width="1.3"/><line x1="686.0" y1="502" x2="686.0" y2="506" stroke="#0B0B14" stroke-width="1.3"/><line x1="693.0" y1="502" x2="693.0" y2="506" stroke="#0B0B14" stroke-width="1.3"/><line x1="700.0" y1="502" x2="700.0" y2="512" stroke="#0B0B14" stroke-width="2.2"/><line x1="707.0" y1="502" x2="707.0" y2="506" stroke="#0B0B14" stroke-width="1.3"/><line x1="714.0" y1="502" x2="714.0" y2="506" stroke="#0B0B14" stroke-width="1.3"/><line x1="721.0" y1="502" x2="721.0" y2="506" stroke="#0B0B14" stroke-width="1.3"/><line x1="728.0" y1="502" x2="728.0" y2="506" stroke="#0B0B14" stroke-width="1.3"/><line x1="735.0" y1="502" x2="735.0" y2="509" stroke="#0B0B14" stroke-width="1.3"/><line x1="742.0" y1="502" x2="742.0" y2="506" stroke="#0B0B14" stroke-width="1.3"/><line x1="749.0" y1="502" x2="749.0" y2="506" stroke="#0B0B14" stroke-width="1.3"/><line x1="756.0" y1="502" x2="756.0" y2="506" stroke="#0B0B14" stroke-width="1.3"/><line x1="763.0" y1="502" x2="763.0" y2="506" stroke="#0B0B14" stroke-width="1.3"/><line x1="770.0" y1="502" x2="770.0" y2="512" stroke="#0B0B14" stroke-width="2.2"/><line x1="777.0" y1="502" x2="777.0" y2="506" stroke="#0B0B14" stroke-width="1.3"/><line x1="784.0" y1="502" x2="784.0" y2="506" stroke="#0B0B14" stroke-width="1.3"/><line x1="791.0" y1="502" x2="791.0" y2="506" stroke="#0B0B14" stroke-width="1.3"/><line x1="798.0" y1="502" x2="798.0" y2="506" stroke="#0B0B14" stroke-width="1.3"/><line x1="805.0" y1="502" x2="805.0" y2="509" stroke="#0B0B14" stroke-width="1.3"/><line x1="812.0" y1="502" x2="812.0" y2="506" stroke="#0B0B14" stroke-width="1.3"/><line x1="819.0" y1="502" x2="819.0" y2="506" stroke="#0B0B14" stroke-width="1.3"/><line x1="826.0" y1="502" x2="826.0" y2="506" stroke="#0B0B14" stroke-width="1.3"/><line x1="833.0" y1="502" x2="833.0" y2="506" stroke="#0B0B14" stroke-width="1.3"/><line x1="840.0" y1="502" x2="840.0" y2="512" stroke="#0B0B14" stroke-width="2.2"/><line x1="847.0" y1="502" x2="847.0" y2="506" stroke="#0B0B14" stroke-width="1.3"/><line x1="854.0" y1="502" x2="854.0" y2="506" stroke="#0B0B14" stroke-width="1.3"/><line x1="861.0" y1="502" x2="861.0" y2="506" stroke="#0B0B14" stroke-width="1.3"/><line x1="868.0" y1="502" x2="868.0" y2="506" stroke="#0B0B14" stroke-width="1.3"/><line x1="875.0" y1="502" x2="875.0" y2="509" stroke="#0B0B14" stroke-width="1.3"/><line x1="882.0" y1="502" x2="882.0" y2="506" stroke="#0B0B14" stroke-width="1.3"/><line x1="889.0" y1="502" x2="889.0" y2="506" stroke="#0B0B14" stroke-width="1.3"/><line x1="896.0" y1="502" x2="896.0" y2="506" stroke="#0B0B14" stroke-width="1.3"/><line x1="903.0" y1="502" x2="903.0" y2="506" stroke="#0B0B14" stroke-width="1.3"/><line x1="910.0" y1="502" x2="910.0" y2="512" stroke="#0B0B14" stroke-width="2.2"/><line x1="917.0" y1="502" x2="917.0" y2="506" stroke="#0B0B14" stroke-width="1.3"/><line x1="924.0" y1="502" x2="924.0" y2="506" stroke="#0B0B14" stroke-width="1.3"/><line x1="931.0" y1="502" x2="931.0" y2="506" stroke="#0B0B14" stroke-width="1.3"/><line x1="938.0" y1="502" x2="938.0" y2="506" stroke="#0B0B14" stroke-width="1.3"/><line x1="945.0" y1="502" x2="945.0" y2="509" stroke="#0B0B14" stroke-width="1.3"/><line x1="952.0" y1="502" x2="952.0" y2="506" stroke="#0B0B14" stroke-width="1.3"/><line x1="959.0" y1="502" x2="959.0" y2="506" stroke="#0B0B14" stroke-width="1.3"/><line x1="966.0" y1="502" x2="966.0" y2="506" stroke="#0B0B14" stroke-width="1.3"/><line x1="973.0" y1="502" x2="973.0" y2="506" stroke="#0B0B14" stroke-width="1.3"/><line x1="980.0" y1="502" x2="980.0" y2="512" stroke="#0B0B14" stroke-width="2.2"/><line x1="987.0" y1="502" x2="987.0" y2="506" stroke="#0B0B14" stroke-width="1.3"/><line x1="994.0" y1="502" x2="994.0" y2="506" stroke="#0B0B14" stroke-width="1.3"/><text x="420" y="488" text-anchor="middle" font-family="JetBrains Mono" font-weight="800" font-size="24" fill="#6B5A20">4</text><text x="490" y="488" text-anchor="middle" font-family="JetBrains Mono" font-weight="800" font-size="24" fill="#6B5A20">5</text><text x="560" y="488" text-anchor="middle" font-family="JetBrains Mono" font-weight="800" font-size="24" fill="#6B5A20">6</text><text x="630" y="488" text-anchor="middle" font-family="JetBrains Mono" font-weight="800" font-size="24" fill="#6B5A20">7</text><text x="700" y="488" text-anchor="middle" font-family="JetBrains Mono" font-weight="800" font-size="24" fill="#6B5A20">8</text><text x="770" y="488" text-anchor="middle" font-family="JetBrains Mono" font-weight="800" font-size="24" fill="#6B5A20">9</text><text x="840" y="488" text-anchor="middle" font-family="JetBrains Mono" font-weight="800" font-size="24" fill="#6B5A20">10</text><text x="910" y="488" text-anchor="middle" font-family="JetBrains Mono" font-weight="800" font-size="24" fill="#6B5A20">11</text></g>
<g id="ganchoB"><path d="M 184 456 L 152 456 Q 140 456 140 468 L 140 598 L 184 598 Z" fill="url(#steelh)" stroke="#0B0B14" stroke-width="5" stroke-linejoin="round"/><rect x="180" y="456" width="34" height="44" fill="url(#steel)" stroke="#0B0B14" stroke-width="5"/><rect x="290" y="456" width="24" height="44" fill="url(#steel)" stroke="#0B0B14" stroke-width="5"/><rect x="390" y="456" width="34" height="44" fill="url(#steel)" stroke="#0B0B14" stroke-width="5"/><line x1="148" y1="462" x2="420" y2="462" stroke="#FFFFFF" stroke-width="3" opacity="0.8"/></g>
<g id="remB"><rect x="214" y="452" width="32" height="68" fill="#9AA3B1" stroke="#0B0B14" stroke-width="4"/><path d="M 190 456 C 194 438 266 438 270 456 Z" fill="url(#rivet)" stroke="#0B0B14" stroke-width="5" stroke-linejoin="round"/><path d="M 194 516 C 198 530 262 530 266 516 Z" fill="url(#rivet)" stroke="#0B0B14" stroke-width="5" stroke-linejoin="round"/><rect x="314" y="452" width="32" height="68" fill="#9AA3B1" stroke="#0B0B14" stroke-width="4"/><path d="M 290 456 C 294 438 366 438 370 456 Z" fill="url(#rivet)" stroke="#0B0B14" stroke-width="5" stroke-linejoin="round"/><path d="M 294 516 C 298 530 362 530 366 516 Z" fill="url(#rivet)" stroke="#0B0B14" stroke-width="5" stroke-linejoin="round"/></g>
<g id="empuja" ><path d="M 760 430 L 560 430" stroke="#0B0B14" stroke-width="24" stroke-linecap="round"/><path d="M 588.1 414.7 L 560 430 L 588.1 445.3" fill="none" stroke="#0B0B14" stroke-width="24" stroke-linecap="round" stroke-linejoin="round"/><path d="M 760 430 L 560 430" stroke="#FF5A36" stroke-width="14" stroke-linecap="round"/><path d="M 588.1 414.7 L 560 430 L 588.1 445.3" fill="none" stroke="#FF5A36" stroke-width="14" stroke-linecap="round" stroke-linejoin="round"/></g>
<g id="lempuja"><rect x="550" y="580" width="270" height="58" rx="12" fill="#FF5A36" stroke="#0B0B14" stroke-width="4"/><text x="685.0" y="620" text-anchor="middle" font-family="JetBrains Mono" font-weight="800" font-size="30" fill="#0B0B14">EMPUJANDO</text></g>
<g id="lentra"><line x1="200" y1="580" x2="164" y2="566" stroke="#0B0B14" stroke-width="5" stroke-linecap="round"/><circle cx="164" cy="566" r="9" fill="#C8FF2E" stroke="#0B0B14" stroke-width="4"/><rect x="250" y="580" width="270" height="58" rx="12" fill="#0B0B14" stroke="#0B0B14" stroke-width="4"/><text x="385.0" y="620" text-anchor="middle" font-family="JetBrains Mono" font-weight="800" font-size="24" fill="#C8FF2E">SE METE DENTRO</text></g>
<g id="cero"><rect x="137" y="116" width="6" height="16" rx="3" fill="#0B0B14"/><rect x="137" y="144" width="6" height="16" rx="3" fill="#0B0B14"/><rect x="137" y="172" width="6" height="16" rx="3" fill="#0B0B14"/><rect x="137" y="200" width="6" height="16" rx="3" fill="#0B0B14"/><rect x="137" y="228" width="6" height="16" rx="3" fill="#0B0B14"/><rect x="137" y="256" width="6" height="16" rx="3" fill="#0B0B14"/><rect x="137" y="284" width="6" height="16" rx="3" fill="#0B0B14"/><rect x="137" y="312" width="6" height="16" rx="3" fill="#0B0B14"/><rect x="137" y="340" width="6" height="16" rx="3" fill="#0B0B14"/><rect x="137" y="368" width="6" height="16" rx="3" fill="#0B0B14"/><rect x="137" y="396" width="6" height="16" rx="3" fill="#0B0B14"/><rect x="137" y="424" width="6" height="16" rx="3" fill="#0B0B14"/><rect x="137" y="452" width="6" height="16" rx="3" fill="#0B0B14"/><rect x="137" y="480" width="6" height="16" rx="3" fill="#0B0B14"/><rect x="137" y="508" width="6" height="16" rx="3" fill="#0B0B14"/><rect x="137" y="536" width="6" height="16" rx="3" fill="#0B0B14"/><rect x="137" y="564" width="6" height="16" rx="3" fill="#0B0B14"/><rect x="137" y="592" width="6" height="16" rx="3" fill="#0B0B14"/><rect x="137" y="620" width="6" height="16" rx="3" fill="#0B0B14"/><circle cx="140" cy="104" r="0" fill="none"/></g>
<g id="lcero"><rect x="84" y="644" width="112" height="0" fill="none"/><circle cx="200" cy="380" r="44" fill="#C8FF2E" stroke="#0B0B14" stroke-width="5"/><text x="200" y="398" text-anchor="middle" font-family="JetBrains Mono" font-weight="800" font-size="50" fill="#0B0B14">0</text><path d="M 156 380 L 144 380" stroke="#0B0B14" stroke-width="5"/></g>
</svg>