<svg xmlns="http://www.w3.org/2000/svg" viewBox="0 0 1000 700">
<defs>
<radialGradient id="bg" cx="0.5" cy="0.5" r="0.75"><stop offset="0" stop-color="#3F86A8"/><stop offset="0.6" stop-color="#24597A"/><stop offset="1" stop-color="#122F47"/></radialGradient>
<radialGradient id="disk" cx="0.5" cy="0.5" r="0.5"><stop offset="0" stop-color="#FFFFFF" stop-opacity="0.1"/><stop offset="1" stop-color="#FFFFFF" stop-opacity="0.02"/></radialGradient>
<radialGradient id="hub" cx="0.4" cy="0.35" r="0.7"><stop offset="0" stop-color="#FFF8E6"/><stop offset="1" stop-color="#D9CBA0"/></radialGradient>
</defs>
<rect width="1000" height="700" fill="url(#bg)"/>
<path d="M 20 0 L 20 700 M 60 0 L 60 700 M 100 0 L 100 700 M 140 0 L 140 700 M 180 0 L 180 700 M 220 0 L 220 700 M 260 0 L 260 700 M 300 0 L 300 700 M 340 0 L 340 700 M 380 0 L 380 700 M 420 0 L 420 700 M 460 0 L 460 700 M 500 0 L 500 700 M 540 0 L 540 700 M 580 0 L 580 700 M 620 0 L 620 700 M 660 0 L 660 700 M 700 0 L 700 700 M 740 0 L 740 700 M 780 0 L 780 700 M 820 0 L 820 700 M 860 0 L 860 700 M 900 0 L 900 700 M 940 0 L 940 700 M 980 0 L 980 700 M 0 38 L 1000 38 M 0 78 L 1000 78 M 0 118 L 1000 118 M 0 158 L 1000 158 M 0 198 L 1000 198 M 0 238 L 1000 238 M 0 278 L 1000 278 M 0 318 L 1000 318 M 0 358 L 1000 358 M 0 398 L 1000 398 M 0 438 L 1000 438 M 0 478 L 1000 478 M 0 518 L 1000 518 M 0 558 L 1000 558 M 0 598 L 1000 598 M 0 638 L 1000 638 M 0 678 L 1000 678" stroke="#FFFFFF" stroke-width="1" opacity="0.08"/>
<circle cx="500" cy="358" r="288" fill="url(#disk)"/>
<g id="disco"><circle cx="500" cy="358" r="288" fill="none" stroke="#FFFFFF" stroke-width="3" stroke-dasharray="12 10" opacity="0.6"/></g>
<g id="airefill"><circle cx="500" cy="358" r="286" fill="#C8FF2E" fill-opacity="0.32"/></g>
<g id="hueco"><path d="M 734.3 227.9 L 735.4 229.9 L 736.4 231.8 L 737.5 233.8 L 738.5 235.8 L 739.5 237.8 L 740.5 239.8 L 741.5 241.8 L 742.4 243.8 L 743.4 245.8 L 744.3 247.8 L 563.8 329.2 L 563.6 328.7 L 563.3 328.2 L 563.1 327.6 L 562.8 327.1 L 562.6 326.6 L 562.3 326.1 L 562 325.6 L 561.8 325 L 561.5 324.5 L 561.2 324 Z" fill="#C8FF2E" fill-opacity="0.75" stroke="#0B0B14" stroke-width="3" stroke-linejoin="round"/></g>
<g id="pelos"><path d="M 520 357.8 C 533.7 357.6, 574.9 357.4, 602.4 356.7 C 629.8 356, 656.9 355.3, 684.7 353.7 C 712.5 352, 755.3 348, 769.4 346.8 M 520 359 C 534.7 359.7, 578.7 361.9, 608 363.2 C 637.4 364.6, 666.3 365.9, 696.1 367.1 C 725.9 368.2, 771.8 369.7, 786.9 370.3 M 519.9 360.4 C 533.4 362, 573.9 367.1, 601 370 C 628.1 372.8, 654.7 375.7, 682.3 377.5 C 709.9 379.4, 752.5 380.6, 766.5 381.2 M 519.7 361.5 C 532.9 363.8, 572.5 371, 598.9 375.3 C 625.3 379.7, 651.4 384, 678.4 387.7 C 705.3 391.3, 747 395.7, 760.7 397.4 M 519.4 362.7 C 533.3 366, 574.9 376.1, 602.8 382.4 C 630.6 388.7, 658 394.9, 686.5 400.5 C 714.9 406, 758.9 413.2, 773.4 415.7 M 519 364.1 C 531.8 368.2, 570 380.5, 595.5 388.7 C 621 396.8, 646.1 404.9, 671.9 413.2 C 697.8 421.4, 737.6 434.1, 750.8 438.3 M 518.5 365.6 C 531.1 370.9, 569.1 386.4, 594.1 397.4 C 619.2 408.3, 643.9 419, 668.9 431.2 C 693.9 443.4, 731.4 463.8, 744 470.3 M 518 366.7 C 530.2 372.6, 566.6 390.2, 590.9 402 C 615.2 413.8, 639.1 425.4, 663.7 437.4 C 688.3 449.4, 726.1 468, 738.6 474.1 M 517.4 367.8 C 530 374.8, 567.7 396, 592.8 410.1 C 618 424.1, 642.8 437.9, 668.4 451.9 C 694.1 466, 733.7 487.3, 746.7 494.3 M 517 368.6 C 529.5 376.3, 567 399.6, 591.9 415.1 C 616.9 430.6, 641.6 445.8, 667 461.5 C 692.4 477.2, 731.5 501.2, 744.4 509.1 M 516.2 369.8 C 527.2 377.8, 560.3 402, 582.5 418 C 604.6 434, 626.4 449.8, 649 465.8 C 671.6 481.9, 706.6 506.4, 718.1 514.5 M 515.5 370.6 C 525.9 379.1, 557 404.4, 577.8 421.2 C 598.6 438.1, 619.1 454.6, 640.3 471.6 C 661.5 488.5, 694.3 514.3, 705.2 522.9 M 514.7 371.5 C 524.8 380.8, 555.1 408.4, 574.9 427.2 C 594.8 446, 614.4 464.5, 633.9 484.3 C 653.4 504, 682.4 535.4, 692.1 545.7 M 513.9 372.4 C 524 382.8, 554.1 414.1, 574.3 434.9 C 594.4 455.7, 614.2 476.3, 634.6 497.4 C 655.1 518.6, 686.5 551.1, 696.8 561.8 M 512.9 373.3 C 521.6 383.5, 547.4 414.2, 564.8 434.4 C 582.3 454.7, 599.4 474.7, 617.6 494.9 C 635.7 515.1, 664.3 545.5, 673.6 555.6 M 511.5 374.4 C 519.4 385.5, 542.9 419.1, 558.9 441.2 C 574.9 463.4, 590.6 485.2, 607.4 507.3 C 624.2 529.4, 650.9 562.7, 659.6 573.8 M 510.5 375 C 517.7 386.6, 539.3 421.4, 553.3 444.8 C 567.3 468.2, 581.2 491.3, 594.6 515.5 C 608.1 539.7, 627.6 577.7, 634.2 590.1 M 509.4 375.6 C 515.9 387.5, 534.9 423.3, 548.1 447 C 561.3 470.6, 574.3 493.8, 588.6 517.3 C 602.9 540.7, 626.3 576, 633.9 587.7 M 508.3 376.2 C 514.4 389.5, 532.7 429.4, 544.8 456 C 556.9 482.6, 568.8 508.8, 580.9 535.9 C 593.1 563, 611.5 604.7, 617.6 618.5 M 507.6 376.5 C 513.1 390.1, 529.8 431, 541 458.2 C 552.2 485.4, 563.3 512.1, 574.9 539.6 C 586.5 567.2, 604.8 609.3, 610.7 623.2 M 506.3 377 C 510.9 390.8, 524.7 432.3, 533.8 460.1 C 542.8 487.8, 551.7 515.1, 560.5 543.4 C 569.3 571.6, 582.2 615.3, 586.6 629.7 M 504.9 377.4 C 508.4 391.4, 519 433.3, 525.8 461.4 C 532.6 489.4, 539.3 517.1, 545.6 545.7 C 551.9 574.3, 560.6 618.5, 563.6 633.1 M 503.6 377.7 C 506.2 391.5, 513.6 432.8, 519 460.3 C 524.5 487.8, 529.9 514.9, 536.4 542.6 C 542.9 570.3, 554.5 612.6, 558.1 626.6 M 502.3 377.9 C 503.7 391.4, 508.5 432, 511.2 459.1 C 513.8 486.2, 516.5 512.9, 518.3 540.5 C 520.2 568.1, 521.6 610.7, 522.3 624.7 M 501 378 C 501.6 392.5, 504 436.2, 504.9 465.4 C 505.9 494.5, 506.8 523.2, 506.8 552.8 C 506.7 582.5, 504.8 628, 504.4 643.1 M 500.3 378 C 500.5 391.8, 501.1 433.2, 501.4 460.8 C 501.6 488.3, 501.8 515.5, 501.7 543.5 C 501.5 571.5, 500.7 614.6, 500.5 628.8 M 498.7 378 C 497.7 392.4, 494.9 435.6, 492.8 464.4 C 490.7 493.2, 488.7 521.6, 486.2 550.8 C 483.7 580, 479.4 624.9, 478 639.7 M 497.4 377.8 C 495.5 392.2, 489.8 435.2, 486 463.8 C 482.1 492.5, 478.4 520.7, 474.4 549.8 C 470.4 578.9, 464.2 623.6, 462.2 638.4 M 496.2 377.6 C 493.5 391.6, 485.6 433.6, 480.1 461.5 C 474.5 489.5, 469.1 517, 463 545.2 C 456.9 573.5, 446.8 616.8, 443.6 631.1 M 495.2 377.4 C 491.9 390.7, 482.3 430.7, 475.3 457.2 C 468.4 483.7, 461.6 509.8, 453.5 536.4 C 445.5 563.1, 431.6 603.6, 427.2 617 M 493.8 377 C 489.4 391, 475.7 432.8, 467.1 460.8 C 458.5 488.9, 450.1 516.5, 442.4 545.3 C 434.7 574, 424.6 618.7, 421 633.4 M 492.9 376.7 C 487.6 390.4, 472.2 431.6, 461.3 458.9 C 450.4 486.2, 439.6 513, 427.5 540.3 C 415.3 567.5, 394.9 608.6, 388.4 622.3 M 491.2 376 C 485 388.8, 466.1 427.2, 454 453 C 441.9 478.8, 430 504.3, 418.7 530.9 C 407.5 557.6, 391.9 599.4, 386.5 613.1 M 490.1 375.4 C 483 388.1, 461.3 426.1, 447.3 451.7 C 433.3 477.3, 419.5 502.4, 406.1 528.8 C 392.7 555.3, 373.4 596.6, 366.9 610.1 M 489.3 374.9 C 481.3 387.2, 457.7 424.4, 441.8 449.1 C 425.9 473.7, 410.2 498, 393.7 522.8 C 377.2 547.6, 351.2 585.3, 342.7 597.8 M 488.4 374.3 C 480.6 385.2, 457.1 417.8, 441.8 439.8 C 426.4 461.9, 411.3 483.5, 396.4 506.3 C 381.5 529.1, 359.6 564.8, 352.2 576.5 M 487 373.2 C 477.8 384, 450.2 416.5, 431.7 438.1 C 413.2 459.7, 395 480.9, 376.1 502.7 C 357.2 524.6, 327.9 557.9, 318.3 568.9 M 486.3 372.5 C 476.4 382.9, 446.9 414.4, 426.8 435 C 406.8 455.5, 387 475.8, 365.9 495.9 C 344.7 516.1, 311.1 545.8, 300.1 555.8 M 485.2 371.5 C 475.2 380.7, 444.9 408.2, 425.2 427 C 405.4 445.8, 385.9 464.3, 366.7 484.2 C 347.4 504.1, 319.2 536, 309.7 546.4 M 484.4 370.6 C 473.1 379.8, 438.9 407.2, 416.5 426 C 394.1 444.7, 372 463.2, 350.1 483.2 C 328.1 503.2, 295.7 535.5, 284.8 545.9 M 483.8 369.8 C 472.1 378.3, 436.7 403.9, 413.4 421.3 C 390.1 438.8, 367.2 455.9, 344.1 474.4 C 321 492.9, 286.5 522.5, 275 532.2 M 483.1 368.8 C 470.9 376.5, 434.5 399.9, 409.9 415.2 C 385.4 430.5, 361.2 445.6, 336 460.5 C 310.7 475.5, 271.2 497.4, 258.3 504.8 M 482.4 367.6 C 469.7 374.5, 431.3 395.4, 405.8 409.3 C 380.2 423.2, 355 436.9, 329 450.9 C 303 464.8, 262.9 486.1, 249.6 493.2 M 481.9 366.6 C 468.8 372.8, 429.3 391.4, 403.1 404.2 C 377 416.9, 351.2 429.5, 325 443.1 C 298.8 456.7, 259 478.8, 245.8 485.9 M 481.5 365.6 C 468.3 371, 428.7 387.2, 402.4 398.2 C 376.1 409.2, 350.1 420, 323.6 431.5 C 297 443.1, 256.4 461.4, 243 467.4 M 481 364.3 C 467.2 368.9, 425.7 382.7, 398 391.6 C 370.2 400.5, 342.9 409.3, 314.5 417.7 C 286.2 426.1, 242.2 437.9, 227.8 442 M 480.6 362.8 C 467 366.1, 426.3 376.1, 399.1 382.7 C 371.9 389.3, 345.2 395.9, 317.6 402.5 C 290 409.2, 247.5 419.3, 233.5 422.7 M 480.4 362.1 C 467.3 364.8, 428.1 372.8, 402 378.7 C 375.9 384.7, 350.3 390.5, 324 397.5 C 297.8 404.5, 257.9 417.1, 244.7 421 M 480.2 360.8 C 466.2 362.8, 424.2 368.8, 396.1 372.8 C 368.1 376.8, 340.5 380.8, 312.1 384.9 C 283.6 389, 239.9 395.3, 225.5 397.4 M 480 359.2 C 465.5 360, 422 362.6, 393 364.2 C 364 365.7, 335.4 367.3, 305.9 368.6 C 276.4 369.9, 231.1 371.5, 216.1 372.1 M 480 358.2 C 466.5 358.3, 425.9 358.5, 398.9 358.9 C 371.9 359.3, 345.2 359.6, 317.8 360.3 C 290.4 361, 248.2 362.5, 234.3 363 M 480 356.7 C 465.7 355.8, 422.6 353, 393.8 351.2 C 365.1 349.3, 336.8 347.5, 307.7 345.5 C 278.5 343.6, 233.7 340.5, 218.9 339.4 M 480.2 355.5 C 466.9 353.8, 427.2 348.9, 400.8 345.3 C 374.4 341.6, 348.3 338, 321.6 333.5 C 294.9 329, 254 320.9, 240.5 318.3 M 480.3 354.4 C 466.1 351.8, 423.4 343.7, 394.8 338.9 C 366.3 334.1, 338.1 329.4, 309 325.5 C 279.8 321.6, 234.8 317.4, 219.9 315.7 M 480.7 352.7 C 467.1 349, 426.4 337.7, 399.2 330.4 C 372 323, 345.3 315.7, 317.6 308.6 C 289.9 301.4, 247.2 290.8, 233.2 287.2 M 480.9 352 C 467.1 347.7, 425.9 334.7, 398.3 326.3 C 370.7 317.9, 343.5 309.6, 315.4 301.5 C 287.2 293.4, 243.7 281.7, 229.4 277.7 M 481.4 350.7 C 468.7 345.7, 430.6 330.7, 405.1 320.8 C 379.7 310.8, 354.7 301, 328.9 290.9 C 303 280.9, 263.3 265.4, 250.2 260.3 M 481.8 349.7 C 468.4 343.6, 428.5 325.2, 401.6 313.4 C 374.7 301.6, 348.3 289.9, 320.6 278.9 C 292.9 267.9, 249.7 252.4, 235.5 247.1 M 482.5 348.3 C 470.7 341.7, 435.4 322.1, 411.9 308.9 C 388.3 295.7, 365.2 282.7, 341.5 269 C 317.7 255.3, 281.5 233.9, 269.5 226.9 M 483 347.4 C 470.7 339.7, 433.6 316.6, 408.9 301.2 C 384.2 285.8, 359.9 270.6, 334.8 254.9 C 309.8 239.2, 271.3 215.1, 258.6 207.1 M 483.8 346.3 C 472.5 338.2, 438.5 313.9, 416.1 297.3 C 393.7 280.7, 371.6 264.4, 349.4 246.9 C 327.2 229.4, 293.9 201.3, 282.8 192.2 M 484.7 345.1 C 473.6 335.9, 440.7 307.9, 418.3 289.7 C 396 271.6, 373.9 253.6, 350.6 236 C 327.2 218.4, 290.2 192.6, 278.1 184 M 485.3 344.4 C 474.6 334.5, 442.7 304.8, 421.1 285.2 C 399.5 265.7, 378.3 246.4, 355.9 227.2 C 333.5 207.9, 298.2 179.2, 286.6 169.6 M 486.3 343.4 C 477 333.3, 448.7 303.3, 430.2 282.9 C 411.7 262.6, 393.5 242.6, 375.3 221.4 C 357.1 200.3, 330 166.9, 321 156 M 487.5 342.4 C 478.8 331.5, 452.6 299.1, 435.4 277.2 C 418.2 255.3, 401.3 233.7, 384.4 211 C 367.5 188.4, 342.5 152.8, 334.1 141.2 M 488 342 C 479.9 331.1, 455.5 298.6, 439.5 276.7 C 423.6 254.7, 407.9 233.1, 392.5 210.3 C 377 187.5, 354.4 151.7, 346.8 139.9 M 489 341.3 C 481.5 330, 459.3 295.9, 444.1 273.4 C 428.9 250.9, 413.9 228.7, 397.8 206.4 C 381.7 184, 355.8 150.4, 347.4 139.2 M 490.2 340.6 C 483.3 328.4, 462.8 291.7, 448.9 267.3 C 435 243, 421.3 219, 406.9 194.5 C 392.4 170, 369.7 132.6, 362.2 120.2 M 491.7 339.8 C 485.8 327, 468.1 288.7, 456.7 262.9 C 445.4 237.1, 434.2 211.7, 423.6 185.2 C 412.9 158.6, 398.1 117.2, 393 103.6 M 492.7 339.4 C 487.4 326.1, 471.9 286, 461 259.5 C 450 233.1, 439.3 207, 427.1 180.6 C 414.8 154.2, 394.2 114.5, 387.6 101.2 M 493.6 339 C 489.3 326, 476.1 286.9, 467.4 260.7 C 458.7 234.6, 450.2 208.9, 441.4 182.4 C 432.7 155.9, 419.5 115, 415.1 101.5 M 494.9 338.7 C 491.4 325.1, 480.6 284.5, 473.7 257.4 C 466.8 230.2, 460 203.5, 453.5 175.8 C 447 148.1, 437.9 105.4, 434.7 91.3 M 496 338.4 C 493.2 324.7, 485 283.5, 479 256.1 C 473 228.8, 467.1 201.8, 460 174.3 C 452.9 146.8, 440.3 104.8, 436.4 90.9 M 497.5 338.2 C 495.8 324.6, 490.5 283.9, 487.4 256.8 C 484.3 229.6, 481.2 202.9, 478.9 175.2 C 476.6 147.6, 474.3 104.9, 473.4 90.8 M 498.4 338.1 C 497.4 324.3, 494 282.9, 492.1 255.4 C 490.2 227.8, 488.4 200.6, 487.1 172.6 C 485.8 144.5, 484.8 101.4, 484.4 87.1 M 500.1 338 C 500.3 323.3, 500.5 279.2, 500.9 249.8 C 501.2 220.4, 501.6 191.4, 502.2 161.6 C 502.9 131.8, 504.5 85.9, 504.9 70.8 M 501.5 338.1 C 502.6 323.8, 505.9 281.1, 508.2 252.7 C 510.5 224.3, 512.8 196.2, 515.4 167.4 C 518 138.5, 522.5 94.2, 523.9 79.6 M 502.8 338.2 C 504.8 324.6, 510.5 283.7, 514.8 256.5 C 519.2 229.3, 523.4 202.5, 528.8 175.1 C 534.1 147.7, 543.9 105.8, 547 91.9 M 503.9 338.4 C 506.7 324.7, 514.8 283.5, 520.7 256.2 C 526.6 228.9, 532.4 202, 539.3 174.5 C 546.3 146.9, 558.6 105, 562.4 91.1 M 505.3 338.7 C 509 325.5, 519.8 285.6, 527.4 259.2 C 535.1 232.8, 542.6 206.8, 551.2 180.2 C 559.8 153.6, 574.4 113.2, 579 99.8 M 505.9 338.9 C 510.1 325.1, 522.7 283.7, 531.3 256.2 C 539.9 228.6, 548.3 201.5, 557.3 173.6 C 566.2 145.7, 580.5 103, 585.1 88.9 M 507.2 339.4 C 512.2 326.3, 527.4 287.4, 537.1 261.2 C 546.8 235.1, 556.4 209.3, 565.5 182.5 C 574.5 155.7, 587.1 114, 591.4 100.3 M 508.8 340 C 515.1 327.1, 534.2 288.3, 546.8 262.4 C 559.3 236.5, 571.7 211, 584.1 184.5 C 596.5 158, 615.2 117.1, 621.4 103.6 M 509.8 340.6 C 516.7 328.1, 537.8 290.9, 551.4 265.9 C 565 240.9, 578.5 216.2, 591.5 190.4 C 604.5 164.5, 623.3 124.1, 629.6 110.9 M 510.7 341.1 C 517.8 329.7, 539.4 295.6, 553.4 272.7 C 567.4 249.8, 581.2 227.2, 594.7 203.5 C 608.3 179.7, 627.9 142.6, 634.5 130.4 M 512 342 C 520.6 330.4, 546.8 295.8, 563.8 272.5 C 580.9 249.1, 597.7 226.2, 614.4 202 C 631.1 177.8, 655.6 139.9, 663.9 127.5 M 512.8 342.6 C 522.1 331.4, 550.2 297.9, 568.8 275.4 C 587.4 252.9, 605.7 230.8, 624.3 207.7 C 642.9 184.7, 671.1 149, 680.4 137.2 M 513.9 343.6 C 523.6 333.4, 553 302.8, 572.5 282.3 C 591.9 261.8, 611.1 241.7, 630.6 220.6 C 650.1 199.6, 679.6 166.8, 689.4 156 M 514.5 344.2 C 524.7 334.4, 555.6 305.1, 575.9 285.2 C 596.1 265.3, 616 245.7, 635.9 224.8 C 655.7 203.9, 685.1 170.6, 694.9 159.8 M 515.3 345.1 C 525.9 336.2, 557.6 309.2, 579.1 291.6 C 600.6 274, 621.8 256.7, 644.3 239.7 C 666.8 222.6, 702.4 197.8, 714.1 189.4 M 516.2 346.2 C 527.1 338.2, 560 314.2, 582 298.3 C 604.1 282.4, 625.8 266.8, 648.3 251 C 670.9 235.2, 706 211.3, 717.5 203.4 M 516.7 347.1 C 528.3 339.5, 562.9 317, 585.9 301.7 C 608.8 286.5, 631.5 271.5, 654.5 255.6 C 677.6 239.7, 712.6 214.7, 724.2 206.5 M 517.5 348.3 C 529.1 341.7, 564.2 322.4, 587.3 309 C 610.5 295.6, 633.2 282.4, 656.1 267.9 C 679 253.3, 713.3 229.4, 724.7 221.7 M 518.2 349.8 C 531.6 343.8, 571.6 325.6, 598.5 313.9 C 625.4 302.2, 651.8 290.7, 679.4 279.6 C 707 268.5, 750 252.6, 764.1 247.2 M 518.6 350.5 C 532 345.2, 572.1 328.9, 599 318.4 C 626 307.9, 652.5 297.6, 680.1 287.7 C 707.7 277.8, 750.5 263.7, 764.6 258.9 M 518.9 351.5 C 532.8 346.7, 574.4 332.5, 602 322.6 C 629.5 312.7, 656.7 302.9, 684.4 292.1 C 712.1 281.2, 754.3 263.2, 768.2 257.4 M 519.3 352.7 C 532.9 349, 573.8 337.8, 601.1 330.3 C 628.4 322.8, 655.2 315.5, 682.9 307.9 C 710.6 300.3, 753.2 288.6, 767.2 284.7 M 519.6 354 C 533.5 351.3, 575 342.7, 602.7 337.6 C 630.5 332.4, 657.9 327.3, 686.3 323.2 C 714.7 319, 758.6 314.3, 773.1 312.5 M 519.9 355.7 C 534.2 354.1, 577 349, 605.7 346.2 C 634.3 343.4, 662.5 340.6, 691.7 338.9 C 720.9 337.2, 765.9 336.5, 780.7 336 M 520 356.6 C 533.4 355.8, 573.8 353, 600.7 351.3 C 627.6 349.6, 654.1 348, 681.5 346.7 C 708.8 345.3, 750.9 343.8, 764.8 343.3" fill="none" stroke="#22384C" stroke-width="5.6" stroke-linecap="round" opacity="0.85"/><path d="M 520 357.8 C 533.7 357.6, 574.9 357.4, 602.4 356.7 C 629.8 356, 656.9 355.3, 684.7 353.7 C 712.5 352, 755.3 348, 769.4 346.8 M 520 359 C 534.7 359.7, 578.7 361.9, 608 363.2 C 637.4 364.6, 666.3 365.9, 696.1 367.1 C 725.9 368.2, 771.8 369.7, 786.9 370.3 M 519.9 360.4 C 533.4 362, 573.9 367.1, 601 370 C 628.1 372.8, 654.7 375.7, 682.3 377.5 C 709.9 379.4, 752.5 380.6, 766.5 381.2 M 519.7 361.5 C 532.9 363.8, 572.5 371, 598.9 375.3 C 625.3 379.7, 651.4 384, 678.4 387.7 C 705.3 391.3, 747 395.7, 760.7 397.4 M 519.4 362.7 C 533.3 366, 574.9 376.1, 602.8 382.4 C 630.6 388.7, 658 394.9, 686.5 400.5 C 714.9 406, 758.9 413.2, 773.4 415.7 M 519 364.1 C 531.8 368.2, 570 380.5, 595.5 388.7 C 621 396.8, 646.1 404.9, 671.9 413.2 C 697.8 421.4, 737.6 434.1, 750.8 438.3 M 518.5 365.6 C 531.1 370.9, 569.1 386.4, 594.1 397.4 C 619.2 408.3, 643.9 419, 668.9 431.2 C 693.9 443.4, 731.4 463.8, 744 470.3 M 518 366.7 C 530.2 372.6, 566.6 390.2, 590.9 402 C 615.2 413.8, 639.1 425.4, 663.7 437.4 C 688.3 449.4, 726.1 468, 738.6 474.1 M 517.4 367.8 C 530 374.8, 567.7 396, 592.8 410.1 C 618 424.1, 642.8 437.9, 668.4 451.9 C 694.1 466, 733.7 487.3, 746.7 494.3 M 517 368.6 C 529.5 376.3, 567 399.6, 591.9 415.1 C 616.9 430.6, 641.6 445.8, 667 461.5 C 692.4 477.2, 731.5 501.2, 744.4 509.1 M 516.2 369.8 C 527.2 377.8, 560.3 402, 582.5 418 C 604.6 434, 626.4 449.8, 649 465.8 C 671.6 481.9, 706.6 506.4, 718.1 514.5 M 515.5 370.6 C 525.9 379.1, 557 404.4, 577.8 421.2 C 598.6 438.1, 619.1 454.6, 640.3 471.6 C 661.5 488.5, 694.3 514.3, 705.2 522.9 M 514.7 371.5 C 524.8 380.8, 555.1 408.4, 574.9 427.2 C 594.8 446, 614.4 464.5, 633.9 484.3 C 653.4 504, 682.4 535.4, 692.1 545.7 M 513.9 372.4 C 524 382.8, 554.1 414.1, 574.3 434.9 C 594.4 455.7, 614.2 476.3, 634.6 497.4 C 655.1 518.6, 686.5 551.1, 696.8 561.8 M 512.9 373.3 C 521.6 383.5, 547.4 414.2, 564.8 434.4 C 582.3 454.7, 599.4 474.7, 617.6 494.9 C 635.7 515.1, 664.3 545.5, 673.6 555.6 M 511.5 374.4 C 519.4 385.5, 542.9 419.1, 558.9 441.2 C 574.9 463.4, 590.6 485.2, 607.4 507.3 C 624.2 529.4, 650.9 562.7, 659.6 573.8 M 510.5 375 C 517.7 386.6, 539.3 421.4, 553.3 444.8 C 567.3 468.2, 581.2 491.3, 594.6 515.5 C 608.1 539.7, 627.6 577.7, 634.2 590.1 M 509.4 375.6 C 515.9 387.5, 534.9 423.3, 548.1 447 C 561.3 470.6, 574.3 493.8, 588.6 517.3 C 602.9 540.7, 626.3 576, 633.9 587.7 M 508.3 376.2 C 514.4 389.5, 532.7 429.4, 544.8 456 C 556.9 482.6, 568.8 508.8, 580.9 535.9 C 593.1 563, 611.5 604.7, 617.6 618.5 M 507.6 376.5 C 513.1 390.1, 529.8 431, 541 458.2 C 552.2 485.4, 563.3 512.1, 574.9 539.6 C 586.5 567.2, 604.8 609.3, 610.7 623.2 M 506.3 377 C 510.9 390.8, 524.7 432.3, 533.8 460.1 C 542.8 487.8, 551.7 515.1, 560.5 543.4 C 569.3 571.6, 582.2 615.3, 586.6 629.7 M 504.9 377.4 C 508.4 391.4, 519 433.3, 525.8 461.4 C 532.6 489.4, 539.3 517.1, 545.6 545.7 C 551.9 574.3, 560.6 618.5, 563.6 633.1 M 503.6 377.7 C 506.2 391.5, 513.6 432.8, 519 460.3 C 524.5 487.8, 529.9 514.9, 536.4 542.6 C 542.9 570.3, 554.5 612.6, 558.1 626.6 M 502.3 377.9 C 503.7 391.4, 508.5 432, 511.2 459.1 C 513.8 486.2, 516.5 512.9, 518.3 540.5 C 520.2 568.1, 521.6 610.7, 522.3 624.7 M 501 378 C 501.6 392.5, 504 436.2, 504.9 465.4 C 505.9 494.5, 506.8 523.2, 506.8 552.8 C 506.7 582.5, 504.8 628, 504.4 643.1 M 500.3 378 C 500.5 391.8, 501.1 433.2, 501.4 460.8 C 501.6 488.3, 501.8 515.5, 501.7 543.5 C 501.5 571.5, 500.7 614.6, 500.5 628.8 M 498.7 378 C 497.7 392.4, 494.9 435.6, 492.8 464.4 C 490.7 493.2, 488.7 521.6, 486.2 550.8 C 483.7 580, 479.4 624.9, 478 639.7 M 497.4 377.8 C 495.5 392.2, 489.8 435.2, 486 463.8 C 482.1 492.5, 478.4 520.7, 474.4 549.8 C 470.4 578.9, 464.2 623.6, 462.2 638.4 M 496.2 377.6 C 493.5 391.6, 485.6 433.6, 480.1 461.5 C 474.5 489.5, 469.1 517, 463 545.2 C 456.9 573.5, 446.8 616.8, 443.6 631.1 M 495.2 377.4 C 491.9 390.7, 482.3 430.7, 475.3 457.2 C 468.4 483.7, 461.6 509.8, 453.5 536.4 C 445.5 563.1, 431.6 603.6, 427.2 617 M 493.8 377 C 489.4 391, 475.7 432.8, 467.1 460.8 C 458.5 488.9, 450.1 516.5, 442.4 545.3 C 434.7 574, 424.6 618.7, 421 633.4 M 492.9 376.7 C 487.6 390.4, 472.2 431.6, 461.3 458.9 C 450.4 486.2, 439.6 513, 427.5 540.3 C 415.3 567.5, 394.9 608.6, 388.4 622.3 M 491.2 376 C 485 388.8, 466.1 427.2, 454 453 C 441.9 478.8, 430 504.3, 418.7 530.9 C 407.5 557.6, 391.9 599.4, 386.5 613.1 M 490.1 375.4 C 483 388.1, 461.3 426.1, 447.3 451.7 C 433.3 477.3, 419.5 502.4, 406.1 528.8 C 392.7 555.3, 373.4 596.6, 366.9 610.1 M 489.3 374.9 C 481.3 387.2, 457.7 424.4, 441.8 449.1 C 425.9 473.7, 410.2 498, 393.7 522.8 C 377.2 547.6, 351.2 585.3, 342.7 597.8 M 488.4 374.3 C 480.6 385.2, 457.1 417.8, 441.8 439.8 C 426.4 461.9, 411.3 483.5, 396.4 506.3 C 381.5 529.1, 359.6 564.8, 352.2 576.5 M 487 373.2 C 477.8 384, 450.2 416.5, 431.7 438.1 C 413.2 459.7, 395 480.9, 376.1 502.7 C 357.2 524.6, 327.9 557.9, 318.3 568.9 M 486.3 372.5 C 476.4 382.9, 446.9 414.4, 426.8 435 C 406.8 455.5, 387 475.8, 365.9 495.9 C 344.7 516.1, 311.1 545.8, 300.1 555.8 M 485.2 371.5 C 475.2 380.7, 444.9 408.2, 425.2 427 C 405.4 445.8, 385.9 464.3, 366.7 484.2 C 347.4 504.1, 319.2 536, 309.7 546.4 M 484.4 370.6 C 473.1 379.8, 438.9 407.2, 416.5 426 C 394.1 444.7, 372 463.2, 350.1 483.2 C 328.1 503.2, 295.7 535.5, 284.8 545.9 M 483.8 369.8 C 472.1 378.3, 436.7 403.9, 413.4 421.3 C 390.1 438.8, 367.2 455.9, 344.1 474.4 C 321 492.9, 286.5 522.5, 275 532.2 M 483.1 368.8 C 470.9 376.5, 434.5 399.9, 409.9 415.2 C 385.4 430.5, 361.2 445.6, 336 460.5 C 310.7 475.5, 271.2 497.4, 258.3 504.8 M 482.4 367.6 C 469.7 374.5, 431.3 395.4, 405.8 409.3 C 380.2 423.2, 355 436.9, 329 450.9 C 303 464.8, 262.9 486.1, 249.6 493.2 M 481.9 366.6 C 468.8 372.8, 429.3 391.4, 403.1 404.2 C 377 416.9, 351.2 429.5, 325 443.1 C 298.8 456.7, 259 478.8, 245.8 485.9 M 481.5 365.6 C 468.3 371, 428.7 387.2, 402.4 398.2 C 376.1 409.2, 350.1 420, 323.6 431.5 C 297 443.1, 256.4 461.4, 243 467.4 M 481 364.3 C 467.2 368.9, 425.7 382.7, 398 391.6 C 370.2 400.5, 342.9 409.3, 314.5 417.7 C 286.2 426.1, 242.2 437.9, 227.8 442 M 480.6 362.8 C 467 366.1, 426.3 376.1, 399.1 382.7 C 371.9 389.3, 345.2 395.9, 317.6 402.5 C 290 409.2, 247.5 419.3, 233.5 422.7 M 480.4 362.1 C 467.3 364.8, 428.1 372.8, 402 378.7 C 375.9 384.7, 350.3 390.5, 324 397.5 C 297.8 404.5, 257.9 417.1, 244.7 421 M 480.2 360.8 C 466.2 362.8, 424.2 368.8, 396.1 372.8 C 368.1 376.8, 340.5 380.8, 312.1 384.9 C 283.6 389, 239.9 395.3, 225.5 397.4 M 480 359.2 C 465.5 360, 422 362.6, 393 364.2 C 364 365.7, 335.4 367.3, 305.9 368.6 C 276.4 369.9, 231.1 371.5, 216.1 372.1 M 480 358.2 C 466.5 358.3, 425.9 358.5, 398.9 358.9 C 371.9 359.3, 345.2 359.6, 317.8 360.3 C 290.4 361, 248.2 362.5, 234.3 363 M 480 356.7 C 465.7 355.8, 422.6 353, 393.8 351.2 C 365.1 349.3, 336.8 347.5, 307.7 345.5 C 278.5 343.6, 233.7 340.5, 218.9 339.4 M 480.2 355.5 C 466.9 353.8, 427.2 348.9, 400.8 345.3 C 374.4 341.6, 348.3 338, 321.6 333.5 C 294.9 329, 254 320.9, 240.5 318.3 M 480.3 354.4 C 466.1 351.8, 423.4 343.7, 394.8 338.9 C 366.3 334.1, 338.1 329.4, 309 325.5 C 279.8 321.6, 234.8 317.4, 219.9 315.7 M 480.7 352.7 C 467.1 349, 426.4 337.7, 399.2 330.4 C 372 323, 345.3 315.7, 317.6 308.6 C 289.9 301.4, 247.2 290.8, 233.2 287.2 M 480.9 352 C 467.1 347.7, 425.9 334.7, 398.3 326.3 C 370.7 317.9, 343.5 309.6, 315.4 301.5 C 287.2 293.4, 243.7 281.7, 229.4 277.7 M 481.4 350.7 C 468.7 345.7, 430.6 330.7, 405.1 320.8 C 379.7 310.8, 354.7 301, 328.9 290.9 C 303 280.9, 263.3 265.4, 250.2 260.3 M 481.8 349.7 C 468.4 343.6, 428.5 325.2, 401.6 313.4 C 374.7 301.6, 348.3 289.9, 320.6 278.9 C 292.9 267.9, 249.7 252.4, 235.5 247.1 M 482.5 348.3 C 470.7 341.7, 435.4 322.1, 411.9 308.9 C 388.3 295.7, 365.2 282.7, 341.5 269 C 317.7 255.3, 281.5 233.9, 269.5 226.9 M 483 347.4 C 470.7 339.7, 433.6 316.6, 408.9 301.2 C 384.2 285.8, 359.9 270.6, 334.8 254.9 C 309.8 239.2, 271.3 215.1, 258.6 207.1 M 483.8 346.3 C 472.5 338.2, 438.5 313.9, 416.1 297.3 C 393.7 280.7, 371.6 264.4, 349.4 246.9 C 327.2 229.4, 293.9 201.3, 282.8 192.2 M 484.7 345.1 C 473.6 335.9, 440.7 307.9, 418.3 289.7 C 396 271.6, 373.9 253.6, 350.6 236 C 327.2 218.4, 290.2 192.6, 278.1 184 M 485.3 344.4 C 474.6 334.5, 442.7 304.8, 421.1 285.2 C 399.5 265.7, 378.3 246.4, 355.9 227.2 C 333.5 207.9, 298.2 179.2, 286.6 169.6 M 486.3 343.4 C 477 333.3, 448.7 303.3, 430.2 282.9 C 411.7 262.6, 393.5 242.6, 375.3 221.4 C 357.1 200.3, 330 166.9, 321 156 M 487.5 342.4 C 478.8 331.5, 452.6 299.1, 435.4 277.2 C 418.2 255.3, 401.3 233.7, 384.4 211 C 367.5 188.4, 342.5 152.8, 334.1 141.2 M 488 342 C 479.9 331.1, 455.5 298.6, 439.5 276.7 C 423.6 254.7, 407.9 233.1, 392.5 210.3 C 377 187.5, 354.4 151.7, 346.8 139.9 M 489 341.3 C 481.5 330, 459.3 295.9, 444.1 273.4 C 428.9 250.9, 413.9 228.7, 397.8 206.4 C 381.7 184, 355.8 150.4, 347.4 139.2 M 490.2 340.6 C 483.3 328.4, 462.8 291.7, 448.9 267.3 C 435 243, 421.3 219, 406.9 194.5 C 392.4 170, 369.7 132.6, 362.2 120.2 M 491.7 339.8 C 485.8 327, 468.1 288.7, 456.7 262.9 C 445.4 237.1, 434.2 211.7, 423.6 185.2 C 412.9 158.6, 398.1 117.2, 393 103.6 M 492.7 339.4 C 487.4 326.1, 471.9 286, 461 259.5 C 450 233.1, 439.3 207, 427.1 180.6 C 414.8 154.2, 394.2 114.5, 387.6 101.2 M 493.6 339 C 489.3 326, 476.1 286.9, 467.4 260.7 C 458.7 234.6, 450.2 208.9, 441.4 182.4 C 432.7 155.9, 419.5 115, 415.1 101.5 M 494.9 338.7 C 491.4 325.1, 480.6 284.5, 473.7 257.4 C 466.8 230.2, 460 203.5, 453.5 175.8 C 447 148.1, 437.9 105.4, 434.7 91.3 M 496 338.4 C 493.2 324.7, 485 283.5, 479 256.1 C 473 228.8, 467.1 201.8, 460 174.3 C 452.9 146.8, 440.3 104.8, 436.4 90.9 M 497.5 338.2 C 495.8 324.6, 490.5 283.9, 487.4 256.8 C 484.3 229.6, 481.2 202.9, 478.9 175.2 C 476.6 147.6, 474.3 104.9, 473.4 90.8 M 498.4 338.1 C 497.4 324.3, 494 282.9, 492.1 255.4 C 490.2 227.8, 488.4 200.6, 487.1 172.6 C 485.8 144.5, 484.8 101.4, 484.4 87.1 M 500.1 338 C 500.3 323.3, 500.5 279.2, 500.9 249.8 C 501.2 220.4, 501.6 191.4, 502.2 161.6 C 502.9 131.8, 504.5 85.9, 504.9 70.8 M 501.5 338.1 C 502.6 323.8, 505.9 281.1, 508.2 252.7 C 510.5 224.3, 512.8 196.2, 515.4 167.4 C 518 138.5, 522.5 94.2, 523.9 79.6 M 502.8 338.2 C 504.8 324.6, 510.5 283.7, 514.8 256.5 C 519.2 229.3, 523.4 202.5, 528.8 175.1 C 534.1 147.7, 543.9 105.8, 547 91.9 M 503.9 338.4 C 506.7 324.7, 514.8 283.5, 520.7 256.2 C 526.6 228.9, 532.4 202, 539.3 174.5 C 546.3 146.9, 558.6 105, 562.4 91.1 M 505.3 338.7 C 509 325.5, 519.8 285.6, 527.4 259.2 C 535.1 232.8, 542.6 206.8, 551.2 180.2 C 559.8 153.6, 574.4 113.2, 579 99.8 M 505.9 338.9 C 510.1 325.1, 522.7 283.7, 531.3 256.2 C 539.9 228.6, 548.3 201.5, 557.3 173.6 C 566.2 145.7, 580.5 103, 585.1 88.9 M 507.2 339.4 C 512.2 326.3, 527.4 287.4, 537.1 261.2 C 546.8 235.1, 556.4 209.3, 565.5 182.5 C 574.5 155.7, 587.1 114, 591.4 100.3 M 508.8 340 C 515.1 327.1, 534.2 288.3, 546.8 262.4 C 559.3 236.5, 571.7 211, 584.1 184.5 C 596.5 158, 615.2 117.1, 621.4 103.6 M 509.8 340.6 C 516.7 328.1, 537.8 290.9, 551.4 265.9 C 565 240.9, 578.5 216.2, 591.5 190.4 C 604.5 164.5, 623.3 124.1, 629.6 110.9 M 510.7 341.1 C 517.8 329.7, 539.4 295.6, 553.4 272.7 C 567.4 249.8, 581.2 227.2, 594.7 203.5 C 608.3 179.7, 627.9 142.6, 634.5 130.4 M 512 342 C 520.6 330.4, 546.8 295.8, 563.8 272.5 C 580.9 249.1, 597.7 226.2, 614.4 202 C 631.1 177.8, 655.6 139.9, 663.9 127.5 M 512.8 342.6 C 522.1 331.4, 550.2 297.9, 568.8 275.4 C 587.4 252.9, 605.7 230.8, 624.3 207.7 C 642.9 184.7, 671.1 149, 680.4 137.2 M 513.9 343.6 C 523.6 333.4, 553 302.8, 572.5 282.3 C 591.9 261.8, 611.1 241.7, 630.6 220.6 C 650.1 199.6, 679.6 166.8, 689.4 156 M 514.5 344.2 C 524.7 334.4, 555.6 305.1, 575.9 285.2 C 596.1 265.3, 616 245.7, 635.9 224.8 C 655.7 203.9, 685.1 170.6, 694.9 159.8 M 515.3 345.1 C 525.9 336.2, 557.6 309.2, 579.1 291.6 C 600.6 274, 621.8 256.7, 644.3 239.7 C 666.8 222.6, 702.4 197.8, 714.1 189.4 M 516.2 346.2 C 527.1 338.2, 560 314.2, 582 298.3 C 604.1 282.4, 625.8 266.8, 648.3 251 C 670.9 235.2, 706 211.3, 717.5 203.4 M 516.7 347.1 C 528.3 339.5, 562.9 317, 585.9 301.7 C 608.8 286.5, 631.5 271.5, 654.5 255.6 C 677.6 239.7, 712.6 214.7, 724.2 206.5 M 517.5 348.3 C 529.1 341.7, 564.2 322.4, 587.3 309 C 610.5 295.6, 633.2 282.4, 656.1 267.9 C 679 253.3, 713.3 229.4, 724.7 221.7 M 518.2 349.8 C 531.6 343.8, 571.6 325.6, 598.5 313.9 C 625.4 302.2, 651.8 290.7, 679.4 279.6 C 707 268.5, 750 252.6, 764.1 247.2 M 518.6 350.5 C 532 345.2, 572.1 328.9, 599 318.4 C 626 307.9, 652.5 297.6, 680.1 287.7 C 707.7 277.8, 750.5 263.7, 764.6 258.9 M 518.9 351.5 C 532.8 346.7, 574.4 332.5, 602 322.6 C 629.5 312.7, 656.7 302.9, 684.4 292.1 C 712.1 281.2, 754.3 263.2, 768.2 257.4 M 519.3 352.7 C 532.9 349, 573.8 337.8, 601.1 330.3 C 628.4 322.8, 655.2 315.5, 682.9 307.9 C 710.6 300.3, 753.2 288.6, 767.2 284.7 M 519.6 354 C 533.5 351.3, 575 342.7, 602.7 337.6 C 630.5 332.4, 657.9 327.3, 686.3 323.2 C 714.7 319, 758.6 314.3, 773.1 312.5 M 519.9 355.7 C 534.2 354.1, 577 349, 605.7 346.2 C 634.3 343.4, 662.5 340.6, 691.7 338.9 C 720.9 337.2, 765.9 336.5, 780.7 336 M 520 356.6 C 533.4 355.8, 573.8 353, 600.7 351.3 C 627.6 349.6, 654.1 348, 681.5 346.7 C 708.8 345.3, 750.9 343.8, 764.8 343.3" fill="none" stroke="#FFFFFF" stroke-width="2.8" stroke-linecap="round" opacity="1.00"/><path d="M 596.4 356.8 L 603 351.3 M 617.9 356.1 L 625.3 361.2 M 634.9 355.5 L 642.1 349.6 M 655.8 354.7 L 663.8 360.2 M 674.6 354.1 L 682.5 347.6 M 688.2 353.4 L 696.7 359.3 M 706.9 351.9 L 715.2 345.1 M 734 349.7 L 743.3 356.1 M 747.6 348.6 L 756.5 341.2 M 601.6 362.9 L 608.6 358.1 M 629.1 364.1 L 636.2 369.9 M 643.9 364.8 L 651.6 359.5 M 667.5 365.8 L 675.1 372 M 683.9 366.5 L 692.2 360.8 M 705.7 367.4 L 713.9 374.1 M 721.3 368 L 730.2 361.9 M 746.8 368.9 L 755.6 376 M 769.8 369.7 L 779.5 363.1 M 597.7 369.6 L 605 365 M 618.1 371.6 L 624.9 377.6 M 635.9 373.2 L 643.9 368.2 M 648.8 374.4 L 656 380.8 M 673.6 376.7 L 682.2 371.3 M 690.8 377.9 L 698.6 384.9 M 707.1 378.6 L 716.3 372.9 M 723.6 379.3 L 731.9 386.7 M 750.7 380.5 L 760.6 374.3 M 595.2 374.7 L 602.8 370.6 M 615.4 377.9 L 621.8 384.3 M 634.9 380.9 L 643.2 376.4 M 651.4 383.5 L 658.3 390.4 M 671.3 386.6 L 680.3 381.7 M 684.8 388.4 L 692.2 395.9 M 707.2 391.1 L 716.9 385.9 M 722.6 392.9 L 730.5 400.9 M 745.8 395.6 L 756.1 390 M 602.7 382.4 L 610.6 378.7 M 614.3 384.9 L 620.2 391.6 M 633.6 389 L 642 385.1 M 653.4 393.3 L 659.8 400.6 M 679.4 398.9 L 688.7 394.6 M 693.7 401.7 L 700.6 409.6 M 715.2 405.5 L 725.1 400.9 M 731.7 408.4 L 739.1 416.8 M 753.5 412.2 L 764 407.3 M 591.2 387.3 L 599.3 384.5 M 608.2 392.7 L 613.4 400 M 627.6 398.9 L 636.4 395.9 M 644.9 404.5 L 650.5 412.4 M 665 410.9 L 674.6 407.6 M 680.7 415.9 L 686.8 424.5 M 700.7 422.3 L 711.1 418.8 M 717.9 427.8 L 724.5 437.1 M 737 433.9 L 748.1 430.1 M 592.3 396.6 L 600.8 394.8 M 605 402.3 L 609.2 410.1 M 627.8 412.6 L 637 410.7 M 645.7 420.7 L 650.3 429.3 M 662.1 428.1 L 672.1 426 M 676.2 435 L 681.2 444.3 M 694.5 444.5 L 705.1 442.3 M 707.2 451.2 L 712.5 461 M 729.5 462.8 L 740.9 460.4 M 588.3 400.7 L 596.8 399.1 M 602.5 407.6 L 606.5 415.5 M 617.1 414.7 L 626.2 413 M 640.2 425.9 L 644.7 434.6 M 657.8 434.5 L 667.8 432.6 M 667 439 L 671.7 448.2 M 690 450.2 L 700.7 448.2 M 703.7 456.9 L 708.8 466.9 M 718.4 464.2 L 729.8 462 M 587.8 407.2 L 596.3 406.1 M 609 419 L 612.7 427.2 M 627 429 L 636.3 427.7 M 637 434.6 L 641 443.4 M 659.1 446.8 L 669.1 445.4 M 671.4 453.6 L 675.7 463.1 M 695.2 466.4 L 706 464.9 M 709.5 474.2 L 714.1 484.4 M 732.1 486.4 L 743.7 484.8 M 592.8 415.6 L 601.4 414.8 M 605.7 423.6 L 609 432 M 626.9 436.7 L 636.3 435.9 M 638.1 443.6 L 641.6 452.7 M 653.1 452.9 L 663.1 452 M 674.8 466.3 L 678.6 476.1 M 687.4 474.1 L 698.1 473.1 M 706.4 485.8 L 710.4 496.2 M 725.8 497.7 L 737.3 496.6 M 580.4 416.5 L 589 416.3 M 592.1 424.9 L 594.8 433.4 M 606.3 435.1 L 615.6 434.9 M 627.6 450.5 L 630.6 459.8 M 638.5 458.3 L 648.6 458.1 M 658.8 472.8 L 662 482.8 M 674 483.4 L 684.9 483.2 M 685.6 491.6 L 688.9 502.3 M 701.9 503.1 L 713.5 502.8 M 575.2 419.2 L 583.8 419.4 M 590.3 431.3 L 592.5 440 M 604.1 442.4 L 613.5 442.7 M 618 453.6 L 620.4 463.1 M 632.6 465.4 L 642.7 465.7 M 649.4 478.8 L 652 489 M 660.9 487.9 L 671.7 488.2 M 675 499.1 L 677.8 509.9 M 691.9 512.4 L 703.5 512.7 M 570.5 423.2 L 579 424.3 M 584.4 436.4 L 585.8 445.2 M 602.3 453.7 L 611.7 455 M 612.6 463.7 L 614.1 473.3 M 626.2 476.8 L 636.2 478.1 M 635.9 486.4 L 637.5 496.7 M 651.8 503.1 L 662.5 504.6 M 666.1 518.2 L 667.8 529.3 M 675.6 528.2 L 687 529.7 M 572.4 433 L 580.9 434.4 M 586.2 447.3 L 587.3 456.2 M 596 457.4 L 605.1 458.9 M 613.6 475.6 L 614.8 485.3 M 626.1 488.6 L 636.1 490.2 M 641.5 504.5 L 642.8 515 M 653.3 516.7 L 664 518.5 M 669.9 533.9 L 671.3 545.1 M 684.2 548.8 L 695.7 550.6 M 559.8 428.5 L 568.1 430.2 M 571.9 442.5 L 572.6 451.4 M 587.5 460.4 L 596.7 462.3 M 601.2 476.1 L 601.9 485.9 M 608.9 484.9 L 618.7 486.9 M 622.3 500 L 623.2 510.5 M 635.9 514.7 L 646.6 516.9 M 646.9 526.6 L 647.8 537.8 M 659.9 540.7 L 671.2 543.1 M 555.8 436.9 L 564 439.4 M 567.1 452.4 L 567 461.3 M 579.3 469.1 L 588.3 471.7 M 588.7 481.8 L 588.6 491.5 M 600.1 497.4 L 609.8 500.3 M 613.7 515.4 L 613.7 525.9 M 621.1 524.8 L 631.4 527.9 M 636.2 544 L 636.1 555.2 M 649 560.3 L 660.1 563.6 M 550.5 440.3 L 558.4 443.7 M 559.6 455.6 L 558.5 464.4 M 571.7 476.2 L 580.3 480 M 578.4 487.7 L 577.2 497.3 M 587.5 503.4 L 596.8 507.3 M 597.9 521.7 L 596.6 532.1 M 608.1 540.8 L 618.1 545.1 M 614.4 552.7 L 613 563.8 M 624.3 571.5 L 635 576 M 545.7 442.5 L 553.6 445.8 M 557.1 462.5 L 556 471.5 M 564.4 475.3 L 573 478.9 M 575.5 494.6 L 574.4 504.3 M 581.5 505 L 590.8 508.9 M 591.8 522.3 L 590.6 532.7 M 603.7 540.8 L 613.7 545 M 615.2 558.6 L 613.9 569.8 M 623.2 571.1 L 633.9 575.6 M 542.1 450 L 549.5 454.2 M 549.9 467.2 L 547.9 475.9 M 559.7 489 L 567.9 493.5 M 566.5 504.1 L 564.4 513.5 M 577.2 527.7 L 586.2 532.7 M 585.6 546.5 L 583.3 556.8 M 591.2 559.1 L 600.7 564.3 M 599.9 578.7 L 597.5 589.6 M 610.4 602.4 L 620.7 608 M 540.1 455.9 L 547.5 460.3 M 548.4 475.9 L 546.2 484.7 M 554.3 490.1 L 562.4 494.9 M 561.2 506.6 L 558.8 516 M 569.5 526.6 L 578.2 531.7 M 579.3 549.9 L 576.7 560.2 M 585.3 563.9 L 594.7 569.4 M 593.8 583.6 L 591 594.5 M 602.2 603.2 L 612.2 609.1 M 532.3 455.7 L 539.3 460.7 M 538.4 474.5 L 535.4 482.9 M 546 498.2 L 553.7 503.7 M 549.7 509.8 L 546.6 519 M 555.3 527.3 L 563.5 533.1 M 564.2 555.5 L 560.7 565.4 M 569.9 574.4 L 578.8 580.8 M 576.1 595 L 572.4 605.7 M 580.4 609.2 L 589.8 615.9 M 526 462 L 532.6 467.6 M 530.4 480.9 L 526.7 489.2 M 533.3 493.3 L 540.4 499.3 M 539 517.4 L 535 526.3 M 543.6 537.4 L 551.4 543.9 M 547.6 555.2 L 543.3 564.8 M 551.3 573.5 L 559.6 580.6 M 555 591.1 L 550.4 601.3 M 559.1 611.4 L 568 618.9 M 517.9 454.2 L 524.4 459.8 M 521.4 471.4 L 517.7 479.5 M 526.3 494.9 L 533.4 501 M 529.7 510.7 L 525.6 519.6 M 534.6 534.3 L 542.3 540.9 M 537.2 545.9 L 532.9 555.3 M 544.2 573.1 L 552.5 580.2 M 548.6 590.1 L 544 600.4 M 554.1 611.3 L 563 619 M 511.2 459.2 L 516.9 465.7 M 512.8 477.7 L 508 485.4 M 514.2 493.2 L 520.4 500.2 M 515.3 506.4 L 510.2 514.6 M 517.6 531.6 L 524.3 539.2 M 518.5 545 L 513 553.8 M 519.5 565.3 L 526.7 573.4 M 520.5 587.8 L 514.5 597.3 M 521.4 605.6 L 529.1 614.3 M 504.7 460.7 L 509.9 467.5 M 505.3 485.8 L 500 493.1 M 505.7 502.3 L 511.4 509.8 M 506.1 519.5 L 500.3 527.3 M 506.5 538.4 L 512.6 546.4 M 506.5 564.7 L 500.2 573.2 M 506 581.2 L 512.6 589.8 M 505.4 604.7 L 498.8 613.9 M 505 620.8 L 512.1 630 M 501.3 454.3 L 506.4 461.2 M 501.4 476.3 L 496 483.4 M 501.5 497.7 L 507.2 505.2 M 501.6 510.4 L 495.8 518.1 M 501.6 534.9 L 507.8 543.1 M 501.5 555.3 L 495.2 563.7 M 501.3 573.5 L 507.8 582.2 M 501 593 L 494.2 602 M 500.9 604.4 L 507.8 613.6 M 492.9 461.9 L 497.6 469.2 M 491.3 483.8 L 485.3 490.6 M 490.4 495.4 L 495.4 503.2 M 488.8 517.2 L 482.3 524.4 M 487.3 536.7 L 492.6 545.2 M 485.4 559.1 L 478.5 566.9 M 483.7 578.2 L 489.5 587.3 M 481.8 598.8 L 474.3 607.2 M 479.6 622 L 485.9 631.9 M 487.1 455.3 L 491.2 462.7 M 484.4 475.3 L 478.2 481.6 M 481.7 495.5 L 486.2 503.6 M 479.1 514.9 L 472.3 521.8 M 476.5 533.9 L 481.4 542.6 M 472.6 562.6 L 465.2 570.1 M 470 581.4 L 475.4 591 M 468.3 593.8 L 460.5 601.8 M 465 618.1 L 470.7 628.2 M 481.1 456.1 L 484.7 463.9 M 477.3 475.1 L 470.6 481 M 473.3 494.4 L 477.3 502.9 M 468.9 516.2 L 461.6 522.7 M 465.1 534.6 L 469.4 543.8 M 461.5 551.6 L 453.7 558.5 M 457.5 569.4 L 462.1 579.2 M 452.8 590.2 L 444.4 597.6 M 448.9 607.7 L 453.8 618.2 M 476.1 454.2 L 479.2 462.3 M 470.8 473.6 L 463.6 479.1 M 466.7 488.6 L 470 497.3 M 462.5 503.9 L 454.8 509.7 M 457.3 522.7 L 460.9 532.1 M 451.5 542.5 L 443.2 548.9 M 444.9 562.9 L 448.8 573.1 M 438.4 582.8 L 429.4 589.7 M 433.6 597.4 L 437.8 608.2 M 467.4 460.1 L 470.5 468.1 M 462.2 477.5 L 455.1 482.9 M 457.2 494.8 L 460.5 503.5 M 451.7 513.4 L 444 519.2 M 445.8 533.7 L 449.4 543.1 M 440 555.2 L 431.6 561.6 M 435.8 572.4 L 439.7 582.5 M 430.3 595.1 L 421.4 601.9 M 426 612.8 L 430.2 623.6 M 463.5 453 L 465.6 461.3 M 454.9 474.1 L 447.2 478.6 M 446.7 494.1 L 448.9 503.2 M 441.4 506.8 L 433.1 511.6 M 432.4 528.5 L 434.8 538.3 M 424.3 547 L 415.2 552.2 M 413.4 569.8 L 416 580.4 M 404.3 588.9 L 394.5 594.6 M 398 602.3 L 400.7 613.5 M 453.9 453.1 L 455.9 461.6 M 446.4 469.8 L 438.5 474.3 M 440.5 482.8 L 442.6 491.9 M 431.7 502.3 L 423.2 507.1 M 425.1 517 L 427.3 526.7 M 414.7 541.3 L 405.5 546.4 M 407.9 558.5 L 410.4 569.1 M 399.8 579.2 L 389.9 584.7 M 392.8 596.9 L 395.5 608.3 M 448.4 449.8 L 449.7 458.3 M 438.7 467.9 L 430.5 471.7 M 430.1 483.9 L 431.6 493.1 M 422.9 497.3 L 414.2 501.5 M 411.3 519.1 L 412.9 529.1 M 404.8 531.6 L 395.4 536.1 M 395.3 551.3 L 397 562 M 383.6 575.5 L 373.4 580.4 M 377.9 587.2 L 379.8 598.6 M 446.1 442.4 L 446.6 450.9 M 435.2 459.2 L 426.8 462.2 M 420 482.5 L 420.6 491.9 M 412.9 493.3 L 403.8 496.6 M 402.9 508.7 L 403.5 518.7 M 387.1 532.5 L 377.2 536 M 379.7 543.3 L 380.4 554.1 M 364 566.5 L 353.3 570.3 M 353.4 582.1 L 354.1 593.7 M 442 439.5 L 442.5 448.2 M 431.1 455.4 L 422.6 458.4 M 422.8 467.7 L 423.2 477 M 411.4 484.4 L 402.1 487.6 M 405 493.7 L 405.5 503.7 M 391.1 514.8 L 381.1 518.2 M 382.4 528.6 L 382.9 539.5 M 371.3 546.2 L 360.7 549.9 M 364.3 557.2 L 364.9 568.8 M 432.5 437.1 L 431.9 445.7 M 418.8 453.1 L 409.9 455.1 M 411.7 461.4 L 411 470.6 M 397.4 478 L 387.9 480 M 383.3 494.4 L 382.6 504.5 M 368.8 511.2 L 358.5 513.4 M 359.5 521.8 L 358.8 532.6 M 346.8 536.3 L 335.9 538.7 M 333.2 551.8 L 332.5 563.4 M 428.6 433.1 L 427.3 441.6 M 413.9 447.9 L 405 449.1 M 402.6 459.2 L 401.2 468.4 M 388.9 472.9 L 379.3 474.2 M 374.9 486.9 L 373.4 496.9 M 361.1 500.3 L 350.7 501.7 M 345.7 514.3 L 344 525.1 M 333.2 525.6 L 322.2 527.1 M 315.2 542 L 313.5 553.5 M 424.6 427.6 L 423.3 436.2 M 415 436.9 L 406.2 438.2 M 399.6 452 L 398.2 461.3 M 390.2 461.2 L 380.6 462.5 M 373.4 477.6 L 372 487.6 M 359.9 491.6 L 349.5 493 M 347.5 505.1 L 345.9 515.9 M 335.6 518.1 L 324.5 519.7 M 322.9 532 L 321.2 543.5 M 418.3 424.5 L 416.6 432.9 M 401.3 439 L 392.3 439.7 M 391.9 447.2 L 390 456.3 M 377.2 459.8 L 367.6 460.5 M 357.3 477 L 355.2 486.9 M 341.1 491.8 L 330.6 492.6 M 329.3 503.2 L 327.1 513.8 M 315 516.9 L 303.9 517.7 M 298.2 533 L 295.8 544.5 M 419 417.3 L 416.7 425.5 M 402.5 429.7 L 393.6 429.8 M 387.3 441.3 L 384.9 450.2 M 368.6 455.6 L 358.9 455.8 M 355 466 L 352.4 475.8 M 340 477.9 L 329.5 478 M 320.7 494 L 317.9 504.5 M 303 508.8 L 291.7 509 M 292.5 517.5 L 289.5 528.7 M 411.4 414.3 L 408.2 422.3 M 397.1 423.1 L 388.2 422.2 M 376.6 435.6 L 373.1 444.4 M 362.1 444.5 L 352.4 443.5 M 348 453.2 L 344.3 462.5 M 331.4 463.1 L 321.1 462.1 M 315.6 472.2 L 311.5 482.2 M 293.9 484.5 L 282.8 483.4 M 277.2 494.1 L 272.8 504.8 M 411.9 406 L 408.4 413.7 M 392.9 416.3 L 384.1 415 M 375.8 425.5 L 371.9 434 M 354.5 437.1 L 344.8 435.6 M 342.6 443.5 L 338.4 452.6 M 317.4 457 L 307 455.5 M 304 464.2 L 299.5 474 M 285 474.3 L 273.8 472.7 M 268.2 483.3 L 263.3 493.8 M 403.6 404 L 399.7 411.7 M 386 412.7 L 377.1 411.2 M 370.6 420.4 L 366.4 428.8 M 353.5 428.9 L 344 427.2 M 333.7 438.8 L 329.2 447.9 M 314.7 448.7 L 304.3 446.8 M 300.8 456.2 L 296 465.9 M 279.9 467.5 L 268.8 465.5 M 259.9 478.3 L 254.7 488.8 M 406.1 396.6 L 401.8 404.1 M 390.3 403.3 L 381.7 401.1 M 372.4 410.8 L 367.8 418.9 M 350.3 420.2 L 340.8 417.9 M 332.8 427.6 L 327.7 436.4 M 312.1 436.6 L 301.9 434.1 M 294.8 444.3 L 289.4 453.8 M 282.2 450 L 271.3 447.3 M 264.4 457.9 L 258.6 467.9 M 403.9 389.7 L 398.8 396.6 M 385.7 395.5 L 377.3 392.5 M 361.8 402.9 L 356.3 410.5 M 341.5 409.3 L 332.3 406 M 322.2 415.3 L 316.2 423.6 M 309.1 419.2 L 299.3 415.7 M 283.5 426.4 L 277 435.2 M 269.2 430.4 L 258.7 426.6 M 248.5 436.2 L 241.6 445.5 M 400.5 382.4 L 395 389 M 388 385.4 L 379.8 381.9 M 369.4 389.9 L 363.5 397.1 M 344.1 396.1 L 335.1 392.2 M 330.6 399.4 L 324.2 407.1 M 311.4 404 L 301.8 399.9 M 290.2 409.1 L 283.3 417.5 M 270.2 413.9 L 259.9 409.4 M 257.5 416.9 L 250.2 425.8 M 406.9 377.7 L 401.5 384.4 M 388.3 382 L 380 378.6 M 370.2 386.4 L 364.3 393.7 M 354.9 390.1 L 346 386.3 M 333.9 395.1 L 327.6 403 M 312.8 400.8 L 303.1 396.7 M 299.9 404.6 L 293.1 413.1 M 280.5 410.4 L 270.2 406 M 266.4 414.6 L 259.1 423.5 M 401.9 372 L 395.9 378 M 379.1 375.3 L 371.2 370.9 M 365.4 377.2 L 358.8 383.8 M 338.9 381 L 330.3 376.3 M 319.7 383.8 L 312.5 391 M 308.2 385.4 L 299.1 380.4 M 280.3 389.5 L 272.6 397.2 M 266.2 391.5 L 256.4 386.1 M 242.7 394.9 L 234.5 403.2 M 394.2 364.1 L 387.6 369.6 M 379 364.9 L 371.6 359.9 M 355.6 366.1 L 348.3 372.1 M 336 367.1 L 327.9 361.6 M 314.8 368.2 L 307 374.6 M 300.2 368.8 L 291.6 363 M 274.9 369.8 L 266.5 376.8 M 252.4 370.7 L 243.1 364.4 M 235 371.4 L 226.1 378.8 M 402.1 358.9 L 395.3 364.2 M 387.6 359.1 L 380.4 353.9 M 365.7 359.5 L 358.3 365.2 M 348.6 359.8 L 340.8 354.1 M 326.9 360.1 L 318.9 366.4 M 308.6 360.6 L 300.1 354.4 M 290.7 361.2 L 282.1 367.8 M 275.4 361.6 L 266.3 355.1 M 252.1 362.4 L 242.9 369.6 M 396.3 351.3 L 389.1 356 M 381.2 350.3 L 374.4 344.5 M 354.7 348.6 L 346.8 353.7 M 337.5 347.5 L 330.1 341.1 M 323.1 346.5 L 314.7 352 M 295.3 344.7 L 287.3 337.8 M 283.1 343.8 L 274.1 349.7 M 261.1 342.3 L 252.6 335 M 237.1 340.7 L 227.3 347.1 M 403.3 345.6 L 395.7 349.7 M 385.8 343 L 379.5 336.6 M 367 340.3 L 358.7 344.7 M 350.8 337.8 L 344 330.9 M 334.1 335.4 L 325.2 340.1 M 317.3 332.7 L 310 325.2 M 299.9 329.4 L 290.4 334.5 M 275.5 324.9 L 267.7 316.8 M 256.8 321.4 L 246.5 326.9 M 398.1 339.5 L 390.6 343.6 M 376.8 336.1 L 370.4 329.7 M 361 333.6 L 352.8 338.1 M 342.5 330.7 L 335.6 323.9 M 321.9 327.5 L 313 332.3 M 297.2 324.2 L 289.8 316.7 M 285.4 322.9 L 275.9 328 M 260.5 320.2 L 252.6 312.2 M 242.9 318.3 L 232.8 323.8 M 400.3 330.6 L 392.3 333.9 M 385.6 326.7 L 380.1 319.7 M 367.3 321.8 L 358.7 325.3 M 348.1 316.7 L 342.1 309.1 M 328.4 311.4 L 319 315.2 M 307.4 306 L 300.9 297.7 M 292.3 302.2 L 282.2 306.2 M 268.4 296.1 L 261.4 287.3 M 256.3 293.1 L 245.6 297.4 M 404 328.1 L 396 331.1 M 386.8 322.9 L 381.5 315.8 M 367.9 317.2 L 359.2 320.5 M 342.9 309.7 L 337 301.9 M 324.6 304.3 L 315 307.8 M 310.7 300.2 L 304.5 291.9 M 291.2 294.8 L 281 298.6 M 269.5 288.8 L 262.8 279.8 M 246.8 282.6 L 235.9 286.6 M 405.7 321 L 397.4 323.3 M 389 314.5 L 384.3 306.8 M 373.1 308.2 L 364 310.7 M 359.6 303 L 354.5 294.8 M 340.2 295.4 L 330.4 298.1 M 324.5 289.2 L 319 280.4 M 303.7 281.1 L 293.2 284 M 285.5 274.1 L 279.6 264.5 M 271 268.4 L 259.8 271.5 M 407.4 316 L 399.1 318.1 M 384.2 306 L 379.6 298.2 M 372.7 301.1 L 363.7 303.4 M 347.2 290.2 L 342.3 281.8 M 328.1 282.1 L 318.2 284.6 M 308.6 274.4 L 303.2 265.3 M 294.8 269.3 L 284.3 271.9 M 273.9 261.4 L 268.1 251.8 M 254.3 254.1 L 243 257 M 413.8 310 L 405.3 311.1 M 395.1 299.4 L 391.5 291.1 M 381.5 291.7 L 372.2 292.9 M 368.6 284.4 L 364.8 275.5 M 348.2 272.8 L 338.1 274.1 M 335.1 265.3 L 330.9 255.7 M 317.8 255.2 L 307.1 256.6 M 300.5 245.1 L 296 234.7 M 290.1 239 L 278.7 240.4 M 409.8 301.8 L 401.2 302.5 M 394 291.8 L 390.7 283.4 M 378.6 282.2 L 369.3 283 M 361.5 271.6 L 358 262.5 M 345.3 261.4 L 335.2 262.3 M 330.6 252.2 L 326.8 242.5 M 310.4 239.6 L 299.6 240.5 M 297.4 231.4 L 293.4 221 M 276.1 218.1 L 264.5 219.1 M 417.9 298.6 L 409.3 298.5 M 404.3 288.4 L 401.9 279.7 M 388.2 276.2 L 378.9 276.1 M 370.2 262.6 L 367.5 253.1 M 355.6 251.5 L 345.4 251.4 M 346.2 244.2 L 343.3 234.2 M 326.1 227.8 L 315.2 227.6 M 312.3 216.4 L 309.2 205.6 M 301.5 207.6 L 290 207.4 M 422.2 293 L 413.7 292.9 M 407.9 281.5 L 405.6 272.9 M 393.8 270.3 L 384.5 270.1 M 374.9 255.3 L 372.3 245.9 M 356.5 240.7 L 346.4 240.5 M 345.5 232.4 L 342.8 222.3 M 324.6 217.3 L 313.7 217.1 M 309.6 206.6 L 306.7 195.7 M 297.8 198.1 L 286.3 197.9 M 421.3 285.4 L 412.6 284.7 M 408.4 273.9 L 406.6 265.1 M 391.2 258.6 L 381.8 257.9 M 378 246.8 L 376 237.3 M 363 233.5 L 352.9 232.7 M 350.9 223 L 348.7 212.8 M 331.5 206.9 L 320.7 206.1 M 314.9 193.1 L 312.6 182 M 299.7 180.5 L 288.1 179.6 M 433.1 286 L 424.7 284.3 M 418.5 269.9 L 417.8 260.9 M 407.8 257.8 L 398.6 255.9 M 397.7 246.5 L 396.9 236.9 M 385.6 233 L 375.8 231 M 373 218.7 L 372.1 208.3 M 359.9 202.9 L 349.3 200.7 M 347.9 188.4 L 347 177.2 M 333.5 171 L 322.1 168.7 M 436.5 278.5 L 428.2 276.2 M 425.8 264.8 L 425.8 255.8 M 414.9 250.6 L 406 248.1 M 402.1 234 L 402 224.2 M 392.5 221.5 L 382.8 218.8 M 380.1 205 L 380 194.6 M 367 186.9 L 356.5 183.9 M 357.7 173.9 L 357.6 162.7 M 347.5 159.8 L 336.4 156.6 M 439.5 276.5 L 431.2 273.8 M 429.7 262.8 L 430 253.8 M 421 250.5 L 412.1 247.5 M 410.3 235.4 L 410.6 225.7 M 398.7 219.2 L 389.1 216 M 387.9 203.2 L 388.2 192.7 M 379.4 190.2 L 369.2 186.8 M 370.2 176 L 370.6 164.9 M 358.8 158.4 L 347.8 154.8 M 444.6 274.1 L 436.4 271.5 M 437.5 263.8 L 437.8 254.9 M 425.3 246.2 L 416.4 243.3 M 416.2 233 L 416.5 223.4 M 405.6 217.7 L 396.1 214.6 M 395.1 202.8 L 395.5 192.4 M 382.4 185.8 L 372.1 182.5 M 372.3 172.4 L 372.7 161.2 M 361.7 158.3 L 350.7 154.7 M 452.5 273.8 L 444.6 270.4 M 442.7 256.7 L 443.8 247.9 M 431.7 237.6 L 423.1 233.9 M 424.2 224.6 L 425.3 215 M 414.9 208.4 L 405.7 204.5 M 403.1 188.3 L 404.3 177.8 M 393.2 171.8 L 383.2 167.5 M 381.6 152.4 L 382.9 141.2 M 374.8 141.1 L 364.2 136.6 M 458.6 267.1 L 451.2 262.7 M 451 249.6 L 453.2 240.9 M 444.9 235.2 L 436.9 230.5 M 433.9 209.3 L 436.3 199.8 M 429.2 198.3 L 420.5 193.2 M 422.2 181.6 L 424.8 171.5 M 414 159.6 L 404.6 154.1 M 408.1 143.9 L 410.9 133.1 M 399.6 121.2 L 389.6 115.3 M 462.9 264.4 L 455.5 260.2 M 456.2 248.4 L 458.2 239.8 M 448.8 231.2 L 440.7 226.7 M 438.5 207.3 L 440.7 197.7 M 432.6 193.4 L 423.8 188.5 M 422.2 170.9 L 424.6 160.6 M 414.7 155.8 L 405.3 150.5 M 403.7 133.6 L 406.3 122.6 M 397.6 121.3 L 387.5 115.6 M 469.3 266.4 L 462.3 261.5 M 463.4 248.5 L 466.2 240 M 455.9 225.8 L 448.1 220.5 M 450.5 209.7 L 453.6 200.5 M 445.5 194.5 L 437.2 188.7 M 440.3 178.8 L 443.6 169 M 432.5 155.1 L 423.6 148.9 M 425.7 134.2 L 429.3 123.4 M 420.9 119.3 L 411.3 112.6 M 475.8 265.5 L 469.3 260 M 471.1 246.7 L 474.6 238.6 M 466.4 227.7 L 459.2 221.8 M 461.6 208.5 L 465.4 199.6 M 457.3 191.2 L 449.6 184.9 M 452.8 172.5 L 456.9 162.9 M 447.2 147.5 L 438.8 140.6 M 442.5 126 L 446.9 115.6 M 439.7 113.6 L 430.8 106.2 M 478.8 255.3 L 472.1 249.8 M 475.5 241.4 L 479.1 233.1 M 470.5 219.8 L 463.3 213.8 M 466 200.2 L 469.9 191.2 M 461.6 181.4 L 453.8 174.9 M 459.1 171.2 L 463.2 161.7 M 453 149.7 L 444.7 142.9 M 446.9 128 L 451.3 117.7 M 440.6 105.9 L 431.6 98.4 M 488.3 264.1 L 482.5 257.8 M 486 243.7 L 490.7 236.1 M 483.6 220.1 L 477.2 213.2 M 482.3 208.4 L 487.4 200.2 M 480.2 187.4 L 473.3 179.9 M 478.5 169.2 L 483.9 160.3 M 477 146.8 L 469.7 138.7 M 475.6 125.3 L 481.5 115.6 M 474.9 113.4 L 467.1 104.8 M 492.2 256.7 L 486.7 250.1 M 491.1 238 L 496.1 230.5 M 489.9 218.3 L 483.8 211.1 M 488.9 202.2 L 494.3 194.1 M 487.5 179.9 L 481 172.1 M 486.9 166.2 L 492.7 157.5 M 486.2 146.3 L 479.3 138.1 M 485.7 128.8 L 491.9 119.5 M 484.9 104.1 L 477.4 95.2 M 500.8 253.8 L 495.8 246.9 M 501.1 235.9 L 506.6 228.9 M 501.4 216.9 L 495.9 209.4 M 501.8 191.4 L 507.8 183.7 M 502.1 172.6 L 496.1 164.4 M 502.5 151.3 L 509 143 M 503 134 L 496.7 125.2 M 503.7 112.4 L 510.6 103.5 M 504.2 95.2 L 497.4 85.9 M 508.1 254.4 L 503.5 247 M 509.1 241.7 L 515.1 235.1 M 511.1 218 L 506.2 210.1 M 513 195.9 L 519.5 188.6 M 514.6 177.3 L 509.2 168.7 M 515.8 163.5 L 522.7 155.7 M 517.8 142.2 L 512.1 133 M 520.3 116.3 L 527.9 107.8 M 522.1 98.4 L 515.9 88.5 M 514.8 256.5 L 510.9 248.8 M 518 238.2 L 524.6 232 M 520.5 223.6 L 516.3 215.3 M 524.3 201 L 531.5 194.3 M 527.2 184.1 L 522.7 175 M 530.1 169.2 L 537.7 162.1 M 534.3 150 L 529.4 140.3 M 537.8 133.9 L 545.9 126.3 M 542.6 112 L 537.4 101.6 M 520.8 255.5 L 517.4 247.6 M 523.3 244.9 L 530.1 239.2 M 528.5 222.1 L 524.7 213.5 M 531.7 207.8 L 539.1 201.6 M 535.9 189.5 L 531.9 180.3 M 541.8 165.5 L 549.9 158.8 M 546 150.5 L 541.6 140.6 M 550.7 133.4 L 559.3 126.3 M 556.2 113.5 L 551.6 103 M 526.8 261.4 L 523.9 253.3 M 532 244 L 539.3 238.7 M 535.8 231.2 L 532.7 222.5 M 541.8 211.3 L 549.7 205.7 M 549.2 186.8 L 545.8 177.2 M 552.8 175.5 L 561.2 169.4 M 560.2 154.2 L 556.5 143.9 M 566 137.3 L 575.1 130.7 M 573.5 115.7 L 569.5 104.7 M 530.5 258.8 L 527.7 250.6 M 536.9 238.3 L 544.3 233.1 M 542.1 222 L 539 213.2 M 546.9 206.5 L 554.8 200.9 M 552.8 187.9 L 549.5 178.4 M 558.4 170 L 566.9 164 M 567.1 143.7 L 563.5 133.4 M 571.2 131.3 L 580.2 124.8 M 577.2 113 L 573.4 102.1 M 537.4 260.5 L 534.8 252.2 M 541.4 249.5 L 548.8 244.5 M 550 225.5 L 547.2 216.5 M 553.8 214.8 L 561.9 209.5 M 561.5 193.6 L 558.4 184 M 567 177.7 L 575.7 171.9 M 574.6 153.4 L 571.4 143 M 579.9 136.7 L 589.3 130.5 M 585.9 117.8 L 582.4 106.7 M 546.2 263.5 L 544.5 255 M 555.2 244.9 L 563.2 240.7 M 561.4 231.8 L 559.6 222.7 M 571 211.9 L 579.6 207.4 M 578.8 195.6 L 576.8 185.7 M 585.8 180.8 L 595 176 M 597.3 155.8 L 595.2 145.1 M 604.8 139.7 L 614.7 134.5 M 614.1 119.4 L 611.8 107.9 M 548.2 271.6 L 546.8 263.2 M 558.9 251.7 L 567 247.8 M 567.7 235.2 L 566.2 226 M 578 215.8 L 586.8 211.6 M 584.1 204.3 L 582.5 194.4 M 594.3 184.6 L 603.7 180.1 M 603.5 165.3 L 601.7 154.6 M 610.3 151 L 620.4 146.2 M 621.1 128.7 L 619.2 117.2 M 552.7 273.8 L 551.7 265.2 M 560.6 260.6 L 568.9 257.2 M 571 243.1 L 570 233.8 M 580.2 227.8 L 589.2 224 M 587.7 215.2 L 586.6 205.2 M 597.6 198.1 L 607.3 194.1 M 609.6 176.2 L 608.3 165.3 M 615.6 165.1 L 626 160.8 M 625.1 147.8 L 623.8 136.3 M 559.1 278.8 L 558.9 270.2 M 571.5 261.8 L 580 259.1 M 582.6 246.2 L 582.4 237 M 598.5 224.2 L 607.8 221.2 M 608.8 209.8 L 608.5 199.7 M 620.9 192.1 L 631 188.9 M 632.8 174.3 L 632.5 163.4 M 641.9 160.6 L 652.6 157.1 M 654.9 141 L 654.6 129.3 M 566.6 278 L 566.9 269.4 M 578.4 263.6 L 587.1 261.4 M 594.3 244.2 L 594.7 234.8 M 606.6 229.2 L 616.2 226.9 M 619.5 213.5 L 619.9 203.3 M 629.2 201.5 L 639.4 199 M 643.8 183.2 L 644.2 172.3 M 654.2 170.1 L 665.1 167.5 M 670.7 149.4 L 671.2 137.7 M 572.7 282.1 L 573.7 273.5 M 581.8 272.5 L 590.6 270.9 M 599.2 254 L 600.2 244.6 M 607.4 245.2 L 616.9 243.6 M 620 231.9 L 621.1 221.9 M 637.3 213.2 L 647.7 211.3 M 647.8 201.7 L 649 190.9 M 662.7 185.4 L 673.7 183.4 M 676.8 169.9 L 678 158.3 M 570 290.8 L 571.1 282.4 M 588.5 272.4 L 597.5 271.1 M 599 262 L 600.2 252.7 M 613.6 247.2 L 623.2 245.7 M 626.6 234.1 L 627.9 224.1 M 642.8 217.2 L 653.2 215.6 M 656.2 202.4 L 657.7 191.6 M 666.5 191 L 677.6 189.3 M 678.7 177.7 L 680.2 166.2 M 574.9 295.1 L 577.1 286.9 M 590.4 282.6 L 599.4 282.4 M 602.7 272.8 L 605.2 263.8 M 618.1 260.6 L 627.7 260.4 M 637.4 245.2 L 640 235.4 M 652.2 234 L 662.7 233.8 M 670.2 221 L 673 210.5 M 686 209.6 L 697.3 209.4 M 701 198.8 L 704 187.5 M 578.2 301.1 L 580.8 292.9 M 591.6 291.5 L 600.6 291.7 M 607.8 279.9 L 610.7 271.1 M 624 268.4 L 633.7 268.6 M 639.5 257.3 L 642.6 247.7 M 654.9 246.5 L 665.4 246.8 M 669.1 236.7 L 672.4 226.4 M 688.7 223.2 L 700 223.5 M 699.9 215.5 L 703.4 204.5 M 582.6 303.9 L 585.4 295.8 M 601.5 291.2 L 610.5 291.7 M 616.4 281.2 L 619.5 272.3 M 628 273.4 L 637.7 273.9 M 643.1 263.3 L 646.4 253.7 M 663.2 249.5 L 673.7 250 M 672.7 242.8 L 676.2 232.6 M 689.5 231 L 700.6 231.5 M 708.4 217.6 L 712.2 206.7 M 584.6 310.6 L 587.8 302.6 M 597.4 303 L 606.2 303.9 M 612 294.2 L 615.5 285.6 M 628.8 284.2 L 638.5 285.1 M 648.8 272.2 L 652.6 262.8 M 662 263.9 L 672.5 264.9 M 681.6 250.7 L 685.6 240.6 M 695.6 241.3 L 706.9 242.4 M 712.7 229.8 L 717 218.9 M 590.8 317.4 L 595.1 310 M 610.4 308.9 L 619.1 311.1 M 627.2 301.7 L 631.9 293.8 M 649.4 292.3 L 658.8 294.7 M 666.9 284.9 L 672 276.2 M 682.7 278.3 L 692.8 280.9 M 706.7 269.2 L 712.2 259.8 M 721.5 263.5 L 732.3 266.2 M 742.8 255.4 L 748.7 245.4 M 593.2 320.7 L 597.9 313.5 M 616.7 311.7 L 625.3 314.3 M 631.5 306.1 L 636.6 298.3 M 648.4 299.7 L 657.7 302.4 M 664.8 293.5 L 670.2 285.1 M 687 285.3 L 697.1 288.3 M 708.1 278.2 L 714 269 M 727.7 271.5 L 738.5 274.7 M 749.1 264.2 L 755.5 254.3 M 601.3 322.8 L 605.9 315.5 M 614.7 317.9 L 623.3 320.3 M 632.4 311.3 L 637.3 303.5 M 656.9 302.3 L 666.3 305 M 675.9 295.2 L 681.3 286.7 M 692.1 288.9 L 702.1 291.8 M 714.1 279.8 L 720 270.6 M 730.4 273 L 741.3 276.2 M 746.9 266.3 L 753.1 256.5 M 594.5 332.1 L 599.7 325.4 M 611.6 327.4 L 619.9 330.7 M 636 320.7 L 641.7 313.3 M 656.9 315 L 666 318.6 M 675.5 309.9 L 681.8 301.8 M 690.2 305.9 L 700 309.7 M 711.2 300.1 L 717.9 291.5 M 732.8 294.2 L 743.3 298.3 M 750.8 289.2 L 758 280 M 600.1 338.1 L 606.1 331.9 M 617.2 335.1 L 625.2 339.2 M 637.2 331.6 L 643.6 324.9 M 652.8 328.9 L 661.4 333.4 M 671.9 325.7 L 678.8 318.4 M 695.9 322 L 705.2 326.9 M 718.6 319.2 L 726.2 311.3 M 733.9 317.3 L 743.9 322.5 M 752.2 315.1 L 760.2 306.7 M 600.5 346.7 L 606.9 341.1 M 621 344.9 L 628.5 349.7 M 643.9 342.9 L 651 336.7 M 660 341.6 L 668.1 346.8 M 684.4 339.5 L 692.1 332.8 M 696.2 338.7 L 705 344.4 M 718 338 L 726.1 330.9 M 740.3 337.3 L 749.7 343.4 M 759.3 336.7 L 768.1 329.1 M 600.4 351.3 L 607.1 345.8 M 618.5 350.3 L 626 355.3 M 637.8 349.2 L 645 343.1 M 653.2 348.3 L 661.3 353.7 M 666.2 347.5 L 673.8 341.1 M 689.7 346.3 L 698.4 352.2 M 708.3 345.6 L 716.7 338.6 M 726.6 344.8 L 736 351.1 M 743.6 344.1 L 752.4 336.7" fill="none" stroke="#E4F1FA" stroke-width="1.5" stroke-linecap="round" opacity="0.75"/></g>
<circle cx="500" cy="358" r="22" fill="url(#hub)" stroke="#0B0B14" stroke-width="5"/><circle cx="494" cy="352" r="5" fill="#FFFFFF" opacity="0.8"/>
<g id="motas"><circle cx="392" cy="145" r="4.9" fill="#BFF3FF" opacity="0.7"/><circle cx="565" cy="242" r="5.8" fill="#BFF3FF" opacity="0.7"/><circle cx="331" cy="471" r="5.7" fill="#BFF3FF" opacity="0.7"/><circle cx="461" cy="229" r="3.7" fill="#BFF3FF" opacity="0.7"/><circle cx="403" cy="545" r="6.0" fill="#BFF3FF" opacity="0.7"/><circle cx="626" cy="265" r="4.2" fill="#BFF3FF" opacity="0.7"/><circle cx="553" cy="241" r="4.2" fill="#BFF3FF" opacity="0.7"/><circle cx="604" cy="367" r="4.6" fill="#BFF3FF" opacity="0.7"/><circle cx="428" cy="163" r="4.1" fill="#BFF3FF" opacity="0.7"/><circle cx="700" cy="295" r="3.5" fill="#BFF3FF" opacity="0.7"/><circle cx="768" cy="479" r="6.0" fill="#BFF3FF" opacity="0.7"/><circle cx="680" cy="259" r="3.9" fill="#BFF3FF" opacity="0.7"/><circle cx="602" cy="424" r="3.7" fill="#BFF3FF" opacity="0.7"/><circle cx="747" cy="239" r="5.3" fill="#BFF3FF" opacity="0.7"/><circle cx="570" cy="452" r="3.9" fill="#BFF3FF" opacity="0.7"/><circle cx="594" cy="326" r="5.4" fill="#BFF3FF" opacity="0.7"/></g>
<g id="laire"><line x1="780" y1="140" x2="692.2" y2="261.6" stroke="#FFFFFF" stroke-width="10" stroke-linecap="round" opacity="0.85"/><line x1="780" y1="140" x2="692.2" y2="261.6" stroke="#0B0B14" stroke-width="5" stroke-linecap="round"/><circle cx="692.2" cy="261.6" r="9" fill="#C8FF2E" stroke="#0B0B14" stroke-width="4"/><rect x="706" y="83" width="188" height="58" rx="12" fill="#0B0B14" stroke="#0B0B14" stroke-width="3"/><text x="800" y="122.8" text-anchor="middle" font-family="JetBrains Mono" font-weight="800" font-size="30" fill="#C8FF2E">92% AIRE</text></g>
<g id="lpelo"><line x1="150" y1="492" x2="321" y2="502.4" stroke="#FFFFFF" stroke-width="10" stroke-linecap="round" opacity="0.85"/><line x1="150" y1="492" x2="321" y2="502.4" stroke="#0B0B14" stroke-width="5" stroke-linecap="round"/><circle cx="321" cy="502.4" r="9" fill="#C8FF2E" stroke="#0B0B14" stroke-width="4"/><rect x="62" y="491" width="116" height="58" rx="12" fill="#0B0B14" stroke="#0B0B14" stroke-width="3"/><text x="120" y="530.8" text-anchor="middle" font-family="JetBrains Mono" font-weight="800" font-size="30" fill="#C8FF2E">PELO</text></g>
<g id="escala"><path d="M 870 628 L 910 628" stroke="#FFFFFF" stroke-width="6"/><path d="M 870 620 L 870 636 M 910 620 L 910 636" stroke="#FFFFFF" stroke-width="4"/><text x="890" y="612" text-anchor="middle" font-family="JetBrains Mono" font-weight="800" font-size="22" fill="#FFFFFF">1 MM</text></g>
</svg>