<svg xmlns="http://www.w3.org/2000/svg" viewBox="0 0 1000 700">
<defs><linearGradient id="urnaGlass" x1="0" y1="0" x2="0" y2="1"><stop offset="0" stop-color="#EAF8FF" stop-opacity="0.75"/><stop offset="1" stop-color="#9FD3F2" stop-opacity="0.55"/></linearGradient><linearGradient id="urnaSide" x1="0" y1="0" x2="0" y2="1"><stop offset="0" stop-color="#C4E6FA" stop-opacity="0.7"/><stop offset="1" stop-color="#7DB8DE" stop-opacity="0.6"/></linearGradient><linearGradient id="urnaLid" x1="0" y1="0" x2="0" y2="1"><stop offset="0" stop-color="#5A6B8C"/><stop offset="1" stop-color="#2C3954"/></linearGradient><linearGradient id="paperG" x1="0" y1="0" x2="0" y2="1"><stop offset="0" stop-color="#FFFFFF"/><stop offset="1" stop-color="#EDEFF5"/></linearGradient><linearGradient id="sobreG" x1="0" y1="0" x2="0" y2="1"><stop offset="0" stop-color="#FFFFFF"/><stop offset="1" stop-color="#E3E6EE"/></linearGradient><linearGradient id="woodG" x1="0" y1="0" x2="0" y2="1"><stop offset="0" stop-color="#C98B55"/><stop offset="1" stop-color="#8A5A31"/></linearGradient><radialGradient id="shadowR" cx="0.5" cy="0.5" r="0.5"><stop offset="0" stop-color="#0B0B14" stop-opacity="0.35"/><stop offset="1" stop-color="#0B0B14" stop-opacity="0"/></radialGradient><linearGradient id="certG" x1="0" y1="0" x2="0" y2="1"><stop offset="0" stop-color="#FFFFFF"/><stop offset="1" stop-color="#E6E9F0"/></linearGradient><linearGradient id="yelG" x1="0" y1="0" x2="0" y2="1"><stop offset="0" stop-color="#FFD95A"/><stop offset="1" stop-color="#E8A800"/></linearGradient><linearGradient id="yelS" x1="0" y1="0" x2="0" y2="1"><stop offset="0" stop-color="#D79B00"/><stop offset="1" stop-color="#A87500"/></linearGradient><linearGradient id="dniG" x1="0" y1="0" x2="0" y2="1"><stop offset="0" stop-color="#DCEBFF"/><stop offset="1" stop-color="#A9C6EE"/></linearGradient><linearGradient id="steelG" x1="0" y1="0" x2="0" y2="1"><stop offset="0" stop-color="#9AA6BC"/><stop offset="1" stop-color="#5E6A82"/></linearGradient><linearGradient id="steelD" x1="0" y1="0" x2="0" y2="1"><stop offset="0" stop-color="#6F7B93"/><stop offset="1" stop-color="#3C465C"/></linearGradient><linearGradient id="sacaG" x1="0" y1="0" x2="0" y2="1"><stop offset="0" stop-color="#E9D7A6"/><stop offset="1" stop-color="#BFA36A"/></linearGradient><linearGradient id="kraft" x1="0" y1="0" x2="0" y2="1"><stop offset="0" stop-color="#F4F0E6"/><stop offset="1" stop-color="#DCD5C3"/></linearGradient><linearGradient id="wallO" x1="0" y1="0" x2="0" y2="1"><stop offset="0" stop-color="#FFF4D6"/><stop offset="1" stop-color="#F3DFAE"/></linearGradient><linearGradient id="cntTop" x1="0" y1="0" x2="0" y2="1"><stop offset="0" stop-color="#F7F7FA"/><stop offset="1" stop-color="#C9CDD8"/></linearGradient><linearGradient id="cntFront" x1="0" y1="0" x2="0" y2="1"><stop offset="0" stop-color="#3E63C9"/><stop offset="1" stop-color="#28449A"/></linearGradient><linearGradient id="glassO" x1="0" y1="0" x2="0" y2="1"><stop offset="0" stop-color="#E8F6FF" stop-opacity="0.55"/><stop offset="1" stop-color="#BFE0F5" stop-opacity="0.35"/></linearGradient><linearGradient id="formG" x1="0" y1="0" x2="0" y2="1"><stop offset="0" stop-color="#FFFFFF"/><stop offset="1" stop-color="#EEF0F5"/></linearGradient></defs>
<rect width="1000" height="700" fill="url(#wallO)"/>
<g fill="#EFD9A2" opacity="0.6"><rect x="30" y="0" width="26" height="430"/><rect x="110" y="0" width="26" height="430"/><rect x="190" y="0" width="26" height="430"/><rect x="270" y="0" width="26" height="430"/><rect x="350" y="0" width="26" height="430"/><rect x="430" y="0" width="26" height="430"/><rect x="510" y="0" width="26" height="430"/><rect x="590" y="0" width="26" height="430"/><rect x="670" y="0" width="26" height="430"/><rect x="750" y="0" width="26" height="430"/><rect x="830" y="0" width="26" height="430"/><rect x="910" y="0" width="26" height="430"/><rect x="990" y="0" width="26" height="430"/></g>
<g id="rotulo"><rect x="415" y="62" width="320" height="78" rx="14" fill="#FFC928" stroke="#0B0B14" stroke-width="6"/><g transform="rotate(0 472 101)"><rect x="441" y="80" width="62" height="42" rx="5" fill="#FFFFFF" stroke="#0B0B14" stroke-width="4" stroke-linejoin="round"/><path d="M 445 84 L 472 103.1 L 499 84" fill="none" stroke="#B9BFCC" stroke-width="2.8" stroke-linejoin="round"/></g><text x="624" y="113" text-anchor="middle" font-family="Unbounded" font-weight="900" font-size="32" fill="#0B0B14" >CORREOS</text></g>
<g id="caja"><rect x="712" y="164" width="250" height="280" rx="16" fill="#0B0B14" opacity="0.25"/><rect x="700" y="150" width="250" height="280" rx="16" fill="url(#steelD)" stroke="#0B0B14" stroke-width="7"/><rect x="722" y="172" width="206" height="236" rx="10" fill="url(#steelG)" stroke="#0B0B14" stroke-width="5"/><path d="M 734 190 L 734 370" stroke="#D5DCE8" stroke-width="7" stroke-linecap="round" opacity="0.8"/>
<circle cx="825.0" cy="256.0" r="52" fill="#C9D1DF" stroke="#0B0B14" stroke-width="6"/><circle cx="825.0" cy="256.0" r="34" fill="url(#steelD)" stroke="#0B0B14" stroke-width="5"/>
<g id="rueda"><line x1="855" y1="256" x2="875" y2="256" stroke="#0B0B14" stroke-width="5"/><line x1="851" y1="271" x2="868.3" y2="281" stroke="#0B0B14" stroke-width="5"/><line x1="840" y1="282" x2="850" y2="299.3" stroke="#0B0B14" stroke-width="5"/><line x1="825" y1="286" x2="825" y2="306" stroke="#0B0B14" stroke-width="5"/><line x1="810" y1="282" x2="800" y2="299.3" stroke="#0B0B14" stroke-width="5"/><line x1="799" y1="271" x2="781.7" y2="281" stroke="#0B0B14" stroke-width="5"/><line x1="795" y1="256" x2="775" y2="256" stroke="#0B0B14" stroke-width="5"/><line x1="799" y1="241" x2="781.7" y2="231" stroke="#0B0B14" stroke-width="5"/><line x1="810" y1="230" x2="800" y2="212.7" stroke="#0B0B14" stroke-width="5"/><line x1="825" y1="226" x2="825" y2="206" stroke="#0B0B14" stroke-width="5"/><line x1="840" y1="230" x2="850" y2="212.7" stroke="#0B0B14" stroke-width="5"/><line x1="851" y1="241" x2="868.3" y2="231" stroke="#0B0B14" stroke-width="5"/><path d="M 825.0 256.0 L 825.0 228.0" stroke="#FF5A36" stroke-width="7" stroke-linecap="round"/></g>
<rect x="904" y="260" width="18" height="70" rx="9" fill="#C9D1DF" stroke="#0B0B14" stroke-width="5"/>
<rect x="692" y="200" width="18" height="40" rx="5" fill="#3C465C" stroke="#0B0B14" stroke-width="4"/>
<rect x="692" y="360" width="18" height="40" rx="5" fill="#3C465C" stroke="#0B0B14" stroke-width="4"/>
</g>
<g id="candado"><path d="M 801.0 374 L 801.0 350 C 801.0 318, 849.0 318, 849.0 350 L 849.0 374" fill="none" stroke="#0B0B14" stroke-width="16"/><path d="M 801.0 374 L 801.0 350 C 801.0 318, 849.0 318, 849.0 350 L 849.0 374" fill="none" stroke="#C9D1DF" stroke-width="8"/><rect x="785.0" y="370" width="80" height="64" rx="12" fill="url(#yelG)" stroke="#0B0B14" stroke-width="6"/><circle cx="825.0" cy="396" r="8" fill="#0B0B14"/><path d="M 825.0 398 L 825.0 416" stroke="#0B0B14" stroke-width="7" stroke-linecap="round"/></g>
<g id="saca"><ellipse cx="625" cy="452" rx="72" ry="9.6" fill="#0B0B14" opacity="0.22"/><g transform="rotate(-14 598.6 307)"><rect x="575.8" y="291.4" width="45.6" height="31.2" rx="5" fill="url(#sobreG)" stroke="#0B0B14" stroke-width="4" stroke-linejoin="round"/><path d="M 579.8 295.4 L 598.6 308.6 L 617.4 295.4" fill="none" stroke="#B9BFCC" stroke-width="2.8" stroke-linejoin="round"/></g><g transform="rotate(6 627.4 307)"><rect x="604.6" y="291.4" width="45.6" height="31.2" rx="5" fill="url(#sobreG)" stroke="#0B0B14" stroke-width="4" stroke-linejoin="round"/><path d="M 608.6 295.4 L 627.4 308.6 L 646.2 295.4" fill="none" stroke="#B9BFCC" stroke-width="2.8" stroke-linejoin="round"/></g><g transform="rotate(18 651.4 307)"><rect x="628.6" y="291.4" width="45.6" height="31.2" rx="5" fill="url(#sobreG)" stroke="#0B0B14" stroke-width="4" stroke-linejoin="round"/><path d="M 632.6 295.4 L 651.4 308.6 L 670.2 295.4" fill="none" stroke="#B9BFCC" stroke-width="2.8" stroke-linejoin="round"/></g><path d="M 579.4 316 C 555.4 373, 560.2 448, 589 448 L 661 448 C 689.8 448, 694.6 373, 670.6 316 Z" fill="url(#sacaG)" stroke="#0B0B14" stroke-width="7" stroke-linejoin="round"/><path d="M 577 319 Q 625 337 673 319" fill="none" stroke="#8A6D36" stroke-width="10" stroke-linecap="round"/><path d="M 581.8 346 C 569.8 388, 574.6 430, 589 439" fill="none" stroke="#FFF6DA" stroke-width="7" stroke-linecap="round" opacity="0.8"/><rect x="598.6" y="365.5" width="52.8" height="39" rx="8" fill="#FFC928" stroke="#0B0B14" stroke-width="5"/><g transform="rotate(0 625 385)"><rect x="609.4" y="373.8" width="31.2" height="22.5" rx="5" fill="#FFFFFF" stroke="#0B0B14" stroke-width="3.5" stroke-linejoin="round"/><path d="M 613.4 377.8 L 625 386.1 L 636.6 377.8" fill="none" stroke="#B9BFCC" stroke-width="2.4" stroke-linejoin="round"/></g></g>
<rect x="40" y="170" width="510" height="270" rx="10" fill="#C7B489" opacity="0.35"/>
<g id="mampara"><rect x="40" y="170" width="510" height="270" rx="10" fill="url(#glassO)" stroke="#0B0B14" stroke-width="6"/><path d="M 295 170 L 295 440" stroke="#0B0B14" stroke-width="6"/><path d="M 80 200 L 140 200 L 80 290 Z M 335 200 L 385 200 L 335 270 Z" fill="#FFFFFF" opacity="0.6"/><rect x="140" y="395" width="310" height="45" rx="6" fill="#E9E2CC" stroke="#0B0B14" stroke-width="5"/></g>
<path d="M 0 440 L 1000 440 L 1000 500 L 0 500 Z" fill="url(#cntTop)" stroke="#0B0B14" stroke-width="7" stroke-linejoin="round"/>
<rect x="0" y="500" width="1000" height="200" fill="url(#cntFront)" stroke="#0B0B14" stroke-width="7"/>
<path d="M 10 452 L 990 452" stroke="#FFFFFF" stroke-width="5" stroke-linecap="round" opacity="0.9"/>
<g stroke="#1F3780" stroke-width="5" opacity="0.6"><line x1="250" y1="520" x2="250" y2="700"/><line x1="500" y1="520" x2="500" y2="700"/><line x1="750" y1="520" x2="750" y2="700"/></g>
<g id="form"><g transform="rotate(-6 300 462)"><rect x="205" y="312" width="190" height="170" rx="6" fill="#0B0B14" opacity="0.2" transform="translate(8 8)"/><rect x="205" y="312" width="190" height="170" rx="6" fill="url(#formG)" stroke="#0B0B14" stroke-width="5"/><rect x="205" y="312" width="190" height="34" rx="6" fill="#FFC928" stroke="#0B0B14" stroke-width="4"/><text x="300" y="336" text-anchor="middle" font-family="Unbounded" font-weight="900" font-size="18" fill="#0B0B14" >SOLICITUD</text><path d="M 225 370 L 375 370" stroke="#9AA3B5" stroke-width="6" stroke-linecap="round"/><path d="M 225 394 L 360 394" stroke="#9AA3B5" stroke-width="6" stroke-linecap="round"/><path d="M 225 418 L 375 418" stroke="#9AA3B5" stroke-width="6" stroke-linecap="round"/><path d="M 225 442 L 360 442" stroke="#9AA3B5" stroke-width="6" stroke-linecap="round"/><rect x="225" y="438" width="18" height="18" rx="3" fill="#FFFFFF" stroke="#0B0B14" stroke-width="3"/><path d="M 228 446 L 234 453 L 246 436" fill="none" stroke="#FF5A36" stroke-width="5" stroke-linecap="round"/></g></g>
<g id="dni" transform="rotate(-10 130 455)"><rect x="53" y="411.4" width="170" height="107.1" rx="10.2" fill="#0B0B14" opacity="0.22"/><rect x="45" y="401.4" width="170" height="107.1" rx="10.2" fill="url(#dniG)" stroke="#0B0B14" stroke-width="6"/><rect x="45" y="401.4" width="170" height="21.4" rx="10.2" fill="#3C5FAE" stroke="#0B0B14" stroke-width="5"/><text x="130" y="417.5" text-anchor="middle" font-family="Unbounded" font-weight="900" font-size="13.923" fill="#FFFFFF" >DNI</text><rect x="56.9" y="433.6" width="45.9" height="62.1" rx="6" fill="#EEF2F8" stroke="#0B0B14" stroke-width="4"/><circle cx="79.8" cy="457.2" r="10.1" fill="#7C8AA5"/><path d="M 62.4 495.7 Q 79.8 464.6 97.3 495.7 Z" fill="#7C8AA5"/><rect x="116.4" y="435.7" width="23.8" height="18.2" rx="4" fill="#E2B84C" stroke="#0B0B14" stroke-width="3"/><path d="M 116.4 467.9 L 198 467.9" stroke="#4E5D7A" stroke-width="4.3" stroke-linecap="round"/><path d="M 116.4 480.7 L 181 480.7" stroke="#4E5D7A" stroke-width="4.3" stroke-linecap="round"/><path d="M 116.4 493.6 L 164 493.6" stroke="#4E5D7A" stroke-width="4.3" stroke-linecap="round"/><path d="M 150.4 433.6 L 198 433.6 M 150.4 446.4 L 184.4 446.4" stroke="#4E5D7A" stroke-width="3.7" stroke-linecap="round"/></g>
<g id="sobreE" transform="rotate(5 480 430)"><rect x="395" y="382" width="190" height="124" rx="12" fill="#0B0B14" opacity="0.22"/><rect x="385" y="368" width="190" height="124" rx="12" fill="url(#certG)" stroke="#0B0B14" stroke-width="7"/><path d="M 393 376 L 480 430 L 567 376" fill="none" stroke="#C3C8D4" stroke-width="5" stroke-linejoin="round"/><path d="M 403 474 L 451.5 444.9 M 557 474 L 508.5 444.9" stroke="#D3D7E0" stroke-width="4" stroke-linecap="round"/><path d="M 457.2 439.9 L 537 439.9" stroke="#8A93A6" stroke-width="4" stroke-linecap="round"/><path d="M 457.2 453.6 L 521.8 453.6" stroke="#8A93A6" stroke-width="4" stroke-linecap="round"/><path d="M 457.2 467.2 L 506.6 467.2" stroke="#8A93A6" stroke-width="4" stroke-linecap="round"/><rect x="396.4" y="382.9" width="110.2" height="24.8" rx="6" fill="#FF5A36" stroke="#0B0B14" stroke-width="4"/><text x="451.5" y="400.2" text-anchor="middle" font-family="Unbounded" font-weight="900" font-size="13.6" fill="#FFFFFF" >VOTO</text><path d="M 399 384 L 399 430" stroke="#FFFFFF" stroke-width="6" stroke-linecap="round" opacity="0.9"/></g>
<g id="sello"><g transform="rotate(-10 480 420)"><rect x="380.5" y="401.3" width="199" height="37.4" rx="10" fill="#FFFFFF" fill-opacity="0.92" stroke="#FF5A36" stroke-width="7"/><rect x="388.5" y="409.3" width="183" height="21.4" rx="6" fill="none" stroke="#FF5A36" stroke-width="3"/><text x="480" y="427.9" text-anchor="middle" font-family="Unbounded" font-weight="900" font-size="22" fill="#FF5A36" >CERTIFICADO</text></g></g>
<g id="l19"><rect x="111" y="221" width="368" height="58" rx="12" fill="#0B0B14" stroke="#0B0B14" stroke-width="3"/><text x="295" y="260.8" text-anchor="middle" font-family="JetBrains Mono" font-weight="800" font-size="30" fill="#C8FF2E" >PIDE: HASTA 19 NOV</text></g>
<g id="l25"><rect x="97" y="221" width="396" height="58" rx="12" fill="#0B0B14" stroke="#0B0B14" stroke-width="3"/><text x="295" y="260.1" text-anchor="middle" font-family="JetBrains Mono" font-weight="800" font-size="28" fill="#C8FF2E" >ENTREGA: HASTA 25 NOV</text></g>
<g id="lgratis"><rect x="404" y="301" width="152" height="58" rx="12" fill="#C8FF2E" stroke="#0B0B14" stroke-width="3"/><text x="480" y="340.8" text-anchor="middle" font-family="JetBrains Mono" font-weight="800" font-size="30" fill="#0B0B14" >GRATIS</text></g>
<g id="lcust"><rect x="731" y="76" width="188" height="58" rx="12" fill="#FF5A36" stroke="#0B0B14" stroke-width="3"/><text x="825" y="115.8" text-anchor="middle" font-family="JetBrains Mono" font-weight="800" font-size="30" fill="#FFFFFF" >CUSTODIA</text></g>
</svg>