<svg xmlns="http://www.w3.org/2000/svg" viewBox="0 0 1000 1000">
<defs><linearGradient id="urnaGlass" x1="0" y1="0" x2="0" y2="1"><stop offset="0" stop-color="#EAF8FF" stop-opacity="0.75"/><stop offset="1" stop-color="#9FD3F2" stop-opacity="0.55"/></linearGradient><linearGradient id="urnaSide" x1="0" y1="0" x2="0" y2="1"><stop offset="0" stop-color="#C4E6FA" stop-opacity="0.7"/><stop offset="1" stop-color="#7DB8DE" stop-opacity="0.6"/></linearGradient><linearGradient id="urnaLid" x1="0" y1="0" x2="0" y2="1"><stop offset="0" stop-color="#5A6B8C"/><stop offset="1" stop-color="#2C3954"/></linearGradient><linearGradient id="paperG" x1="0" y1="0" x2="0" y2="1"><stop offset="0" stop-color="#FFFFFF"/><stop offset="1" stop-color="#EDEFF5"/></linearGradient><linearGradient id="sobreG" x1="0" y1="0" x2="0" y2="1"><stop offset="0" stop-color="#FFFFFF"/><stop offset="1" stop-color="#E3E6EE"/></linearGradient><linearGradient id="woodG" x1="0" y1="0" x2="0" y2="1"><stop offset="0" stop-color="#C98B55"/><stop offset="1" stop-color="#8A5A31"/></linearGradient><radialGradient id="shadowR" cx="0.5" cy="0.5" r="0.5"><stop offset="0" stop-color="#0B0B14" stop-opacity="0.35"/><stop offset="1" stop-color="#0B0B14" stop-opacity="0"/></radialGradient><linearGradient id="certG" x1="0" y1="0" x2="0" y2="1"><stop offset="0" stop-color="#FFFFFF"/><stop offset="1" stop-color="#E6E9F0"/></linearGradient><linearGradient id="yelG" x1="0" y1="0" x2="0" y2="1"><stop offset="0" stop-color="#FFD95A"/><stop offset="1" stop-color="#E8A800"/></linearGradient><linearGradient id="yelS" x1="0" y1="0" x2="0" y2="1"><stop offset="0" stop-color="#D79B00"/><stop offset="1" stop-color="#A87500"/></linearGradient><linearGradient id="dniG" x1="0" y1="0" x2="0" y2="1"><stop offset="0" stop-color="#DCEBFF"/><stop offset="1" stop-color="#A9C6EE"/></linearGradient><linearGradient id="steelG" x1="0" y1="0" x2="0" y2="1"><stop offset="0" stop-color="#9AA6BC"/><stop offset="1" stop-color="#5E6A82"/></linearGradient><linearGradient id="steelD" x1="0" y1="0" x2="0" y2="1"><stop offset="0" stop-color="#6F7B93"/><stop offset="1" stop-color="#3C465C"/></linearGradient><linearGradient id="sacaG" x1="0" y1="0" x2="0" y2="1"><stop offset="0" stop-color="#E9D7A6"/><stop offset="1" stop-color="#BFA36A"/></linearGradient><linearGradient id="kraft" x1="0" y1="0" x2="0" y2="1"><stop offset="0" stop-color="#F4F0E6"/><stop offset="1" stop-color="#DCD5C3"/></linearGradient><linearGradient id="papG" x1="0" y1="0" x2="0" y2="1"><stop offset="0" stop-color="#FFFFFF"/><stop offset="1" stop-color="#ECEEF4"/></linearGradient><linearGradient id="vioG" x1="0" y1="0" x2="0" y2="1"><stop offset="0" stop-color="#9B6BFF"/><stop offset="1" stop-color="#6A3FD6"/></linearGradient></defs>
<g id="paquete" transform="rotate(-4 500 470)"><rect x="240" y="314" width="540" height="340" rx="12" fill="#0B0B14" opacity="0.22"/><rect x="230" y="300" width="540" height="340" rx="12" fill="url(#certG)" stroke="#0B0B14" stroke-width="7"/><path d="M 238 308 L 500 470 L 762 308" fill="none" stroke="#C3C8D4" stroke-width="5" stroke-linejoin="round"/><path d="M 248 622 L 419 510.8 M 752 622 L 581 510.8" stroke="#D3D7E0" stroke-width="4" stroke-linecap="round"/><rect x="662" y="334" width="70.2" height="84.2" rx="4" fill="#C8FF2E" stroke="#0B0B14" stroke-width="4" stroke-dasharray="6 4"/><circle cx="644.5" cy="383.1" r="38.6" fill="none" stroke="#6B7280" stroke-width="3" opacity="0.8"/><path d="M 435.2 497.2 L 662 497.2" stroke="#8A93A6" stroke-width="10.2" stroke-linecap="round"/><path d="M 435.2 534.6 L 618.8 534.6" stroke="#8A93A6" stroke-width="10.2" stroke-linecap="round"/><path d="M 435.2 572 L 575.6 572" stroke="#8A93A6" stroke-width="10.2" stroke-linecap="round"/><rect x="262.4" y="340.8" width="313.2" height="68" rx="6" fill="#FF5A36" stroke="#0B0B14" stroke-width="4"/><text x="419" y="386" text-anchor="middle" font-family="Unbounded" font-weight="900" font-size="31.1" fill="#FFFFFF" >CERTIFICADO</text><path d="M 244 316 L 244 470" stroke="#FFFFFF" stroke-width="6" stroke-linecap="round" opacity="0.9"/></g>
<g id="l9"><rect x="335.5" y="161" width="329" height="58" rx="12" fill="#0B0B14" stroke="#0B0B14" stroke-width="3"/><text x="500" y="202.2" text-anchor="middle" font-family="JetBrains Mono" font-weight="800" font-size="34" fill="#C8FF2E" >DESDE EL 9 NOV</text></g>
<g id="dniB" transform="rotate(8 740 790)"><rect x="618" y="718.1" width="260" height="163.8" rx="15.6" fill="#0B0B14" opacity="0.22"/><rect x="610" y="708.1" width="260" height="163.8" rx="15.6" fill="url(#dniG)" stroke="#0B0B14" stroke-width="6"/><rect x="610" y="708.1" width="260" height="32.8" rx="15.6" fill="#3C5FAE" stroke="#0B0B14" stroke-width="5"/><text x="740" y="732.7" text-anchor="middle" font-family="Unbounded" font-weight="900" font-size="21.294" fill="#FFFFFF" >DNI</text><rect x="628.2" y="757.2" width="70.2" height="95" rx="6" fill="#EEF2F8" stroke="#0B0B14" stroke-width="4"/><circle cx="663.3" cy="793.3" r="15.4" fill="#7C8AA5"/><path d="M 636.6 852.2 Q 663.3 804.7 690 852.2 Z" fill="#7C8AA5"/><rect x="719.2" y="760.5" width="36.4" height="27.8" rx="4" fill="#E2B84C" stroke="#0B0B14" stroke-width="3"/><path d="M 719.2 809.7 L 844 809.7" stroke="#4E5D7A" stroke-width="6.6" stroke-linecap="round"/><path d="M 719.2 829.3 L 818 829.3" stroke="#4E5D7A" stroke-width="6.6" stroke-linecap="round"/><path d="M 719.2 849 L 792 849" stroke="#4E5D7A" stroke-width="6.6" stroke-linecap="round"/><path d="M 771.2 757.2 L 844 757.2 M 771.2 776.9 L 823.2 776.9" stroke="#4E5D7A" stroke-width="5.7" stroke-linecap="round"/></g>
<g id="chk"><circle cx="890" cy="690" r="46" fill="#C8FF2E" stroke="#0B0B14" stroke-width="6"/><path d="M 869.3 690 L 885.4 707.5 L 913 672.5" fill="none" stroke="#0B0B14" stroke-width="10.1" stroke-linecap="round" stroke-linejoin="round"/></g>
<g id="lsolo"><rect x="216.5" y="771" width="227" height="58" rx="12" fill="#FF5A36" stroke="#0B0B14" stroke-width="3"/><text x="330" y="812.2" text-anchor="middle" font-family="JetBrains Mono" font-weight="800" font-size="34" fill="#FFFFFF" >SOLO A TI</text></g>
<g id="papeleta"><rect x="128.0" y="160.0" width="220" height="300" rx="8" fill="#0B0B14" opacity="0.2"/><rect x="120.0" y="150.0" width="220" height="300" rx="8" fill="url(#papG)" stroke="#0B0B14" stroke-width="6"/><rect x="120.0" y="150.0" width="220" height="60" rx="8" fill="url(#vioG)" stroke="#0B0B14" stroke-width="5"/><circle cx="154.0" cy="180.0" r="16" fill="#FFFFFF" stroke="#0B0B14" stroke-width="4"/><path d="M 184.0 172.0 L 320.0 172.0" stroke="#FFFFFF" stroke-width="7" stroke-linecap="round"/><path d="M 184.0 188.0 L 290.0 188.0" stroke="#FFFFFF" stroke-width="7" stroke-linecap="round"/><circle cx="150.0" cy="246.0" r="7" fill="#9AA3B5"/><path d="M 170.0 246.0 L 294.0 246.0" stroke="#9AA3B5" stroke-width="7" stroke-linecap="round"/><circle cx="150.0" cy="286.0" r="7" fill="#9AA3B5"/><path d="M 170.0 286.0 L 314.0 286.0" stroke="#9AA3B5" stroke-width="7" stroke-linecap="round"/><circle cx="150.0" cy="326.0" r="7" fill="#9AA3B5"/><path d="M 170.0 326.0 L 294.0 326.0" stroke="#9AA3B5" stroke-width="7" stroke-linecap="round"/><circle cx="150.0" cy="366.0" r="7" fill="#9AA3B5"/><path d="M 170.0 366.0 L 314.0 366.0" stroke="#9AA3B5" stroke-width="7" stroke-linecap="round"/><circle cx="150.0" cy="406.0" r="7" fill="#9AA3B5"/><path d="M 170.0 406.0 L 294.0 406.0" stroke="#9AA3B5" stroke-width="7" stroke-linecap="round"/><path d="M 132.0 224.0 L 132.0 434.0" stroke="#FFFFFF" stroke-width="6" stroke-linecap="round"/></g>
<g id="lpap"><rect x="136" y="81" width="188" height="58" rx="12" fill="#0B0B14" stroke="#0B0B14" stroke-width="3"/><text x="230" y="120.8" text-anchor="middle" font-family="JetBrains Mono" font-weight="800" font-size="30" fill="#C8FF2E" >PAPELETA</text></g>
<g id="sobrev"><ellipse cx="758" cy="418" rx="160" ry="14" fill="#0B0B14" opacity="0.2"/><g transform="rotate(0 750 300)"><rect x="600" y="200" width="300" height="200" rx="5" fill="url(#sobreG)" stroke="#0B0B14" stroke-width="7" stroke-linejoin="round"/><path d="M 604 204 L 750 310 L 896 204" fill="none" stroke="#B9BFCC" stroke-width="4.9" stroke-linejoin="round"/></g><text x="750" y="370" text-anchor="middle" font-family="Unbounded" font-weight="900" font-size="24" fill="#5A6170" >CONGRESO</text></g>
<g id="lvot"><rect x="595.5" y="96" width="309" height="48" rx="12" fill="#0B0B14" stroke="#0B0B14" stroke-width="3"/><text x="750" y="129.4" text-anchor="middle" font-family="JetBrains Mono" font-weight="800" font-size="26" fill="#C8FF2E" >SOBRE DE VOTACIÓN</text></g>
<g id="a1"><path d="M 360 300 L 575 300" fill="none" stroke="#0B0B14" stroke-width="21" stroke-linecap="round" stroke-linejoin="round"/><path d="M 360 300 L 575 300" fill="none" stroke="#C8FF2E" stroke-width="12" stroke-linecap="round" stroke-linejoin="round"/><path d="M 548.7 314.4 L 575 300 L 548.7 285.6" fill="none" stroke="#0B0B14" stroke-width="21" stroke-linecap="round" stroke-linejoin="round"/><path d="M 548.7 314.4 L 575 300 L 548.7 285.6" fill="none" stroke="#C8FF2E" stroke-width="12" stroke-linecap="round" stroke-linejoin="round"/></g>
<g id="cert"><g transform="rotate(-5 220 730)"><rect x="103.0" y="650.0" width="250" height="180" rx="8" fill="#0B0B14" opacity="0.2"/><rect x="95.0" y="640.0" width="250" height="180" rx="8" fill="url(#kraft)" stroke="#0B0B14" stroke-width="6"/><text x="220" y="680" text-anchor="middle" font-family="Unbounded" font-weight="900" font-size="22" fill="#0B0B14" >CERTIFICADO</text><text x="220" y="710" text-anchor="middle" font-family="JetBrains Mono" font-weight="800" font-size="20" fill="#5A6170" >DEL CENSO</text><path d="M 119.0 730 L 275.0 730" stroke="#9AA3B5" stroke-width="6" stroke-linecap="round"/><path d="M 119.0 756 L 315.0 756" stroke="#9AA3B5" stroke-width="6" stroke-linecap="round"/><path d="M 119.0 782 L 275.0 782" stroke="#9AA3B5" stroke-width="6" stroke-linecap="round"/><circle cx="305.0" cy="778" r="22" fill="none" stroke="#FF5A36" stroke-width="5"/></g></g>
<g id="sobremesa" transform="rotate(3 670 770)"><rect x="460" y="644" width="440" height="280" rx="12" fill="#0B0B14" opacity="0.22"/><rect x="450" y="630" width="440" height="280" rx="12" fill="url(#certG)" stroke="#0B0B14" stroke-width="7"/><path d="M 458 638 L 670 770 L 882 638" fill="none" stroke="#C3C8D4" stroke-width="5" stroke-linejoin="round"/><path d="M 468 892 L 604 803.6 M 872 892 L 736 803.6" stroke="#D3D7E0" stroke-width="4" stroke-linecap="round"/><path d="M 617.2 792.4 L 802 792.4" stroke="#8A93A6" stroke-width="8.4" stroke-linecap="round"/><path d="M 617.2 823.2 L 766.8 823.2" stroke="#8A93A6" stroke-width="8.4" stroke-linecap="round"/><path d="M 617.2 854 L 731.6 854" stroke="#8A93A6" stroke-width="8.4" stroke-linecap="round"/><rect x="476.4" y="663.6" width="255.2" height="56" rx="6" fill="#FF5A36" stroke="#0B0B14" stroke-width="4"/><text x="604" y="702.7" text-anchor="middle" font-family="Unbounded" font-weight="900" font-size="30.8" fill="#FFFFFF" >A LA MESA</text><path d="M 464 646 L 464 770" stroke="#FFFFFF" stroke-width="6" stroke-linecap="round" opacity="0.9"/></g>
<g id="a2"><path d="M 750 430 Q 760 530 700 600" fill="none" stroke="#0B0B14" stroke-width="21" stroke-linecap="round" stroke-linejoin="round"/><path d="M 750 430 Q 760 530 700 600" fill="none" stroke="#C8FF2E" stroke-width="12" stroke-linecap="round" stroke-linejoin="round"/><path d="M 706.2 570.7 L 700 600 L 728.1 589.4" fill="none" stroke="#0B0B14" stroke-width="21" stroke-linecap="round" stroke-linejoin="round"/><path d="M 706.2 570.7 L 700 600 L 728.1 589.4" fill="none" stroke="#C8FF2E" stroke-width="12" stroke-linecap="round" stroke-linejoin="round"/></g>
<g id="a3"><path d="M 360 730 L 440 750" fill="none" stroke="#0B0B14" stroke-width="21" stroke-linecap="round" stroke-linejoin="round"/><path d="M 360 730 L 440 750" fill="none" stroke="#C8FF2E" stroke-width="12" stroke-linecap="round" stroke-linejoin="round"/><path d="M 414.8 756.6 L 440 750 L 420.9 732.4" fill="none" stroke="#0B0B14" stroke-width="21" stroke-linecap="round" stroke-linejoin="round"/><path d="M 414.8 756.6 L 440 750 L 420.9 732.4" fill="none" stroke="#C8FF2E" stroke-width="12" stroke-linecap="round" stroke-linejoin="round"/></g>
</svg>