<svg xmlns="http://www.w3.org/2000/svg" viewBox="0 0 1000 700">
  <rect width="1000" height="700" fill="#DDF3FF"/>
  <g id="convex"><path d="M 230 430 Q 500 210 770 430" stroke="#0B0B14" stroke-width="44" fill="none" stroke-linecap="round"/><path d="M 230 430 Q 500 210 770 430" stroke="#FF5A36" stroke-width="28" fill="none" stroke-linecap="round"/></g>
  <g id="concave"><path d="M 230 370 Q 500 590 770 370" stroke="#0B0B14" stroke-width="44" fill="none" stroke-linecap="round"/><path d="M 230 370 Q 500 590 770 370" stroke="#FF5A36" stroke-width="28" fill="none" stroke-linecap="round"/></g>
  <g id="flip"><path d="M 500 250 L 500 420" stroke="#0B0B14" stroke-width="12" fill="none" stroke-linecap="round"/><path d="M 470 390 L 500 430 L 530 390" stroke="#0B0B14" stroke-width="12" fill="none" stroke-linecap="round" stroke-linejoin="round"/></g>
  <g id="clac"><polygon points="820,220 845,265 895,250 870,295 915,320 865,330 875,380 830,350 795,390 790,340 740,330 785,300 760,255 805,268" fill="#C8FF2E" stroke="#0B0B14" stroke-width="7" stroke-linejoin="round"/><text x="828" y="318" text-anchor="middle" font-family="JetBrains Mono" font-weight="800" font-size="34" fill="#0B0B14">CLAC</text></g>
  <g font-family="JetBrains Mono" font-weight="800" font-size="30">
    <g id="l1"><rect x="80" y="160" width="190" height="48" rx="8" fill="#0B0B14"/><text x="175" y="194" text-anchor="middle" fill="#C8FF2E">ABIERTA</text></g>
    <g id="l2"><rect x="80" y="520" width="190" height="48" rx="8" fill="#0B0B14"/><text x="175" y="554" text-anchor="middle" fill="#C8FF2E">CERRADA</text></g>
  </g>
</svg>
