<svg xmlns="http://www.w3.org/2000/svg" viewBox="0 0 1000 700">
  <rect width="1000" height="700" fill="#DDF3FF"/>
  <circle cx="140" cy="120" r="54" fill="#C8FF2E" stroke="#0B0B14" stroke-width="7"/>
  <path d="M 0 640 Q 250 620 500 640 T 1000 630 L 1000 700 L 0 700 Z" fill="#C98B4A" stroke="#0B0B14" stroke-width="7"/>
  <g id="leaves"><path d="M 440 640 Q 300 600 250 520 Q 340 540 445 620 Z" fill="#36B37E" stroke="#0B0B14" stroke-width="7"/><path d="M 470 640 Q 620 610 690 540 Q 590 550 470 620 Z" fill="#36B37E" stroke="#0B0B14" stroke-width="7"/></g>
  <path d="M 430 410 Q 470 520 455 640" stroke="#0B0B14" stroke-width="30" fill="none" stroke-linecap="round"/>
  <path d="M 430 410 Q 470 520 455 640" stroke="#7BE07B" stroke-width="16" fill="none" stroke-linecap="round"/>
  <g id="zap" fill="#C8FF2E" stroke="#0B0B14" stroke-width="5" stroke-linejoin="round">
    <path d="M 360 360 L 335 400 L 355 400 L 340 440 L 385 390 L 362 390 Z"/><path d="M 395 470 L 372 500 L 390 500 L 378 532 L 418 492 L 398 492 Z"/>
  </g>
  <g id="lobebot">
    <path d="M 420 410 Q 520 560 720 540 L 735 510 Q 560 510 430 405 Z" fill="#FF5A36" stroke="#0B0B14" stroke-width="8" stroke-linejoin="round"/>
    <g stroke="#36B37E" stroke-width="7" stroke-linecap="round"><line x1="489" y1="485" x2="480" y2="520"/><line x1="545" y1="517" x2="540" y2="555"/><line x1="609" y1="537" x2="610" y2="575"/><line x1="681" y1="542" x2="690" y2="580"/></g>
    <g id="hair1"><line x1="560" y1="500" x2="568" y2="470" stroke="#0B0B14" stroke-width="5" stroke-linecap="round"/></g>
    <g id="hair2"><line x1="640" y1="512" x2="648" y2="484" stroke="#0B0B14" stroke-width="5" stroke-linecap="round"/></g>
  </g>
  <g id="lobetop">
    <path d="M 420 400 Q 520 250 720 270 L 735 300 Q 560 300 430 405 Z" fill="#FF5A36" stroke="#0B0B14" stroke-width="8" stroke-linejoin="round"/>
    <g stroke="#36B37E" stroke-width="7" stroke-linecap="round"><line x1="489" y1="325" x2="480" y2="290"/><line x1="545" y1="292" x2="540" y2="255"/><line x1="609" y1="273" x2="610" y2="235"/><line x1="681" y1="268" x2="690" y2="230"/></g>
  </g>
  <g id="fly">
    <g transform="translate(860 200)">
      <g id="wings"><ellipse cx="-6" cy="-26" rx="16" ry="26" transform="rotate(-25 -6 -26)" fill="#FFFFFF" stroke="#0B0B14" stroke-width="5"/><ellipse cx="14" cy="-24" rx="14" ry="24" transform="rotate(20 14 -24)" fill="#FFFFFF" stroke="#0B0B14" stroke-width="5"/></g>
      <ellipse cx="0" cy="0" rx="34" ry="20" fill="#3A3A4A" stroke="#0B0B14" stroke-width="6"/>
      <circle cx="-30" cy="-4" r="13" fill="#FF5A36" stroke="#0B0B14" stroke-width="5"/>
      <g stroke="#0B0B14" stroke-width="4" stroke-linecap="round"><line x1="-12" y1="16" x2="-20" y2="34"/><line x1="4" y1="18" x2="2" y2="36"/><line x1="18" y1="16" x2="24" y2="32"/></g>
    </g>
  </g>
  <g id="drop"><path d="M 600 60 Q 625 100 625 115 A 25 25 0 0 1 575 115 Q 575 100 600 60 Z" fill="#4FB3FF" stroke="#0B0B14" stroke-width="6"/></g>
  <g font-family="JetBrains Mono" font-weight="800" font-size="34">
    <g id="n1"><circle cx="560" cy="430" r="28" fill="#C8FF2E" stroke="#0B0B14" stroke-width="6"/><text x="560" y="442" text-anchor="middle" fill="#0B0B14">1</text></g>
    <g id="n2"><circle cx="648" cy="440" r="28" fill="#C8FF2E" stroke="#0B0B14" stroke-width="6"/><text x="648" y="452" text-anchor="middle" fill="#0B0B14">2</text></g>
  </g>
</svg>
