<svg xmlns="http://www.w3.org/2000/svg" viewBox="0 0 1000 700">
<defs><linearGradient id="urnaGlass" x1="0" y1="0" x2="0" y2="1"><stop offset="0" stop-color="#EAF8FF" stop-opacity="0.75"/><stop offset="1" stop-color="#9FD3F2" stop-opacity="0.55"/></linearGradient><linearGradient id="urnaSide" x1="0" y1="0" x2="0" y2="1"><stop offset="0" stop-color="#C4E6FA" stop-opacity="0.7"/><stop offset="1" stop-color="#7DB8DE" stop-opacity="0.6"/></linearGradient><linearGradient id="urnaLid" x1="0" y1="0" x2="0" y2="1"><stop offset="0" stop-color="#5A6B8C"/><stop offset="1" stop-color="#2C3954"/></linearGradient><linearGradient id="paperG" x1="0" y1="0" x2="0" y2="1"><stop offset="0" stop-color="#FFFFFF"/><stop offset="1" stop-color="#EDEFF5"/></linearGradient><linearGradient id="sobreG" x1="0" y1="0" x2="0" y2="1"><stop offset="0" stop-color="#FFFFFF"/><stop offset="1" stop-color="#E3E6EE"/></linearGradient><linearGradient id="woodG" x1="0" y1="0" x2="0" y2="1"><stop offset="0" stop-color="#C98B55"/><stop offset="1" stop-color="#8A5A31"/></linearGradient><radialGradient id="shadowR" cx="0.5" cy="0.5" r="0.5"><stop offset="0" stop-color="#0B0B14" stop-opacity="0.35"/><stop offset="1" stop-color="#0B0B14" stop-opacity="0"/></radialGradient><linearGradient id="certG" x1="0" y1="0" x2="0" y2="1"><stop offset="0" stop-color="#FFFFFF"/><stop offset="1" stop-color="#E6E9F0"/></linearGradient><linearGradient id="yelG" x1="0" y1="0" x2="0" y2="1"><stop offset="0" stop-color="#FFD95A"/><stop offset="1" stop-color="#E8A800"/></linearGradient><linearGradient id="yelS" x1="0" y1="0" x2="0" y2="1"><stop offset="0" stop-color="#D79B00"/><stop offset="1" stop-color="#A87500"/></linearGradient><linearGradient id="dniG" x1="0" y1="0" x2="0" y2="1"><stop offset="0" stop-color="#DCEBFF"/><stop offset="1" stop-color="#A9C6EE"/></linearGradient><linearGradient id="steelG" x1="0" y1="0" x2="0" y2="1"><stop offset="0" stop-color="#9AA6BC"/><stop offset="1" stop-color="#5E6A82"/></linearGradient><linearGradient id="steelD" x1="0" y1="0" x2="0" y2="1"><stop offset="0" stop-color="#6F7B93"/><stop offset="1" stop-color="#3C465C"/></linearGradient><linearGradient id="sacaG" x1="0" y1="0" x2="0" y2="1"><stop offset="0" stop-color="#E9D7A6"/><stop offset="1" stop-color="#BFA36A"/></linearGradient><linearGradient id="kraft" x1="0" y1="0" x2="0" y2="1"><stop offset="0" stop-color="#F4F0E6"/><stop offset="1" stop-color="#DCD5C3"/></linearGradient><linearGradient id="woodH" x1="0" y1="0" x2="0" y2="1"><stop offset="0" stop-color="#D9A46C"/><stop offset="1" stop-color="#9C6334"/></linearGradient><linearGradient id="carpet" x1="0" y1="0" x2="0" y2="1"><stop offset="0" stop-color="#D2453B"/><stop offset="1" stop-color="#9E2A24"/></linearGradient><linearGradient id="envF" x1="0" y1="0" x2="0" y2="1"><stop offset="0" stop-color="#FFFFFF"/><stop offset="1" stop-color="#E4E7EF"/></linearGradient><linearGradient id="envIn" x1="0" y1="0" x2="0" y2="1"><stop offset="0" stop-color="#8E96A8"/><stop offset="1" stop-color="#C9CEDA"/></linearGradient><linearGradient id="paperB" x1="0" y1="0" x2="0" y2="1"><stop offset="0" stop-color="#FFFFFF"/><stop offset="1" stop-color="#F1F2F6"/></linearGradient><linearGradient id="cardG" x1="0" y1="0" x2="0" y2="1"><stop offset="0" stop-color="#FFFFFF"/><stop offset="1" stop-color="#EEF1F6"/></linearGradient><linearGradient id="poleG" x1="0" y1="0" x2="1" y2="0"><stop offset="0" stop-color="#F4F6FA"/><stop offset="1" stop-color="#9AA6BC"/></linearGradient><linearGradient id="colG" x1="0" y1="0" x2="1" y2="0"><stop offset="0" stop-color="#D5DAE6"/><stop offset="1" stop-color="#7D879C"/></linearGradient><linearGradient id="sofaG" x1="0" y1="0" x2="0" y2="1"><stop offset="0" stop-color="#7FB2FF"/><stop offset="1" stop-color="#3E6FD1"/></linearGradient><linearGradient id="sofaD" x1="0" y1="0" x2="0" y2="1"><stop offset="0" stop-color="#4F82DE"/><stop offset="1" stop-color="#2C55A8"/></linearGradient><linearGradient id="bgG" x1="0" y1="0" x2="0" y2="1"><stop offset="0" stop-color="#F4F7FF"/><stop offset="1" stop-color="#E3EAF8"/></linearGradient><linearGradient id="winG" x1="0" y1="0" x2="0" y2="1"><stop offset="0" stop-color="#C8FF2E"/><stop offset="1" stop-color="#C8FF2E"/></linearGradient></defs>
<rect width="1000" height="700" fill="url(#bgG)"/>
<g stroke="#C9D3E8" stroke-width="2"><line x1="211.2" y1="120" x2="211.2" y2="590"/><line x1="312.5" y1="120" x2="312.5" y2="590"/><line x1="413.8" y1="120" x2="413.8" y2="590"/><line x1="515" y1="120" x2="515" y2="590"/><line x1="616.2" y1="120" x2="616.2" y2="590"/><line x1="717.5" y1="120" x2="717.5" y2="590"/><line x1="818.8" y1="120" x2="818.8" y2="590"/><line x1="920" y1="120" x2="920" y2="590"/></g>
<line x1="110" y1="470" x2="930" y2="470" stroke="#C9D3E8" stroke-width="2" stroke-dasharray="8 8"/>
<line x1="110" y1="210" x2="930" y2="210" stroke="#C9D3E8" stroke-width="2" stroke-dasharray="8 8"/>
<g id="ventana"><rect x="370.4" y="120" width="433.9" height="470" fill="#C8FF2E" opacity="0.35"/><path d="M 370.4 120 L 370.4 590 M 804.3 120 L 804.3 590" stroke="#6E8F0A" stroke-width="4" stroke-dasharray="10 7"/></g>
<g id="t30"><rect x="439.3" y="123" width="296" height="58" rx="12" fill="#0B0B14" stroke="#0B0B14" stroke-width="3"/><text x="587.3" y="162.1" text-anchor="middle" font-family="JetBrains Mono" font-weight="800" font-size="28" fill="#C8FF2E" >ÚLTIMOS 30 DÍAS</text></g>
<path d="M 110 100 L 110 590 L 950 590" fill="none" stroke="#0B0B14" stroke-width="7" stroke-linecap="round" stroke-linejoin="round"/>
<text x="96" y="480" text-anchor="end" font-family="JetBrains Mono" font-weight="800" font-size="28" fill="#0B0B14" >50</text>
<text x="96" y="220" text-anchor="end" font-family="JetBrains Mono" font-weight="800" font-size="28" fill="#0B0B14" >100</text>
<text x="96" y="120" text-anchor="end" font-family="JetBrains Mono" font-weight="800" font-size="30" fill="#0B0B14" >€</text>
<text x="530" y="642" text-anchor="middle" font-family="JetBrains Mono" font-weight="800" font-size="26" fill="#5A6380" >SEMANAS →</text>
<g id="l1"><path d="M 110 470 L 601.8 470" fill="none" stroke="#0B0B14" stroke-width="20" stroke-linecap="round" stroke-linejoin="round"/><path d="M 110 470 L 601.8 470" fill="none" stroke="#2EC4B6" stroke-width="11" stroke-linecap="round" stroke-linejoin="round"/></g>
<g id="l2"><path d="M 601.8 470 L 601.8 210 L 804.3 210" fill="none" stroke="#0B0B14" stroke-width="20" stroke-linecap="round" stroke-linejoin="round"/><path d="M 601.8 470 L 601.8 210 L 804.3 210" fill="none" stroke="#FF5A36" stroke-width="11" stroke-linecap="round" stroke-linejoin="round"/></g>
<g id="l3"><path d="M 804.3 210 L 804.3 470 L 920 470" fill="none" stroke="#0B0B14" stroke-width="20" stroke-linecap="round" stroke-linejoin="round"/><path d="M 804.3 210 L 804.3 470 L 920 470" fill="none" stroke="#2EC4B6" stroke-width="11" stroke-linecap="round" stroke-linejoin="round"/></g>
<g id="p50"><rect x="252.5" y="381" width="120" height="58" rx="12" fill="#FFFFFF" stroke="#0B0B14" stroke-width="3"/><text x="312.5" y="421.5" text-anchor="middle" font-family="JetBrains Mono" font-weight="800" font-size="32" fill="#0B0B14" >50 €</text></g>
<g id="p100"><rect x="633" y="237" width="140" height="58" rx="12" fill="#FF5A36" stroke="#0B0B14" stroke-width="3"/><text x="703" y="277.5" text-anchor="middle" font-family="JetBrains Mono" font-weight="800" font-size="32" fill="#FFFFFF" >100 €</text></g>
<g id="m50"><circle cx="874.3" cy="340" r="58" fill="#FF5A36" stroke="#0B0B14" stroke-width="6"/><text x="874.3" y="352" text-anchor="middle" font-family="Unbounded" font-weight="900" font-size="32" fill="#FFFFFF" >-50 %</text></g>
<g id="bf"><rect x="744.3" y="606" width="120" height="44" rx="10" fill="#0B0B14"/><text x="804.3" y="637" text-anchor="middle" font-family="JetBrains Mono" font-weight="800" font-size="22" fill="#C8FF2E" >BLACK F.</text></g>
<g id="igual"><rect x="340" y="511" width="350" height="58" rx="12" fill="#C8FF2E" stroke="#0B0B14" stroke-width="3"/><text x="515" y="550.8" text-anchor="middle" font-family="JetBrains Mono" font-weight="800" font-size="30" fill="#0B0B14" >¡EL MISMO PRECIO!</text></g>
<g id="minimo"><circle cx="486.1" cy="470" r="30" fill="none" stroke="#3E8E1E" stroke-width="9"/></g>
<g id="tmin"><rect x="321.6" y="509" width="329" height="58" rx="12" fill="#3E8E1E" stroke="#0B0B14" stroke-width="3"/><text x="486.1" y="548.1" text-anchor="middle" font-family="JetBrains Mono" font-weight="800" font-size="28" fill="#FFFFFF" >EL MÁS BAJO: 50 €</text></g>
<g id="tley"><rect x="119" y="276" width="332" height="48" rx="12" fill="#FFFFFF" stroke="#0B0B14" stroke-width="3"/><text x="285" y="308.6" text-anchor="middle" font-family="JetBrains Mono" font-weight="800" font-size="24" fill="#0B0B14" >ART. 20 · LEY 7/1996</text></g>
</svg>