<svg xmlns="http://www.w3.org/2000/svg" viewBox="0 0 1000 700">
<defs>
<linearGradient id="skin" x1="0" y1="0" x2="0" y2="1"><stop offset="0" stop-color="#FAD7BC"/><stop offset="1" stop-color="#E9A57F"/></linearGradient>
<radialGradient id="head" cx="0.62" cy="0.38" r="0.75"><stop offset="0" stop-color="#FCDCC3"/><stop offset="0.7" stop-color="#F3BE98"/><stop offset="1" stop-color="#E3A07A"/></radialGradient>
<linearGradient id="shirt" x1="0" y1="0" x2="0" y2="1"><stop offset="0" stop-color="#FFE07A"/><stop offset="1" stop-color="#F2B835"/></linearGradient>
<linearGradient id="shorts" x1="0" y1="0" x2="0" y2="1"><stop offset="0" stop-color="#9CC8F2"/><stop offset="1" stop-color="#5B92D0"/></linearGradient>
<linearGradient id="hair" x1="0" y1="0" x2="0" y2="1"><stop offset="0" stop-color="#B07A48"/><stop offset="1" stop-color="#7A4E2B"/></linearGradient>
<linearGradient id="cartred" x1="0" y1="0" x2="0" y2="1"><stop offset="0" stop-color="#FF7A6B"/><stop offset="0.5" stop-color="#E5392F"/><stop offset="1" stop-color="#B0221C"/></linearGradient>
<linearGradient id="metal" x1="0" y1="0" x2="0" y2="1"><stop offset="0" stop-color="#F4F6FA"/><stop offset="1" stop-color="#A9B2C2"/></linearGradient>
<radialGradient id="wheel" cx="0.4" cy="0.35" r="0.7"><stop offset="0" stop-color="#5A5F6E"/><stop offset="1" stop-color="#1C1E26"/></radialGradient>
<linearGradient id="sweater" x1="0" y1="0" x2="0" y2="1"><stop offset="0" stop-color="#7FCFA2"/><stop offset="1" stop-color="#3E9A6A"/></linearGradient>
<linearGradient id="jeans" x1="0" y1="0" x2="0" y2="1"><stop offset="0" stop-color="#6F8FC4"/><stop offset="1" stop-color="#3E5C93"/></linearGradient>
<linearGradient id="momhair" x1="0" y1="0" x2="0" y2="1"><stop offset="0" stop-color="#6B4430"/><stop offset="1" stop-color="#3B2418"/></linearGradient>

<linearGradient id="wall" x1="0" y1="0" x2="0" y2="1"><stop offset="0" stop-color="#FFF4E2"/><stop offset="1" stop-color="#FBE2C2"/></linearGradient>
<linearGradient id="floor" x1="0" y1="0" x2="0" y2="1"><stop offset="0" stop-color="#E2BE8C"/><stop offset="1" stop-color="#C99A62"/></linearGradient>
</defs>
<rect width="1000" height="700" fill="url(#wall)"/>
<rect x="0" y="380" width="1000" height="320" fill="url(#floor)"/>
<g stroke="#B8895A" stroke-width="3" opacity="0.5"><line x1="0" y1="440" x2="1000" y2="440"/><line x1="0" y1="520" x2="1000" y2="520"/><line x1="0" y1="610" x2="1000" y2="610"/><line x1="380" y1="380" x2="380" y2="440"/><line x1="820" y1="440" x2="820" y2="520"/><line x1="160" y1="520" x2="160" y2="610"/></g>
<rect x="0" y="362" width="1000" height="22" fill="#FFFFFF" stroke="#0B0B14" stroke-width="4"/>

<g transform="translate(300 640) scale(2.7)">
<g id="manta"><path d="M -210 12 L 132 12 L 132 15.37037037037037 L -210 15.37037037037037 Z" fill="#C9577D" stroke="#0B0B14" stroke-width="2.4074074074074074" stroke-linejoin="round"/><path d="M -200 -24 L 140 -24 L 132 12 L -210 12 Z" fill="#FFF4F7"/><g fill="#F49BB9"><path d="M -200.0 -24.0 L -157.5 -24.0 L -162.4 -6.0 L -205.0 -6.0 Z"/><path d="M -162.4 -6.0 L -119.8 -6.0 L -124.5 12.0 L -167.2 12.0 Z"/><path d="M -115.0 -24.0 L -72.5 -24.0 L -77.1 -6.0 L -119.8 -6.0 Z"/><path d="M -77.1 -6.0 L -34.5 -6.0 L -39.0 12.0 L -81.8 12.0 Z"/><path d="M -30.0 -24.0 L 12.5 -24.0 L 8.1 -6.0 L -34.5 -6.0 Z"/><path d="M 8.1 -6.0 L 50.8 -6.0 L 46.5 12.0 L 3.8 12.0 Z"/><path d="M 55.0 -24.0 L 97.5 -24.0 L 93.4 -6.0 L 50.8 -6.0 Z"/><path d="M 93.4 -6.0 L 136.0 -6.0 L 132.0 12.0 L 89.2 12.0 Z"/></g><path d="M -200 -24 L 140 -24 L 132 12 L -210 12 Z" fill="none" stroke="#0B0B14" stroke-width="2.4074074074074074" stroke-linejoin="round"/></g>
</g>
<g id="glow"><g transform="translate(300 640) scale(2.7)" opacity="0.85"><path d="M -18 -100 L -16 -24" stroke="#0B0B14" stroke-width="54.4" stroke-linecap="round" stroke-linejoin="round" fill="none"/><path d="M -18 -100 L -16 -24" stroke="#C8FF2E" stroke-width="54.4" stroke-linecap="round" stroke-linejoin="round" fill="none"/><path d="M 16 -96 L 22 -24" stroke="#0B0B14" stroke-width="56.4" stroke-linecap="round" stroke-linejoin="round" fill="none"/><path d="M 16 -96 L 22 -24" stroke="#C8FF2E" stroke-width="56.4" stroke-linecap="round" stroke-linejoin="round" fill="none"/><path d="M -40 -252 C -60 -232 -66 -172 -58 -126 C -72 -110 -66 -84 -40 -78 C -10 -72 32 -74 52 -84 C 68 -96 68 -118 61 -134 C 68 -168 64 -228 42 -252 Z" fill="#C8FF2E" stroke="#C8FF2E" stroke-width="16.37037037037037" stroke-linejoin="round"/><ellipse cx="20" cy="-10" rx="62" ry="22" fill="#C8FF2E"/><path d="M 20 -230 Q 60 -205 98 -198" stroke="#0B0B14" stroke-width="46.4" stroke-linecap="round" stroke-linejoin="round" fill="none"/><path d="M 20 -230 Q 60 -205 98 -198" stroke="#C8FF2E" stroke-width="46.4" stroke-linecap="round" stroke-linejoin="round" fill="none"/></g></g>
<g transform="translate(300 640) scale(2.7)">
<g id="cuerda"><path d="M 128 -10 C 136 -44 150 -40 158 -18" stroke="#0B0B14" stroke-width="12.8" stroke-linecap="round" stroke-linejoin="round" fill="none"/><path d="M 128 -10 C 136 -44 150 -40 158 -18" stroke="#FFFFFF" stroke-width="7.0" stroke-linecap="round" stroke-linejoin="round" fill="none"/><path d="M 112 -14 C 124 -36 146 -34 156 -16" stroke="#0B0B14" stroke-width="12.8" stroke-linecap="round" stroke-linejoin="round" fill="none"/><path d="M 112 -14 C 124 -36 146 -34 156 -16" stroke="#FFFFFF" stroke-width="7.0" stroke-linecap="round" stroke-linejoin="round" fill="none"/><circle cx="157" cy="-18" r="4" fill="#FFFFFF" stroke="#0B0B14" stroke-width="1.9259259259259258"/></g>
<g id="carrito"><ellipse cx="243.0" cy="0" rx="125.0" ry="10" fill="#0B0B14" opacity="0.2"/><circle cx="180" cy="-22" r="13" fill="#3A3E4A" stroke="#0B0B14" stroke-width="2.4074074074074074"/><circle cx="346" cy="-22" r="13" fill="#3A3E4A" stroke="#0B0B14" stroke-width="2.4074074074074074"/><path d="M 152.0 -76.0 L 158.0 -18.0" stroke="#0B0B14" stroke-width="14.8" stroke-linecap="round" fill="none"/><path d="M 152.0 -76.0 L 158.0 -18.0" stroke="#D5DBE5" stroke-width="9.0" stroke-linecap="round" fill="none" /><path d="M 332.0 -76.0 L 328.0 -18.0" stroke="#0B0B14" stroke-width="14.8" stroke-linecap="round" fill="none"/><path d="M 332.0 -76.0 L 328.0 -18.0" stroke="#D5DBE5" stroke-width="9.0" stroke-linecap="round" fill="none" /><path d="M 162.0 -46.0 L 324.0 -46.0" stroke="#0B0B14" stroke-width="14.8" stroke-linecap="round" fill="none"/><path d="M 162.0 -46.0 L 324.0 -46.0" stroke="#D5DBE5" stroke-width="9.0" stroke-linecap="round" fill="none" /><path d="M 94.0 -200.0 L 134.0 -174.0" stroke="#0B0B14" stroke-width="15.8" stroke-linecap="round" fill="none"/><path d="M 94.0 -200.0 L 134.0 -174.0" stroke="#D5DBE5" stroke-width="10.0" stroke-linecap="round" fill="none" /><path d="M 128 -176 L 352 -176 L 336 -76 L 150 -76 Z" fill="url(#cartred)" stroke="#0B0B14" stroke-width="2.888888888888889" stroke-linejoin="round"/><g fill="#8E1A15" opacity="0.75"><rect x="150.8" y="-163" width="18.8" height="18" rx="5"/><rect x="177.6" y="-163" width="18.8" height="18" rx="5"/><rect x="204.5" y="-163" width="18.8" height="18" rx="5"/><rect x="231.3" y="-163" width="18.8" height="18" rx="5"/><rect x="258.1" y="-163" width="18.8" height="18" rx="5"/><rect x="284.9" y="-163" width="18.8" height="18" rx="5"/><rect x="311.7" y="-163" width="18.8" height="18" rx="5"/><rect x="157.0" y="-135" width="17.3" height="18" rx="5"/><rect x="182.3" y="-135" width="17.3" height="18" rx="5"/><rect x="207.6" y="-135" width="17.3" height="18" rx="5"/><rect x="232.9" y="-135" width="17.3" height="18" rx="5"/><rect x="258.1" y="-135" width="17.3" height="18" rx="5"/><rect x="283.4" y="-135" width="17.3" height="18" rx="5"/><rect x="308.7" y="-135" width="17.3" height="18" rx="5"/><rect x="163.2" y="-107" width="15.8" height="18" rx="5"/><rect x="186.9" y="-107" width="15.8" height="18" rx="5"/><rect x="210.7" y="-107" width="15.8" height="18" rx="5"/><rect x="234.5" y="-107" width="15.8" height="18" rx="5"/><rect x="258.2" y="-107" width="15.8" height="18" rx="5"/><rect x="282.0" y="-107" width="15.8" height="18" rx="5"/><rect x="305.8" y="-107" width="15.8" height="18" rx="5"/></g><path d="M 124 -176 L 356 -176" stroke="#0B0B14" stroke-width="8.666666666666666" stroke-linecap="round"/><path d="M 124 -176 L 356 -176" stroke="#FF8C7E" stroke-width="3.8518518518518516" stroke-linecap="round"/><path d="M 138 -178 L 342 -178" stroke="#FFFFFF" stroke-width="1.4444444444444444" stroke-linecap="round" opacity="0.7"/><path d="M 86.0 -206.0 L 112.0 -192.0" stroke="#0B0B14" stroke-width="21.8" stroke-linecap="round" fill="none"/><path d="M 86.0 -206.0 L 112.0 -192.0" stroke="#2F6FD6" stroke-width="16.0" stroke-linecap="round" fill="none" /><path d="M 90 -206 L 106 -198" stroke="#8FB8FF" stroke-width="1.9259259259259258" stroke-linecap="round"/><circle cx="158" cy="-18" r="18" fill="url(#wheel)" stroke="#0B0B14" stroke-width="2.888888888888889"/><circle cx="158" cy="-18" r="6" fill="url(#metal)" stroke="#0B0B14" stroke-width="1.4444444444444444"/><circle cx="328" cy="-18" r="18" fill="url(#wheel)" stroke="#0B0B14" stroke-width="2.888888888888889"/><circle cx="328" cy="-18" r="6" fill="url(#metal)" stroke="#0B0B14" stroke-width="1.4444444444444444"/></g>
<g id="bebe"><ellipse cx="14" cy="0" rx="62" ry="9" fill="#0B0B14" opacity="0.22"/><path d="M 2 -232 Q 50 -204 104 -206" stroke="#0B0B14" stroke-width="31.8" stroke-linecap="round" stroke-linejoin="round" fill="none"/><path d="M 2 -232 Q 50 -204 104 -206" stroke="#E6A27C" stroke-width="26.0" stroke-linecap="round" stroke-linejoin="round" fill="none"/><circle cx="106" cy="-205" r="14" fill="#E6A27C" stroke="#0B0B14" stroke-width="2.888888888888889"/><path d="M -20.0 -100.0 L -16.0 -24.0" stroke="#0B0B14" stroke-width="43.8" stroke-linecap="round" fill="none"/><path d="M -20.0 -100.0 L -16.0 -24.0" stroke="#EDB08C" stroke-width="38.0" stroke-linecap="round" fill="none" /><path d="M -34 -6 C -34 -26 -2 -30 18 -20 C 30 -14 32 -2 26 0 L -30 0 C -35 0 -35 -3 -34 -6 Z" fill="#E4E8F0" stroke="#0B0B14" stroke-width="2.888888888888889" stroke-linejoin="round"/><clipPath id="pbtc"><path d="M -40 -252 C -60 -232 -66 -172 -58 -126 L 60 -126 C 68 -168 64 -228 42 -252 C 20 -266 -18 -266 -40 -252 Z"/></clipPath><path d="M -40 -252 C -60 -232 -66 -172 -58 -126 L 60 -126 C 68 -168 64 -228 42 -252 C 20 -266 -18 -266 -40 -252 Z" fill="url(#shirt)"/><g clip-path="url(#pbtc)" fill="#3BB3A8"><rect x="-80" y="-238" width="160" height="11"/><rect x="-80" y="-212" width="160" height="11"/><rect x="-80" y="-186" width="160" height="11"/><rect x="-80" y="-160" width="160" height="11"/><rect x="-80" y="-134" width="160" height="11"/></g><path d="M -40 -252 C -60 -232 -66 -172 -58 -126 L 60 -126 C 68 -168 64 -228 42 -252 C 20 -266 -18 -266 -40 -252 Z" fill="none" stroke="#0B0B14" stroke-width="2.888888888888889" stroke-linejoin="round"/><path d="M -30 -248 C -10 -258 20 -258 34 -248" fill="none" stroke="#FFF3C4" stroke-width="1.9259259259259258" stroke-linecap="round" opacity="0.8"/><path d="M -60 -134 C -72 -110 -66 -84 -40 -78 C -10 -72 32 -74 52 -84 C 68 -96 68 -118 61 -134 Z" fill="url(#shorts)" stroke="#0B0B14" stroke-width="2.888888888888889" stroke-linejoin="round"/><path d="M -50 -126 L 52 -126" stroke="#C9E2FA" stroke-width="1.9259259259259258" stroke-linecap="round" opacity="0.8"/><path d="M 4 -122 Q 6 -100 2 -84" fill="none" stroke="#0B0B14" stroke-width="1.4444444444444444" opacity="0.4"/><path d="M 16.0 -96.0 L 22.0 -24.0" stroke="#0B0B14" stroke-width="45.8" stroke-linecap="round" fill="none"/><path d="M 16.0 -96.0 L 22.0 -24.0" stroke="#F3BE98" stroke-width="40.0" stroke-linecap="round" fill="none" /><path d="M 12 -50 Q 22 -46 30 -51" fill="none" stroke="#C98763" stroke-width="1.4444444444444444" stroke-linecap="round"/><path d="M 0 -8 C 0 -30 34 -34 56 -22 C 70 -15 72 -2 64 0 L 4 0 C -1 0 -1 -4 0 -8 Z" fill="#FFFFFF" stroke="#0B0B14" stroke-width="2.888888888888889" stroke-linejoin="round"/><path d="M 2 -4 L 66 -4" stroke="#FF6B5A" stroke-width="2.4074074074074074"/><path d="M 20 -24 L 32 -17 M 28 -27 L 40 -20" stroke="#0B0B14" stroke-width="1.2037037037037037" stroke-linecap="round" opacity="0.6"/><g id="pbhead"><ellipse cx="-14" cy="-304" rx="15" ry="19" fill="#F0B48E" stroke="#0B0B14" stroke-width="2.888888888888889"/><path d="M -16 -312 Q -8 -304 -16 -296" fill="none" stroke="#C98763" stroke-width="1.4444444444444444" stroke-linecap="round"/><circle cx="16" cy="-310" r="63" fill="url(#head)" stroke="#0B0B14" stroke-width="2.888888888888889"/><path d="M -42 -330 C -40 -372 0 -384 34 -374 C 54 -368 70 -356 76 -340 C 60 -352 40 -350 30 -344 C 22 -356 0 -356 -6 -346 C -16 -352 -30 -344 -32 -326 C -36 -322 -40 -322 -42 -330 Z" fill="url(#hair)" stroke="#0B0B14" stroke-width="2.4074074074074074" stroke-linejoin="round"/><path d="M 22 -372 C 30 -392 52 -390 50 -376 C 48 -368 38 -370 40 -378" fill="none" stroke="#0B0B14" stroke-width="4.333333333333333" stroke-linecap="round"/><path d="M 22 -372 C 30 -392 52 -390 50 -376 C 48 -368 38 -370 40 -378" fill="none" stroke="#9A6A3E" stroke-width="1.9259259259259258" stroke-linecap="round"/><path d="M -18 -362 C 0 -374 30 -374 44 -366" fill="none" stroke="#D2A06A" stroke-width="1.9259259259259258" stroke-linecap="round" opacity="0.8"/><ellipse cx="36" cy="-272" rx="15" ry="9" fill="#FF8FA0" opacity="0.45"/><g id="pbeyes"><ellipse cx="40" cy="-310" rx="7.5" ry="10" fill="#0B0B14"/><circle cx="42" cy="-314" r="3" fill="#FFFFFF"/><ellipse cx="68" cy="-311" rx="5.5" ry="9" fill="#0B0B14"/><circle cx="69.5" cy="-315" r="2.2" fill="#FFFFFF"/></g><path d="M 30 -330 Q 40 -337 50 -331 M 62 -331 Q 69 -336 75 -330" fill="none" stroke="#8A5A35" stroke-width="1.9259259259259258" stroke-linecap="round"/><path d="M 74 -296 Q 82 -288 74 -282" fill="none" stroke="#C98763" stroke-width="1.9259259259259258" stroke-linecap="round"/><ellipse cx="60" cy="-264" rx="7.5" ry="9" fill="#9C2F3A" stroke="#0B0B14" stroke-width="1.4444444444444444"/><path d="M -10 -352 C 6 -366 30 -366 44 -360" fill="none" stroke="#FFFFFF" stroke-width="0.0"/></g><path d="M 20 -230 Q 60 -201 98 -198" stroke="#0B0B14" stroke-width="35.8" stroke-linecap="round" stroke-linejoin="round" fill="none"/><path d="M 20 -230 Q 60 -201 98 -198" stroke="#F3BE98" stroke-width="30.0" stroke-linecap="round" stroke-linejoin="round" fill="none"/><path d="M 20 -230 L 42 -214" stroke="#0B0B14" stroke-width="41.8" stroke-linecap="round" stroke-linejoin="round" fill="none"/><path d="M 20 -230 L 42 -214" stroke="#3BB3A8" stroke-width="36.0" stroke-linecap="round" stroke-linejoin="round" fill="none"/><circle cx="100" cy="-196" r="16" fill="#F3BE98" stroke="#0B0B14" stroke-width="2.888888888888889"/><path d="M 92 -186 Q 102 -182 110 -188" fill="none" stroke="#C98763" stroke-width="1.4444444444444444" stroke-linecap="round"/></g>
</g>
<g id="frena" stroke="#FF5A36" stroke-width="9" stroke-linecap="round"><path d="M 727 529 L 727 502" stroke="#0B0B14" stroke-width="19"/><path d="M 727 529 L 727 502"/><path d="M 771 547 L 790 528" stroke="#0B0B14" stroke-width="19"/><path d="M 771 547 L 790 528"/><path d="M 789 591 L 816 591" stroke="#0B0B14" stroke-width="19"/><path d="M 789 591 L 816 591"/><path d="M 683 547 L 663 528" stroke="#0B0B14" stroke-width="19"/><path d="M 683 547 L 663 528"/></g>
<g id="peso" ><path d="M 95 380 L 95 600" stroke="#0B0B14" stroke-width="24" stroke-linecap="round"/><path d="M 78.7 570.2 L 95 600 L 111.3 570.2" fill="none" stroke="#0B0B14" stroke-width="24" stroke-linecap="round" stroke-linejoin="round"/><path d="M 95 380 L 95 600" stroke="#FF5A36" stroke-width="14" stroke-linecap="round"/><path d="M 78.7 570.2 L 95 600 L 111.3 570.2" fill="none" stroke="#FF5A36" stroke-width="14" stroke-linecap="round" stroke-linejoin="round"/></g>
<g id="presion" stroke="#FF5A36" stroke-width="7" stroke-linecap="round" fill="none"><path d="M 269.8 652 L 283.8 664 L 297.8 652" stroke="#0B0B14" stroke-width="15"/><path d="M 269.8 652 L 283.8 664 L 297.8 652"/><path d="M 404.8 652 L 418.8 664 L 432.8 652" stroke="#0B0B14" stroke-width="15"/><path d="M 404.8 652 L 418.8 664 L 432.8 652"/></g>
<g id="empuje" ><path d="M 640 100 L 840 100" stroke="#0B0B14" stroke-width="24" stroke-linecap="round"/><path d="M 810.2 116.3 L 840 100 L 810.2 83.7" fill="none" stroke="#0B0B14" stroke-width="24" stroke-linecap="round" stroke-linejoin="round"/><path d="M 640 100 L 840 100" stroke="#C8FF2E" stroke-width="14" stroke-linecap="round"/><path d="M 810.2 116.3 L 840 100 L 810.2 83.7" fill="none" stroke="#C8FF2E" stroke-width="14" stroke-linecap="round" stroke-linejoin="round"/></g>
<g id="lpeso"><rect x="30" y="300" width="130" height="58" rx="12" fill="#FF5A36" stroke="#0B0B14" stroke-width="4"/><text x="95.0" y="340" text-anchor="middle" font-family="JetBrains Mono" font-weight="800" font-size="30" fill="#0B0B14">PESO</text></g>
<g id="latada"><line x1="550" y1="488" x2="667.2" y2="542.8" stroke="#0B0B14" stroke-width="5" stroke-linecap="round"/><circle cx="667.2" cy="542.8" r="9" fill="#C8FF2E" stroke="#0B0B14" stroke-width="4"/><rect x="470" y="430" width="160" height="58" rx="12" fill="#0B0B14" stroke="#0B0B14" stroke-width="4"/><text x="550.0" y="470" text-anchor="middle" font-family="JetBrains Mono" font-weight="800" font-size="30" fill="#C8FF2E">ATADA</text></g>
<g id="lobst"><rect x="30" y="170" width="300" height="58" rx="12" fill="#C8FF2E" stroke="#0B0B14" stroke-width="4"/><text x="180.0" y="210" text-anchor="middle" font-family="JetBrains Mono" font-weight="800" font-size="30" fill="#0B0B14">EL OBSTÁCULO</text></g>
<g id="lnada"><rect x="790" y="200" width="170" height="58" rx="12" fill="#FF5A36" stroke="#0B0B14" stroke-width="4"/><text x="875.0" y="240" text-anchor="middle" font-family="JetBrains Mono" font-weight="800" font-size="30" fill="#0B0B14">¡NADA!</text></g>
</svg>