<svg xmlns="http://www.w3.org/2000/svg" viewBox="0 0 1000 700">
<defs>
<radialGradient id="rojo_mant" cx="0.38" cy="0.3" r="0.8"><stop offset="0" stop-color="#FF7A55"/><stop offset="0.55" stop-color="#E2412A"/><stop offset="1" stop-color="#8E1C12"/></radialGradient><linearGradient id="rojo_arm" x1="0" y1="0" x2="0" y2="1"><stop offset="0" stop-color="#FF7A55"/><stop offset="1" stop-color="#E2412A"/></linearGradient><linearGradient id="rojo_armfar" x1="0" y1="0" x2="0" y2="1"><stop offset="0" stop-color="#A82A1A"/><stop offset="1" stop-color="#8E1C12"/></linearGradient><linearGradient id="bgw" x1="0" y1="0" x2="0" y2="1"><stop offset="0" stop-color="#7FC6E8"/><stop offset="1" stop-color="#2A6FB0"/></linearGradient><radialGradient id="iris" cx="0.45" cy="0.4" r="0.7"><stop offset="0" stop-color="#FFF0B0"/><stop offset="0.7" stop-color="#E9C86A"/><stop offset="1" stop-color="#B8902E"/></radialGradient><clipPath id="burb"><circle cx="725" cy="320" r="205"/></clipPath>
</defs>
<rect width="1000" height="700" fill="url(#bgw)"/>
<g fill="#FFFFFF" opacity="0.18"><path d="M 420 0 L 470 0 L 620 700 L 540 700 Z"/><path d="M 760 0 L 810 0 L 960 700 L 880 700 Z"/></g>
<g id="cabeza"><path d="M -20 120 C 120 60, 300 70, 400 170 C 480 250, 500 390, 450 500 C 410 590, 300 640, 160 650 L -20 660 Z" fill="url(#rojo_mant)" stroke="#0B0B14" stroke-width="8" stroke-linejoin="round"/><path d="M 40 150 C 140 110, 260 116, 340 170" fill="none" stroke="#FFB59C" stroke-width="9" stroke-linecap="round" opacity="0.85"/><ellipse cx="64" cy="488" rx="6" ry="4" fill="#B52A18" opacity="0.55"/><circle cx="72" cy="482" r="3" fill="#FFC2AE"/><ellipse cx="93" cy="549" rx="6" ry="4" fill="#B52A18" opacity="0.55"/><circle cx="101" cy="543" r="3" fill="#FFC2AE"/><ellipse cx="185" cy="583" rx="9" ry="6" fill="#B52A18" opacity="0.55"/><circle cx="193" cy="577" r="3" fill="#FFC2AE"/><ellipse cx="37" cy="448" rx="9" ry="6" fill="#B52A18" opacity="0.55"/><ellipse cx="156" cy="482" rx="10" ry="7" fill="#B52A18" opacity="0.55"/><ellipse cx="398" cy="429" rx="6" ry="4" fill="#B52A18" opacity="0.55"/><circle cx="406" cy="423" r="3" fill="#FFC2AE"/><ellipse cx="417" cy="385" rx="7" ry="5" fill="#B52A18" opacity="0.55"/><ellipse cx="389" cy="287" rx="9" ry="6" fill="#B52A18" opacity="0.55"/><ellipse cx="68" cy="517" rx="6" ry="4" fill="#B52A18" opacity="0.55"/><ellipse cx="312" cy="606" rx="13" ry="9" fill="#B52A18" opacity="0.55"/><ellipse cx="95" cy="222" rx="10" ry="7" fill="#B52A18" opacity="0.55"/><ellipse cx="105" cy="267" rx="5" ry="4" fill="#B52A18" opacity="0.55"/><circle cx="113" cy="261" r="3" fill="#FFC2AE"/><ellipse cx="125" cy="353" rx="9" ry="6" fill="#B52A18" opacity="0.55"/><ellipse cx="180" cy="230" rx="12" ry="8" fill="#B52A18" opacity="0.55"/><ellipse cx="97" cy="518" rx="8" ry="6" fill="#B52A18" opacity="0.55"/><circle cx="105" cy="512" r="3" fill="#FFC2AE"/><ellipse cx="83" cy="359" rx="7" ry="5" fill="#B52A18" opacity="0.55"/><circle cx="91" cy="353" r="3" fill="#FFC2AE"/><ellipse cx="56" cy="400" rx="9" ry="6" fill="#B52A18" opacity="0.55"/><ellipse cx="369" cy="251" rx="14" ry="10" fill="#B52A18" opacity="0.55"/><circle cx="377" cy="245" r="3" fill="#FFC2AE"/><ellipse cx="200" cy="190" rx="11" ry="8" fill="#B52A18" opacity="0.55"/><circle cx="208" cy="184" r="3" fill="#FFC2AE"/><ellipse cx="213" cy="224" rx="6" ry="4" fill="#B52A18" opacity="0.55"/><ellipse cx="205" cy="211" rx="9" ry="7" fill="#B52A18" opacity="0.55"/><ellipse cx="107" cy="245" rx="9" ry="7" fill="#B52A18" opacity="0.55"/><circle cx="115" cy="239" r="3" fill="#FFC2AE"/><ellipse cx="322" cy="490" rx="11" ry="8" fill="#B52A18" opacity="0.55"/><circle cx="330" cy="484" r="3" fill="#FFC2AE"/><ellipse cx="313" cy="246" rx="7" ry="5" fill="#B52A18" opacity="0.55"/><ellipse cx="401" cy="507" rx="14" ry="10" fill="#B52A18" opacity="0.55"/><ellipse cx="106" cy="292" rx="10" ry="7" fill="#B52A18" opacity="0.55"/><ellipse cx="169" cy="602" rx="14" ry="9" fill="#B52A18" opacity="0.55"/><ellipse cx="279" cy="609" rx="13" ry="9" fill="#B52A18" opacity="0.55"/><circle cx="287" cy="603" r="3" fill="#FFC2AE"/><ellipse cx="374" cy="244" rx="9" ry="6" fill="#B52A18" opacity="0.55"/><ellipse cx="374" cy="300" rx="8" ry="6" fill="#B52A18" opacity="0.55"/><path d="M -19.1 655.0 L -12.8 653.4 L -5.2 652.0 L 3.2 650.6 L 12.2 649.2 L 21.9 647.8 L 32.1 646.5 L 42.7 645.3 L 53.6 644.2 L 64.5 643.3 L 75.3 642.6 L 85.9 642.1 L 96.0 641.8 L 105.4 641.8 L 114.2 642.1 L 123.1 642.8 L 132.5 643.9 L 142.3 645.2 L 152.4 646.9 L 162.6 648.7 L 172.8 650.8 L 183.0 653.1 L 193.1 655.5 L 203.1 658.0 L 212.7 660.6 L 222.1 663.2 L 231.0 665.8 L 239.5 668.3 L 247.2 670.7 L 254.0 673.1 L 260.7 675.6 L 267.2 678.4 L 273.7 681.5 L 280.0 684.7 L 286.2 688.0 L 292.1 691.4 L 297.9 694.7 L 303.3 697.9 L 308.5 701.0 L 313.4 703.9 L 318.0 706.6 L 322.4 709.0 L 326.2 710.9 L 353.8 669.1 L 351.4 666.9 L 348.6 664.2 L 345.1 660.9 L 341.0 657.1 L 336.3 652.9 L 331.1 648.4 L 325.4 643.6 L 319.2 638.7 L 312.5 633.6 L 305.4 628.5 L 297.9 623.5 L 289.9 618.5 L 281.5 613.7 L 272.8 609.3 L 264.2 605.1 L 255.3 601.0 L 245.9 596.9 L 236.0 592.8 L 225.8 588.7 L 215.3 584.6 L 204.5 580.7 L 193.5 576.8 L 182.4 573.1 L 171.1 569.6 L 159.8 566.3 L 148.5 563.2 L 137.2 560.4 L 125.8 557.9 L 113.9 555.7 L 101.6 554.0 L 89.1 552.7 L 76.5 551.6 L 64.0 550.8 L 51.7 550.2 L 39.8 549.7 L 28.3 549.3 L 17.4 548.9 L 7.4 548.5 L -1.7 548.0 L -9.5 547.3 L -15.8 546.4 L -20.9 545.0 Z" fill="url(#rojo_arm)" stroke="#0B0B14" stroke-width="7" stroke-linejoin="round"/><circle cx="32" cy="642" r="17" fill="#FFD9CC" stroke="#0B0B14" stroke-width="3"/><circle cx="75" cy="638" r="16" fill="#FFD9CC" stroke="#0B0B14" stroke-width="3"/><circle cx="115" cy="638" r="15" fill="#FFD9CC" stroke="#0B0B14" stroke-width="3"/><circle cx="153" cy="643" r="14" fill="#FFD9CC" stroke="#0B0B14" stroke-width="3"/><circle cx="194" cy="652" r="13" fill="#FFD9CC" stroke="#0B0B14" stroke-width="3"/><circle cx="232" cy="663" r="12" fill="#FFD9CC" stroke="#0B0B14" stroke-width="3"/><circle cx="262" cy="673" r="11" fill="#FFD9CC" stroke="#0B0B14" stroke-width="3"/><circle cx="288" cy="686" r="10" fill="#FFD9CC" stroke="#0B0B14" stroke-width="3"/><circle cx="310" cy="699" r="10" fill="#FFD9CC" stroke="#0B0B14" stroke-width="3"/><ellipse cx="250" cy="380" rx="128" ry="108" fill="#E2412A" stroke="#0B0B14" stroke-width="7"/><path d="M 140 330 C 180 270, 320 262, 366 330" fill="none" stroke="#FFB59C" stroke-width="7" stroke-linecap="round" opacity="0.8"/><path d="M 125 333 L 107 335 L 119 348" fill="#E2412A" stroke="#0B0B14" stroke-width="4" stroke-linejoin="round"/><path d="M 154 296 L 137 292 L 144 308" fill="#E2412A" stroke="#0B0B14" stroke-width="4" stroke-linejoin="round"/><path d="M 198 272 L 183 261 L 183 279" fill="#E2412A" stroke="#0B0B14" stroke-width="4" stroke-linejoin="round"/><path d="M 248 264 L 239 248 L 233 265" fill="#E2412A" stroke="#0B0B14" stroke-width="4" stroke-linejoin="round"/><path d="M 300 272 L 297 254 L 284 267" fill="#E2412A" stroke="#0B0B14" stroke-width="4" stroke-linejoin="round"/><path d="M 344 296 L 348 279 L 331 286" fill="#E2412A" stroke="#0B0B14" stroke-width="4" stroke-linejoin="round"/><path d="M 374 333 L 384 318 L 366 318" fill="#E2412A" stroke="#0B0B14" stroke-width="4" stroke-linejoin="round"/></g>
<g id="ojo"><ellipse cx="250" cy="384" rx="100" ry="82" fill="url(#iris)" stroke="#0B0B14" stroke-width="7"/><rect x="170" y="364" width="160" height="40" rx="20" fill="#0B0B14"/><path d="M 182 384 L 318 384" stroke="#2A2A3A" stroke-width="6" stroke-linecap="round"/><ellipse cx="208" cy="342" rx="20" ry="11" fill="#FFFFFF" opacity="0.9"/><circle cx="292" cy="420" r="6" fill="#FFFFFF" opacity="0.6"/><path d="M 160 350 C 170 330, 190 318, 214 312" stroke="#C9A040" stroke-width="3" fill="none" opacity="0.6"/></g>
<path d="M 146 380 C 160 300, 340 300, 354 380" fill="none" stroke="#0B0B14" stroke-width="7" stroke-linecap="round"/>
<circle cx="396" cy="300" r="14" fill="#FFFFFF" stroke="#0B0B14" stroke-width="5"/>
<circle cx="440" cy="284" r="22" fill="#FFFFFF" stroke="#0B0B14" stroke-width="5"/>
<circle cx="732" cy="330" r="214" fill="#000" opacity="0.2"/>
<g id="vista_gris"><g clip-path="url(#burb)"><rect x="510" y="110" width="440" height="420" fill="#9A9A9A"/><path d="M 510 300 C 600 280, 700 300, 950 280 L 950 530 L 510 530 Z" fill="#707070"/><path d="M 510 450 C 620 430, 760 460, 950 440 L 950 530 L 510 530 Z" fill="#C7C7C7" stroke="#0B0B14" stroke-width="5"/><path d="M 600 460 L 570 360" fill="none" stroke="#0B0B14" stroke-width="19" stroke-linecap="round" stroke-linejoin="round"/><path d="M 600 460 L 570 360" fill="none" stroke="#939393" stroke-width="12" stroke-linecap="round" stroke-linejoin="round"/><path d="M 600 460 L 630 350" fill="none" stroke="#0B0B14" stroke-width="19" stroke-linecap="round" stroke-linejoin="round"/><path d="M 600 460 L 630 350" fill="none" stroke="#939393" stroke-width="12" stroke-linecap="round" stroke-linejoin="round"/><path d="M 600 420 L 650 400" fill="none" stroke="#0B0B14" stroke-width="19" stroke-linecap="round" stroke-linejoin="round"/><path d="M 600 420 L 650 400" fill="none" stroke="#939393" stroke-width="12" stroke-linecap="round" stroke-linejoin="round"/><path d="M 590 400 L 560 390" fill="none" stroke="#0B0B14" stroke-width="19" stroke-linecap="round" stroke-linejoin="round"/><path d="M 590 400 L 560 390" fill="none" stroke="#939393" stroke-width="12" stroke-linecap="round" stroke-linejoin="round"/><circle cx="570" cy="360" r="11" fill="#CACACA" stroke="#0B0B14" stroke-width="4"/><circle cx="630" cy="350" r="11" fill="#CACACA" stroke="#0B0B14" stroke-width="4"/><circle cx="650" cy="400" r="11" fill="#CACACA" stroke="#0B0B14" stroke-width="4"/><circle cx="560" cy="390" r="11" fill="#CACACA" stroke="#0B0B14" stroke-width="4"/><path d="M 880 460 C 860 400, 900 360, 870 300 C 860 270, 880 240, 870 220" fill="none" stroke="#0B0B14" stroke-width="18" stroke-linecap="round" stroke-linejoin="round"/><path d="M 880 460 C 860 400, 900 360, 870 300 C 860 270, 880 240, 870 220" fill="none" stroke="#878787" stroke-width="11" stroke-linecap="round" stroke-linejoin="round"/><path d="M 900 460 C 920 410, 890 370, 912 330" fill="none" stroke="#0B0B14" stroke-width="16" stroke-linecap="round" stroke-linejoin="round"/><path d="M 900 460 C 920 410, 890 370, 912 330" fill="none" stroke="#B6B6B6" stroke-width="9" stroke-linecap="round" stroke-linejoin="round"/><g transform="translate(740 220) scale(1.0)"><path d="M -44 0 C -20 -30, 34 -28, 50 0 C 34 28, -20 30, -44 0 Z" fill="#CFCFCF" stroke="#0B0B14" stroke-width="5"/><path d="M -42 0 L -72 -22 L -64 0 L -72 22 Z" fill="#CFCFCF" stroke="#0B0B14" stroke-width="5" stroke-linejoin="round"/><path d="M -6 -24 Q 6 0 -6 24" fill="none" stroke="#505050" stroke-width="8"/><circle cx="28" cy="-6" r="7" fill="#FFFFFF" stroke="#0B0B14" stroke-width="3"/><circle cx="30" cy="-6" r="3.5" fill="#0B0B14"/></g><g transform="translate(800 300) scale(0.8)"><path d="M -44 0 C -20 -30, 34 -28, 50 0 C 34 28, -20 30, -44 0 Z" fill="#8F8F8F" stroke="#0B0B14" stroke-width="5"/><path d="M -42 0 L -72 -22 L -64 0 L -72 22 Z" fill="#8F8F8F" stroke="#0B0B14" stroke-width="5" stroke-linejoin="round"/><path d="M -6 -24 Q 6 0 -6 24" fill="none" stroke="#505050" stroke-width="8"/><circle cx="28" cy="-6" r="7" fill="#FFFFFF" stroke="#0B0B14" stroke-width="3"/><circle cx="30" cy="-6" r="3.5" fill="#0B0B14"/></g><g transform="translate(690 330) scale(0.7)"><path d="M -44 0 C -20 -30, 34 -28, 50 0 C 34 28, -20 30, -44 0 Z" fill="#A4A4A4" stroke="#0B0B14" stroke-width="5"/><path d="M -42 0 L -72 -22 L -64 0 L -72 22 Z" fill="#A4A4A4" stroke="#0B0B14" stroke-width="5" stroke-linejoin="round"/><path d="M -6 -24 Q 6 0 -6 24" fill="none" stroke="#505050" stroke-width="8"/><circle cx="28" cy="-6" r="7" fill="#FFFFFF" stroke="#0B0B14" stroke-width="3"/><circle cx="30" cy="-6" r="3.5" fill="#0B0B14"/></g><ellipse cx="760" cy="470" rx="40" ry="14" fill="#8B8B8B" stroke="#0B0B14" stroke-width="5"/></g></g>
<g id="vista_color"><g clip-path="url(#burb)"><rect x="510" y="110" width="440" height="420" fill="#4FB3E8"/><path d="M 510 300 C 600 280, 700 300, 950 280 L 950 530 L 510 530 Z" fill="#2F7FD6"/><path d="M 510 450 C 620 430, 760 460, 950 440 L 950 530 L 510 530 Z" fill="#E7C487" stroke="#0B0B14" stroke-width="5"/><path d="M 600 460 L 570 360" fill="none" stroke="#0B0B14" stroke-width="19" stroke-linecap="round" stroke-linejoin="round"/><path d="M 600 460 L 570 360" fill="none" stroke="#FF6A4E" stroke-width="12" stroke-linecap="round" stroke-linejoin="round"/><path d="M 600 460 L 630 350" fill="none" stroke="#0B0B14" stroke-width="19" stroke-linecap="round" stroke-linejoin="round"/><path d="M 600 460 L 630 350" fill="none" stroke="#FF6A4E" stroke-width="12" stroke-linecap="round" stroke-linejoin="round"/><path d="M 600 420 L 650 400" fill="none" stroke="#0B0B14" stroke-width="19" stroke-linecap="round" stroke-linejoin="round"/><path d="M 600 420 L 650 400" fill="none" stroke="#FF6A4E" stroke-width="12" stroke-linecap="round" stroke-linejoin="round"/><path d="M 590 400 L 560 390" fill="none" stroke="#0B0B14" stroke-width="19" stroke-linecap="round" stroke-linejoin="round"/><path d="M 590 400 L 560 390" fill="none" stroke="#FF6A4E" stroke-width="12" stroke-linecap="round" stroke-linejoin="round"/><circle cx="570" cy="360" r="11" fill="#FFB0C8" stroke="#0B0B14" stroke-width="4"/><circle cx="630" cy="350" r="11" fill="#FFB0C8" stroke="#0B0B14" stroke-width="4"/><circle cx="650" cy="400" r="11" fill="#FFB0C8" stroke="#0B0B14" stroke-width="4"/><circle cx="560" cy="390" r="11" fill="#FFB0C8" stroke="#0B0B14" stroke-width="4"/><path d="M 880 460 C 860 400, 900 360, 870 300 C 860 270, 880 240, 870 220" fill="none" stroke="#0B0B14" stroke-width="18" stroke-linecap="round" stroke-linejoin="round"/><path d="M 880 460 C 860 400, 900 360, 870 300 C 860 270, 880 240, 870 220" fill="none" stroke="#36B37E" stroke-width="11" stroke-linecap="round" stroke-linejoin="round"/><path d="M 900 460 C 920 410, 890 370, 912 330" fill="none" stroke="#0B0B14" stroke-width="16" stroke-linecap="round" stroke-linejoin="round"/><path d="M 900 460 C 920 410, 890 370, 912 330" fill="none" stroke="#7BE07B" stroke-width="9" stroke-linecap="round" stroke-linejoin="round"/><g transform="translate(740 220) scale(1.0)"><path d="M -44 0 C -20 -30, 34 -28, 50 0 C 34 28, -20 30, -44 0 Z" fill="#FFD23F" stroke="#0B0B14" stroke-width="5"/><path d="M -42 0 L -72 -22 L -64 0 L -72 22 Z" fill="#FFD23F" stroke="#0B0B14" stroke-width="5" stroke-linejoin="round"/><path d="M -6 -24 Q 6 0 -6 24" fill="none" stroke="#2347FF" stroke-width="8"/><circle cx="28" cy="-6" r="7" fill="#FFFFFF" stroke="#0B0B14" stroke-width="3"/><circle cx="30" cy="-6" r="3.5" fill="#0B0B14"/></g><g transform="translate(800 300) scale(0.8)"><path d="M -44 0 C -20 -30, 34 -28, 50 0 C 34 28, -20 30, -44 0 Z" fill="#B06BFF" stroke="#0B0B14" stroke-width="5"/><path d="M -42 0 L -72 -22 L -64 0 L -72 22 Z" fill="#B06BFF" stroke="#0B0B14" stroke-width="5" stroke-linejoin="round"/><path d="M -6 -24 Q 6 0 -6 24" fill="none" stroke="#2347FF" stroke-width="8"/><circle cx="28" cy="-6" r="7" fill="#FFFFFF" stroke="#0B0B14" stroke-width="3"/><circle cx="30" cy="-6" r="3.5" fill="#0B0B14"/></g><g transform="translate(690 330) scale(0.7)"><path d="M -44 0 C -20 -30, 34 -28, 50 0 C 34 28, -20 30, -44 0 Z" fill="#FF8A3D" stroke="#0B0B14" stroke-width="5"/><path d="M -42 0 L -72 -22 L -64 0 L -72 22 Z" fill="#FF8A3D" stroke="#0B0B14" stroke-width="5" stroke-linejoin="round"/><path d="M -6 -24 Q 6 0 -6 24" fill="none" stroke="#2347FF" stroke-width="8"/><circle cx="28" cy="-6" r="7" fill="#FFFFFF" stroke="#0B0B14" stroke-width="3"/><circle cx="30" cy="-6" r="3.5" fill="#0B0B14"/></g><ellipse cx="760" cy="470" rx="40" ry="14" fill="#E85A9A" stroke="#0B0B14" stroke-width="5"/></g></g>
<circle cx="725" cy="320" r="205" fill="none" stroke="#FFFFFF" stroke-width="16"/><circle cx="725" cy="320" r="214" fill="none" stroke="#0B0B14" stroke-width="6"/><circle cx="725" cy="320" r="198" fill="none" stroke="#0B0B14" stroke-width="4"/>
<g id="l_bn"><rect x="555" y="566" width="340" height="48" rx="12" fill="#0B0B14" stroke="#0B0B14" stroke-width="3"/><text x="725" y="599.4" text-anchor="middle" font-family="JetBrains Mono, DejaVu Sans Mono, monospace" font-weight="800" font-size="26" fill="#C8FF2E">¿EN BLANCO Y NEGRO?</text></g>
<g id="interroga"><circle cx="905" cy="150" r="54" fill="#FF5A36" stroke="#0B0B14" stroke-width="6"/><text x="905" y="176" text-anchor="middle" font-family="JetBrains Mono, DejaVu Sans Mono, monospace" font-weight="800" font-size="76" fill="#FFFFFF" >?</text></g>
</svg>